<svg width="270" height="137" viewBox="0 0 270 137" fill="none" xmlns="http://www.w3.org/2000/svg">
<circle cx="18.3258" cy="54.3563" r="18.3258" fill="#F2E205"/>
<circle cx="251.674" cy="97.1166" r="18.3258" fill="#4CD7D0"/>
<path d="M18.3258 58.8116C18.3258 57.9725 18.5985 57.4271 19.1439 57.1754C19.7312 56.9237 20.3605 56.7978 21.0317 56.7978C21.1576 56.7978 21.3883 56.8188 21.7239 56.8608C22.1015 56.9027 22.3322 56.9237 22.4161 56.9237C22.542 58.2242 22.6679 59.7974 22.7937 61.6433C22.9196 63.4473 23.0664 65.419 23.2342 67.5586C23.402 69.6562 23.6118 71.8377 23.8635 74.1031C24.1152 76.3686 24.4718 78.592 24.9333 80.7735C25.3948 82.9131 25.9611 84.9688 26.6323 86.9405C27.3036 88.8703 28.1216 90.5484 29.0865 91.9748C29.2963 92.3523 29.4851 92.646 29.6529 92.8558C29.8627 93.0236 30.0514 93.1704 30.2193 93.2963C30.429 93.3802 30.6598 93.4431 30.9115 93.4851C31.1632 93.4851 31.4778 93.4851 31.8554 93.4851C33.5754 93.4851 35.2116 93.1914 36.7638 92.6041C38.358 92.0167 39.9312 91.3665 41.4834 90.6533C43.0357 89.9401 44.6089 89.2898 46.2031 88.7025C47.7972 88.1152 49.4753 87.8215 51.2373 87.8215C51.6149 87.8215 52.0973 87.8215 52.6847 87.8215C53.272 87.7796 53.8174 87.8005 54.3208 87.8844C54.8242 87.9683 55.2647 88.1781 55.6423 88.5137C56.0199 88.8493 56.2087 89.3528 56.2087 90.024C56.2087 90.6533 55.6423 91.3455 54.5096 92.1006C53.3769 92.8138 51.9295 93.548 50.1675 94.3031C48.4055 95.0163 46.4757 95.7295 44.3781 96.4427C42.3225 97.1559 40.3297 97.7852 38.3999 98.3305C36.5121 98.8759 34.834 99.3164 33.3657 99.652C31.8973 99.9457 30.9324 100.093 30.471 100.093C28.9607 100.093 27.6182 99.5891 26.4436 98.5822C25.3108 97.5334 24.304 96.149 23.423 94.429C22.584 92.667 21.8708 90.6743 21.2834 88.4508C20.6961 86.1854 20.2137 83.836 19.8361 81.4028C19.4585 78.9696 19.1648 76.5573 18.9551 74.1661C18.7453 71.7748 18.5985 69.5513 18.5146 67.4957C18.4307 65.44 18.3678 63.6361 18.3258 62.0838C18.3258 60.5316 18.3258 59.4408 18.3258 58.8116ZM58.6629 82.5985C58.6629 80.333 58.9355 78.0676 59.4809 75.8022C60.0263 73.5368 60.8863 71.5021 62.061 69.6982C63.2776 67.8942 64.8298 66.4259 66.7177 65.2932C68.6475 64.1605 70.9758 63.5941 73.7027 63.5941C75.255 63.5941 76.6184 63.8878 77.7931 64.4751C78.9677 65.0205 79.9536 65.7546 80.7507 66.6776C81.5478 67.6005 82.1351 68.6913 82.5127 69.9499C82.9322 71.1665 83.142 72.446 83.142 73.7885C83.142 75.9281 82.6385 78.0047 81.6317 80.0184C80.6668 82.0321 79.3453 83.8151 77.6672 85.3673C76.0311 86.8776 74.1432 88.0313 72.0037 88.8284C69.8641 89.5835 67.6826 89.7513 65.4591 89.3318C65.5011 90.5484 65.8996 91.5343 66.6548 92.2894C67.4518 93.0026 68.3958 93.548 69.4865 93.9256C70.5773 94.3031 71.71 94.5548 72.8847 94.6807C74.0593 94.7646 75.1081 94.8066 76.0311 94.8066C76.996 94.8066 77.8979 94.7226 78.737 94.5548C79.576 94.387 80.4151 94.1982 81.2541 93.9885C82.0932 93.7787 82.9322 93.5899 83.7713 93.4221C84.6523 93.2543 85.5752 93.1704 86.5401 93.1704C86.9177 93.1704 87.2952 93.1914 87.6728 93.2333C88.0504 93.2753 88.407 93.3802 88.7426 93.548C89.0782 93.6738 89.3509 93.9046 89.5607 94.2402C89.7704 94.5339 89.8753 94.9114 89.8753 95.3729C89.8753 96.17 89.5816 96.8412 88.9943 97.3866C88.407 97.89 87.6518 98.3305 86.7289 98.7081C85.8479 99.0857 84.862 99.3793 83.7713 99.5891C82.6805 99.7569 81.6107 99.9037 80.5619 100.03C79.5551 100.114 78.6111 100.155 77.7301 100.155C76.8911 100.197 76.2618 100.218 75.8423 100.218C73.1573 100.218 70.7451 99.7989 68.6055 98.9598C66.466 98.0788 64.662 96.8832 63.1937 95.3729C61.7254 93.8207 60.5927 91.9748 59.7956 89.8352C59.0404 87.6537 58.6629 85.2414 58.6629 82.5985ZM65.3333 78.5081C65.3333 79.9764 65.522 81.0462 65.8996 81.7175C66.3191 82.3887 67.305 82.7243 68.8572 82.7243C69.948 82.7243 71.0178 82.5355 72.0666 82.158C73.1154 81.7384 74.0593 81.1721 74.8984 80.4589C75.7794 79.7457 76.4716 78.9067 76.975 77.9418C77.4784 76.9769 77.7301 75.9281 77.7301 74.7953C77.7301 74.1661 77.6672 73.5158 77.5414 72.8446C77.4575 72.1733 77.2477 71.565 76.9121 71.0196C76.5765 70.4323 76.136 69.9708 75.5906 69.6352C75.0872 69.2577 74.4159 69.0689 73.5769 69.0689C72.3183 69.0689 71.1646 69.3625 70.1158 69.9499C69.109 70.4952 68.2489 71.2294 67.5358 72.1524C66.8226 73.0334 66.2772 74.0402 65.8996 75.1729C65.522 76.2637 65.3333 77.3754 65.3333 78.5081ZM92.3924 73.6626C92.3924 72.6138 92.5602 71.7958 92.8959 71.2084C93.2734 70.6211 94.0496 70.3274 95.2242 70.3274C95.3501 70.3274 95.5808 70.3484 95.9164 70.3904C96.294 70.3904 96.5247 70.3904 96.6086 70.3904C96.9023 71.6909 97.196 73.1173 97.4896 74.6695C97.8253 76.1798 98.2028 77.711 98.6223 79.2633C99.0419 80.8155 99.5033 82.3467 100.007 83.857C100.552 85.3673 101.202 86.7307 101.958 87.9474C102.713 87.1503 103.258 86.2063 103.594 85.1156C103.929 84.0248 104.181 82.9341 104.349 81.8433C104.517 80.7106 104.663 79.6408 104.789 78.634C104.957 77.5852 105.272 76.7042 105.733 75.991C106.195 75.2358 106.866 74.6905 107.747 74.3548C108.67 74.0192 109.928 74.0192 111.523 74.3548C113.285 74.3548 114.69 74.6905 115.739 75.3617C116.788 75.991 117.69 76.8091 118.445 77.8159C119.242 78.7808 119.997 79.8296 120.71 80.9623C121.465 82.0531 122.409 83.039 123.542 83.92C123.794 83.3746 124.108 82.7033 124.486 81.9062C124.863 81.0672 125.325 80.2072 125.87 79.3262C126.458 78.4032 127.066 77.5013 127.695 76.6203C128.366 75.6973 129.059 74.8792 129.772 74.1661C130.485 73.4109 131.219 72.8026 131.974 72.3411C132.729 71.8377 133.464 71.586 134.177 71.586C135.897 71.586 137.386 72.1314 138.645 73.2221C139.903 74.2709 140.973 75.6134 141.854 77.2495C142.777 78.8437 143.532 80.6477 144.12 82.6614C144.707 84.6331 145.168 86.542 145.504 88.3879C145.84 90.2338 146.07 91.9328 146.196 93.4851C146.364 94.9953 146.448 96.0861 146.448 96.7573C146.448 97.3027 146.322 97.7222 146.07 98.0159C145.819 98.3096 145.504 98.5403 145.126 98.7081C144.749 98.834 144.329 98.9179 143.868 98.9598C143.448 99.0018 143.05 99.0227 142.672 99.0227C142.588 99.0227 142.462 99.0227 142.295 99.0227C142.127 98.9808 141.938 98.9388 141.728 98.8969C141.56 98.8549 141.33 98.792 141.036 98.7081L136.946 79.8925C136.946 79.7667 136.778 79.5359 136.442 79.2003C136.107 78.8228 135.855 78.592 135.687 78.5081C135.561 78.5081 135.456 78.4871 135.372 78.4452C135.289 78.4452 135.226 78.4452 135.184 78.4452C135.142 78.4032 135.1 78.3823 135.058 78.3823C134.177 78.3823 133.338 78.7389 132.541 79.452C131.786 80.1652 131.072 81.0672 130.401 82.158C129.73 83.2487 129.101 84.4653 128.513 85.8078C127.926 87.1503 127.402 88.4927 126.94 89.8352C126.479 91.1357 126.059 92.3523 125.682 93.4851C125.346 94.5758 125.073 95.4149 124.863 96.0022C124.696 96.0861 124.36 96.17 123.857 96.2539C123.353 96.2959 123.018 96.3168 122.85 96.3168C121.675 96.3168 120.773 95.9183 120.144 95.1212C119.515 94.2821 118.99 93.2543 118.571 92.0377C118.193 90.8211 117.857 89.4996 117.564 88.0732C117.312 86.6049 116.976 85.2624 116.557 84.0458C116.179 82.8292 115.634 81.8223 114.921 81.0252C114.25 80.1862 113.285 79.7667 112.026 79.7667C111.565 79.7667 111.124 80.2282 110.705 81.1511C110.285 82.0741 109.907 83.2487 109.572 84.6751C109.236 86.0595 108.922 87.5698 108.628 89.2059C108.334 90.8001 108.083 92.3104 107.873 93.7368C107.705 95.1212 107.579 96.2959 107.495 97.2608C107.411 98.2257 107.369 98.7081 107.369 98.7081C107.285 98.834 107.118 98.9808 106.866 99.1486C106.614 99.2745 106.342 99.4213 106.048 99.5891C105.796 99.7569 105.523 99.8828 105.23 99.9667C104.978 100.051 104.789 100.093 104.663 100.093C103.489 100.093 102.356 99.5681 101.265 98.5193C100.175 97.4286 99.1677 96.0441 98.2448 94.3661C97.3638 92.646 96.5457 90.7582 95.7906 88.7025C95.0774 86.6468 94.4691 84.6331 93.9656 82.6614C93.4622 80.6896 93.0637 78.9067 92.77 77.3125C92.5183 75.7183 92.3924 74.5017 92.3924 73.6626ZM149.028 87.3181C149.028 84.717 149.636 82.3048 150.853 80.0813C152.069 77.8159 153.664 75.8861 155.635 74.2919C157.649 72.6558 159.894 71.3762 162.369 70.4533C164.886 69.5303 167.424 69.0689 169.983 69.0689C171.409 69.0689 172.668 69.5303 173.759 70.4533C174.891 71.3762 175.835 72.5089 176.591 73.8514C177.346 75.1519 177.912 76.5364 178.29 78.0047C178.709 79.473 178.919 80.7526 178.919 81.8433C178.919 84.1926 178.353 86.479 177.22 88.7025C176.087 90.884 174.619 92.8348 172.815 94.5548C171.011 96.2329 168.976 97.5964 166.711 98.6452C164.445 99.694 162.18 100.218 159.915 100.218C157.901 100.218 156.202 99.8828 154.817 99.2115C153.433 98.4983 152.321 97.5754 151.482 96.4427C150.643 95.268 150.014 93.9046 149.594 92.3523C149.217 90.7582 149.028 89.0801 149.028 87.3181ZM154.377 87.9474C154.377 89.0381 154.461 90.003 154.629 90.8421C154.838 91.6392 155.174 92.3314 155.635 92.9187C156.139 93.506 156.789 93.9675 157.586 94.3031C158.383 94.5968 159.369 94.7436 160.544 94.7436C162.096 94.7436 163.648 94.3241 165.201 93.4851C166.753 92.6041 168.137 91.5133 169.354 90.2128C170.612 88.8703 171.619 87.402 172.374 85.8078C173.129 84.2136 173.507 82.6614 173.507 81.1511C173.507 80.4799 173.444 79.7457 173.318 78.9486C173.192 78.1515 172.983 77.4174 172.689 76.7461C172.395 76.0749 171.976 75.5085 171.43 75.0471C170.885 74.5856 170.193 74.3548 169.354 74.3548C168.599 74.3548 167.697 74.6066 166.648 75.11C165.641 75.6134 164.571 76.2637 163.439 77.0608C162.348 77.8579 161.257 78.7598 160.166 79.7667C159.117 80.7735 158.153 81.7804 157.272 82.7872C156.391 83.7941 155.677 84.759 155.132 85.6819C154.629 86.6049 154.377 87.36 154.377 87.9474ZM181.373 87.3181C181.373 84.717 181.981 82.3048 183.198 80.0813C184.415 77.8159 186.009 75.8861 187.981 74.2919C189.994 72.6558 192.239 71.3762 194.714 70.4533C197.231 69.5303 199.769 69.0689 202.328 69.0689C203.755 69.0689 205.013 69.5303 206.104 70.4533C207.237 71.3762 208.181 72.5089 208.936 73.8514C209.691 75.1519 210.257 76.5364 210.635 78.0047C211.054 79.473 211.264 80.7526 211.264 81.8433C211.264 84.1926 210.698 86.479 209.565 88.7025C208.432 90.884 206.964 92.8348 205.16 94.5548C203.356 96.2329 201.321 97.5964 199.056 98.6452C196.791 99.694 194.525 100.218 192.26 100.218C190.246 100.218 188.547 99.8828 187.162 99.2115C185.778 98.4983 184.666 97.5754 183.827 96.4427C182.988 95.268 182.359 93.9046 181.939 92.3523C181.562 90.7582 181.373 89.0801 181.373 87.3181ZM186.722 87.9474C186.722 89.0381 186.806 90.003 186.974 90.8421C187.183 91.6392 187.519 92.3314 187.981 92.9187C188.484 93.506 189.134 93.9675 189.931 94.3031C190.728 94.5968 191.714 94.7436 192.889 94.7436C194.441 94.7436 195.993 94.3241 197.546 93.4851C199.098 92.6041 200.482 91.5133 201.699 90.2128C202.957 88.8703 203.964 87.402 204.719 85.8078C205.475 84.2136 205.852 82.6614 205.852 81.1511C205.852 80.4799 205.789 79.7457 205.663 78.9486C205.538 78.1515 205.328 77.4174 205.034 76.7461C204.74 76.0749 204.321 75.5085 203.776 75.0471C203.23 74.5856 202.538 74.3548 201.699 74.3548C200.944 74.3548 200.042 74.6066 198.993 75.11C197.986 75.6134 196.916 76.2637 195.784 77.0608C194.693 77.8579 193.602 78.7598 192.511 79.7667C191.463 80.7735 190.498 81.7804 189.617 82.7872C188.736 83.7941 188.023 84.759 187.477 85.6819C186.974 86.6049 186.722 87.36 186.722 87.9474ZM213.718 78.8857C213.718 77.7949 213.991 77.0188 214.536 76.5573C215.082 76.0539 215.963 75.8022 217.179 75.8022H217.809C217.934 76.4734 218.081 77.2495 218.249 78.1305C218.417 79.0115 218.669 79.9135 219.004 80.8365C219.34 81.7594 219.738 82.6194 220.2 83.4165C220.661 84.1717 221.228 84.78 221.899 85.2414C221.941 83.7731 222.297 82.3677 222.969 81.0252C223.682 79.6408 224.542 78.4242 225.549 77.3754C226.598 76.2846 227.73 75.3827 228.947 74.6695C230.205 73.9143 231.443 73.4109 232.66 73.1592H234.044C236.058 73.1592 237.778 73.6207 239.204 74.5436C240.631 75.4246 241.805 76.5993 242.728 78.0676C243.693 79.494 244.427 81.1301 244.931 82.976C245.434 84.8219 245.812 86.7098 246.063 88.6396C246.357 90.5274 246.525 92.3733 246.567 94.1773C246.651 95.9393 246.693 97.4495 246.693 98.7081H242.099C241.847 96.191 241.533 93.7787 241.155 91.4713C241.029 90.5484 240.861 89.5835 240.652 88.5766C240.442 87.5278 240.211 86.5629 239.959 85.6819C239.708 84.759 239.435 83.92 239.141 83.1648C238.848 82.3677 238.512 81.6965 238.134 81.1511C237.967 80.9833 237.736 80.7526 237.442 80.4589C237.191 80.1652 236.918 79.8716 236.624 79.5779C236.33 79.2842 236.058 79.0325 235.806 78.8228C235.554 78.613 235.408 78.5081 235.366 78.5081C234.107 78.1725 233.016 78.4242 232.093 79.2633C231.17 80.0603 230.352 81.1511 229.639 82.5355C228.926 83.92 228.339 85.4932 227.877 87.2552C227.458 89.0171 227.101 90.7162 226.807 92.3523C226.514 93.9465 226.304 95.3519 226.178 96.5685C226.052 97.7432 225.968 98.4564 225.926 98.7081C224.878 99.4632 223.892 99.694 222.969 99.4003C222.046 99.0647 221.165 98.3935 220.326 97.3866C219.529 96.3798 218.794 95.1212 218.123 93.6109C217.494 92.1006 216.907 90.5064 216.361 88.8284C215.816 87.1083 215.312 85.3883 214.851 83.6682C214.431 81.9482 214.054 80.354 213.718 78.8857Z" fill="black"/>
<path fill-rule="evenodd" clip-rule="evenodd" d="M91.4626 19.8208L88.5393 20.1936C86.1839 20.4921 83.4714 22.1095 81.3655 24.1663C80.419 25.0683 79.6062 26.1007 78.9513 27.2328C78.3895 28.2506 78.232 29.0161 78.2969 29.4782C78.3583 29.9406 78.716 30.6405 79.5318 31.4826C80.3176 32.2952 81.4116 33.1186 82.6867 33.839C85.2712 35.2996 88.3266 36.1796 90.6815 35.8775L106.93 33.8075L106.358 29.6197C106.335 29.45 106.345 29.2776 106.389 29.1125C106.432 28.9473 106.508 28.7926 106.611 28.6572C106.715 28.5218 106.844 28.4083 106.992 28.3232C107.14 28.2382 107.304 28.1832 107.473 28.1614C107.816 28.1175 108.164 28.2115 108.439 28.4228C108.576 28.5274 108.691 28.6577 108.777 28.8062C108.864 28.9547 108.92 29.1185 108.943 29.2882L109.692 34.7696C109.715 34.9395 109.705 35.112 109.662 35.2773C109.618 35.4427 109.542 35.5975 109.439 35.733C109.335 35.8685 109.205 35.982 109.057 36.0669C108.909 36.1519 108.745 36.2066 108.575 36.2281L106.574 36.4814L108.78 42.0018C108.854 42.1863 108.885 42.3849 108.871 42.5825C108.857 42.7801 108.798 42.9714 108.698 43.1418C108.598 43.3123 108.461 43.4575 108.296 43.5662C108.131 43.675 107.943 43.7445 107.746 43.7695L100.438 44.7014C100.237 44.7269 100.033 44.7051 99.8407 44.6379C99.6489 44.5708 99.475 44.46 99.3328 44.3144L93.3131 38.1723L91.0349 38.4647C87.9085 38.8615 84.272 37.7153 81.4177 36.1033C79.9737 35.2891 78.6641 34.3166 77.6622 33.2825C76.6919 32.276 75.8855 31.0813 75.7098 29.808C75.5376 28.5343 75.9936 27.1768 76.664 25.9611C77.4408 24.6091 78.4071 23.3761 79.5341 22.2992C81.8552 20.0216 85.061 18.0012 88.1838 17.6048L90.4625 17.3161L94.627 9.87548C94.7252 9.69923 94.8634 9.54865 95.0306 9.43568C95.1978 9.32272 95.3894 9.25048 95.5902 9.22471L102.899 8.2928C103.095 8.26764 103.295 8.28767 103.484 8.35138C103.672 8.41509 103.844 8.5208 103.986 8.66045C104.128 8.8001 104.237 8.97001 104.304 9.15723C104.37 9.34446 104.394 9.54406 104.372 9.74084L103.725 15.6231L105.724 15.3683C105.894 15.3464 106.067 15.3582 106.233 15.4031C106.399 15.448 106.554 15.5251 106.691 15.63C106.827 15.7348 106.942 15.8653 107.029 16.0141C107.115 16.1629 107.171 16.3269 107.194 16.4969L107.943 21.9782C107.966 22.1481 107.956 22.3206 107.912 22.4858C107.869 22.651 107.793 22.8058 107.689 22.9412C107.585 23.0767 107.456 23.1901 107.308 23.2752C107.16 23.3602 106.996 23.4151 106.826 23.4368C106.656 23.4584 106.483 23.4464 106.318 23.4014C106.152 23.3564 105.996 23.2793 105.86 23.1745C105.723 23.0697 105.608 22.9393 105.522 22.7906C105.435 22.6419 105.379 22.478 105.356 22.3081L104.787 18.1199L102.425 18.423L91.4626 19.8208ZM105.74 41.395L103.912 36.819L96.5434 37.7604L100.73 42.0338L105.736 41.3955L105.74 41.395ZM101.062 15.9665L93.6949 16.9058L96.5904 11.7294L101.597 11.0911L101.062 15.9665ZM112.062 20.9103C111.892 20.932 111.719 20.9201 111.553 20.8753C111.388 20.8304 111.232 20.7535 111.096 20.6489C110.959 20.5442 110.844 20.414 110.758 20.2655C110.671 20.117 110.615 19.9532 110.591 19.7834C110.568 19.6137 110.579 19.4413 110.622 19.2762C110.665 19.111 110.741 18.9563 110.845 18.8209C110.948 18.6855 111.078 18.572 111.225 18.4869C111.373 18.4019 111.537 18.3469 111.707 18.3251L115.361 17.8592C115.704 17.8157 116.051 17.9102 116.326 18.1219C116.602 18.3336 116.783 18.6452 116.829 18.9881C116.876 19.3309 116.784 19.677 116.575 19.9502C116.365 20.2234 116.055 20.4013 115.712 20.4448L112.058 20.9107L112.062 20.9103ZM112.81 26.3916C112.639 26.4164 112.464 26.4069 112.296 26.3637C112.128 26.3204 111.97 26.2442 111.832 26.1396C111.693 26.035 111.576 25.9039 111.488 25.7542C111.4 25.6044 111.343 25.439 111.319 25.2674C111.296 25.0959 111.307 24.9217 111.352 24.755C111.396 24.5883 111.474 24.4325 111.58 24.2967C111.686 24.1608 111.818 24.0477 111.969 23.9638C112.119 23.8799 112.285 23.8269 112.457 23.808L119.766 22.8761C120.109 22.8327 120.456 22.9272 120.731 23.1389C121.007 23.3506 121.188 23.6621 121.234 24.005C121.281 24.3479 121.189 24.694 120.98 24.9672C120.77 25.2404 120.46 25.4182 120.117 25.4617L112.809 26.3936L112.81 26.3916ZM113.559 31.8729C113.389 31.8947 113.216 31.8828 113.051 31.8379C112.885 31.7931 112.729 31.7161 112.593 31.6115C112.456 31.5069 112.342 31.3766 112.255 31.2281C112.169 31.0796 112.112 30.9158 112.089 30.7461C112.066 30.5763 112.076 30.404 112.119 30.2388C112.163 30.0737 112.238 29.919 112.342 29.7835C112.445 29.6481 112.575 29.5347 112.723 29.4496C112.871 29.3645 113.034 29.3095 113.204 29.2878L116.858 28.8218C117.201 28.7783 117.548 28.8728 117.824 29.0846C118.099 29.2963 118.28 29.6078 118.327 29.9507C118.373 30.2936 118.282 30.6397 118.072 30.9128C117.863 31.186 117.552 31.3639 117.209 31.4074L113.555 31.8734L113.559 31.8729ZM93.2983 29.8852C92.7758 30.5677 92.0013 31.0123 91.1454 31.1215C90.2895 31.2306 89.4221 30.9953 88.7342 30.4672C88.0463 29.9392 87.5942 29.1616 87.4773 28.3057C87.3604 27.4498 87.5882 26.5855 88.1108 25.9031C88.6334 25.2207 89.4078 24.776 90.2638 24.6669C91.1197 24.5577 91.987 24.7931 92.6749 25.3211C93.3628 25.8492 93.815 26.6267 93.9319 27.4827C94.0488 28.3386 93.8209 29.2028 93.2983 29.8852Z" fill="black"/>
<path d="M249.842 61.0759C216.831 31.645 173.956 21.009 125.837 23.7533M46.4254 38.4741C54.8813 35.6555 61.2138 33.1061 71.4706 31.0836" stroke="black" stroke-width="2.44344" stroke-linecap="round" stroke-linejoin="round"/>
</svg>
