<svg width="519" height="500" viewBox="0 0 519 500" fill="none" xmlns="http://www.w3.org/2000/svg">
<path d="M165.441 101.081H66.4122V191.012H165.441V101.081Z" fill="#F2E205"/>
<path opacity="0.37" d="M165.441 101.081H66.4122V191.012H165.441V101.081Z" fill="black"/>
<path d="M136.982 101.081H66.4122V191.012H136.982V101.081Z" fill="#F2E205"/>
<path d="M108.858 101.081H93.6948V126.184H108.858V101.081Z" fill="white"/>
<path d="M130.306 133.518H112.733V142.489H130.306V133.518Z" fill="white"/>
<path d="M122.262 165.471L104.151 160.989L101.481 171.779L119.591 176.261L122.262 165.471Z" fill="white"/>
<path d="M239.24 101.081H140.211V191.012H239.24V101.081Z" fill="#F2E205"/>
<path opacity="0.37" d="M239.24 101.081H140.211V191.012H239.24V101.081Z" fill="black"/>
<path d="M210.781 101.081H140.211V191.012H210.781V101.081Z" fill="#F2E205"/>
<path d="M182.657 101.081H167.494V126.184H182.657V101.081Z" fill="white"/>
<path d="M204.105 133.518H186.531V142.489H204.105V133.518Z" fill="white"/>
<path d="M196.056 165.476L177.945 160.994L175.275 171.784L193.386 176.266L196.056 165.476Z" fill="white"/>
<path d="M313.039 101.081H214.01V191.012H313.039V101.081Z" fill="#F2E205"/>
<path opacity="0.37" d="M313.039 101.081H214.01V191.012H313.039V101.081Z" fill="black"/>
<path d="M284.58 101.081H214.01V191.012H284.58V101.081Z" fill="#F2E205"/>
<path d="M256.456 101.081H241.292V126.184H256.456V101.081Z" fill="white"/>
<path d="M277.903 133.518H260.33V142.489H277.903V133.518Z" fill="white"/>
<path d="M269.85 165.481L251.739 160.999L249.068 171.79L267.179 176.272L269.85 165.481Z" fill="white"/>
<path d="M386.837 101.081H287.809V191.012H386.837V101.081Z" fill="#F2E205"/>
<path opacity="0.37" d="M386.837 101.081H287.809V191.012H386.837V101.081Z" fill="black"/>
<path d="M358.379 101.081H287.809V191.012H358.379V101.081Z" fill="#F2E205"/>
<path d="M330.254 101.081H315.091V126.184H330.254V101.081Z" fill="white"/>
<path d="M351.702 133.518H334.129V142.489H351.702V133.518Z" fill="white"/>
<path d="M343.655 165.486L325.544 161.004L322.874 171.795L340.985 176.277L343.655 165.486Z" fill="white"/>
<path d="M165.441 224.464H66.4122V314.394H165.441V224.464Z" fill="#F2E205"/>
<path opacity="0.37" d="M165.441 224.464H66.4122V314.394H165.441V224.464Z" fill="black"/>
<path d="M136.982 224.464H66.4122V314.394H136.982V224.464Z" fill="#F2E205"/>
<path d="M108.858 224.464H93.6948V249.567H108.858V224.464Z" fill="white"/>
<path d="M130.306 256.9H112.733V265.872H130.306V256.9Z" fill="white"/>
<path d="M122.245 288.849L104.134 284.367L101.464 295.158L119.575 299.64L122.245 288.849Z" fill="white"/>
<path d="M239.24 224.464H140.211V314.394H239.24V224.464Z" fill="#F2E205"/>
<path opacity="0.37" d="M239.24 224.464H140.211V314.394H239.24V224.464Z" fill="black"/>
<path d="M210.781 224.464H140.211V314.394H210.781V224.464Z" fill="#F2E205"/>
<path d="M182.657 224.464H167.494V249.567H182.657V224.464Z" fill="white"/>
<path d="M204.105 256.9H186.531V265.872H204.105V256.9Z" fill="white"/>
<path d="M196.051 288.855L177.94 284.373L175.27 295.163L193.381 299.645L196.051 288.855Z" fill="white"/>
<path d="M313.039 224.464H214.01V314.394H313.039V224.464Z" fill="#F2E205"/>
<path opacity="0.37" d="M313.039 224.464H214.01V314.394H313.039V224.464Z" fill="black"/>
<path d="M284.58 224.464H214.01V314.394H284.58V224.464Z" fill="#F2E205"/>
<path d="M256.456 224.464H241.292V249.567H256.456V224.464Z" fill="white"/>
<path d="M277.903 256.9H260.33V265.872H277.903V256.9Z" fill="white"/>
<path d="M269.845 288.86L251.734 284.378L249.063 295.168L267.174 299.65L269.845 288.86Z" fill="white"/>
<path d="M386.837 224.464H287.809V314.394H386.837V224.464Z" fill="#F2E205"/>
<path opacity="0.37" d="M386.837 224.464H287.809V314.394H386.837V224.464Z" fill="black"/>
<path d="M358.379 224.464H287.809V314.394H358.379V224.464Z" fill="#F2E205"/>
<path d="M330.254 224.464H315.091V249.567H330.254V224.464Z" fill="white"/>
<path d="M351.702 256.9H334.129V265.872H351.702V256.9Z" fill="white"/>
<path d="M343.639 288.865L325.528 284.383L322.858 295.173L340.968 299.655L343.639 288.865Z" fill="white"/>
<path d="M165.441 347.846H66.4122V437.777H165.441V347.846Z" fill="#F2E205"/>
<path opacity="0.37" d="M165.441 347.846H66.4122V437.777H165.441V347.846Z" fill="black"/>
<path d="M136.982 347.846H66.4122V437.777H136.982V347.846Z" fill="#F2E205"/>
<path d="M108.858 347.846H93.6948V372.949H108.858V347.846Z" fill="white"/>
<path d="M130.306 380.283H112.733V389.254H130.306V380.283Z" fill="white"/>
<path d="M122.24 412.228L104.129 407.746L101.459 418.536L119.57 423.018L122.24 412.228Z" fill="white"/>
<path d="M239.24 347.846H140.211V437.777H239.24V347.846Z" fill="#F2E205"/>
<path opacity="0.37" d="M239.24 347.846H140.211V437.777H239.24V347.846Z" fill="black"/>
<path d="M210.781 347.846H140.211V437.777H210.781V347.846Z" fill="#F2E205"/>
<path d="M182.657 347.846H167.494V372.949H182.657V347.846Z" fill="white"/>
<path d="M204.105 380.283H186.531V389.254H204.105V380.283Z" fill="white"/>
<path d="M196.046 412.233L177.935 407.751L175.265 418.541L193.375 423.023L196.046 412.233Z" fill="white"/>
<path d="M313.039 347.846H214.01V437.777H313.039V347.846Z" fill="#F2E205"/>
<path opacity="0.37" d="M313.039 347.846H214.01V437.777H313.039V347.846Z" fill="black"/>
<path d="M284.58 347.846H214.01V437.777H284.58V347.846Z" fill="#F2E205"/>
<path d="M256.456 347.846H241.292V372.949H256.456V347.846Z" fill="white"/>
<path d="M277.903 380.283H260.33V389.254H277.903V380.283Z" fill="white"/>
<path d="M269.84 412.238L251.729 407.756L249.058 418.547L267.169 423.029L269.84 412.238Z" fill="white"/>
<path d="M386.837 347.846H287.809V437.777H386.837V347.846Z" fill="#F2E205"/>
<path opacity="0.37" d="M386.837 347.846H287.809V437.777H386.837V347.846Z" fill="black"/>
<path d="M358.379 347.846H287.809V437.777H358.379V347.846Z" fill="#F2E205"/>
<path d="M330.254 347.846H315.091V372.949H330.254V347.846Z" fill="white"/>
<path d="M351.702 380.283H334.129V389.254H351.702V380.283Z" fill="white"/>
<path d="M343.634 412.244L325.523 407.762L322.852 418.552L340.963 423.034L343.634 412.244Z" fill="white"/>
<path d="M396.004 68.0332H50.0728V84.1767H396.004V68.0332Z" fill="#A3A3A3"/>
<path d="M396.004 187.956H50.0728V204.1H396.004V187.956Z" fill="#A3A3A3"/>
<path d="M396.004 307.868H50.0728V324.011H396.004V307.868Z" fill="#A3A3A3"/>
<path d="M396.004 427.791H50.0728V443.934H396.004V427.791Z" fill="#A3A3A3"/>
<path d="M461.731 0H446.741V490.07H461.731V0Z" fill="#7A7A7A"/>
<path d="M142.321 0H127.331V490.07H142.321V0Z" fill="#7A7A7A"/>
<path d="M458.272 68.0332H387.933V84.1767H458.272V68.0332Z" fill="#757575"/>
<path d="M458.272 187.956H387.933V204.1H458.272V187.956Z" fill="#757575"/>
<path d="M458.272 307.868H387.933V324.011H458.272V307.868Z" fill="#757575"/>
<path d="M458.272 427.791H387.933V443.934H458.272V427.791Z" fill="#757575"/>
<path d="M63.9102 0H48.9198V490.07H63.9102V0Z" fill="#A3A3A3"/>
<path d="M229.957 0H214.967V490.07H229.957V0Z" fill="#A3A3A3"/>
<path d="M396.005 0H381.014V490.07H396.005V0Z" fill="#A3A3A3"/>
<path d="M365.712 170.325H248.073V277.149H365.712V170.325Z" fill="#F2E205"/>
<path opacity="0.37" d="M365.712 170.325H248.073V277.149H365.712V170.325Z" fill="black"/>
<path d="M365.712 170.325H248.073V277.149H365.712V170.325Z" stroke="#263238" stroke-linecap="round" stroke-linejoin="round"/>
<path d="M331.915 170.325H248.073V277.149H331.915V170.325Z" fill="#F2E205" stroke="#263238" stroke-linecap="round" stroke-linejoin="round"/>
<path d="M298.486 170.325H280.475V200.145H298.486V170.325Z" fill="white" stroke="#263238" stroke-linecap="round" stroke-linejoin="round"/>
<path d="M323.982 208.85H303.099V219.505H323.982V208.85Z" fill="white"/>
<path d="M314.396 246.815L292.883 241.491L289.708 254.319L311.222 259.643L314.396 246.815Z" fill="white"/>
<path d="M294.958 383.235H177.318V490.059H294.958V383.235Z" fill="#F2E205"/>
<path opacity="0.37" d="M294.958 383.235H177.318V490.059H294.958V383.235Z" fill="black"/>
<path d="M294.958 383.235H177.318V490.059H294.958V383.235Z" stroke="#263238" stroke-linecap="round" stroke-linejoin="round"/>
<path d="M261.16 383.235H177.318V490.059H261.16V383.235Z" fill="#F2E205" stroke="#263238" stroke-linecap="round" stroke-linejoin="round"/>
<path d="M227.732 383.235H209.72V413.054H227.732V383.235Z" fill="white" stroke="#263238" stroke-linecap="round" stroke-linejoin="round"/>
<path d="M206.353 470.778H185.47V481.433H206.353V470.778Z" fill="white"/>
<path d="M250.211 421.648L228.697 416.324L225.522 429.152L247.036 434.476L250.211 421.648Z" fill="white"/>
<path d="M381.464 383.235H263.824V490.059H381.464V383.235Z" fill="#F2E205"/>
<path opacity="0.37" d="M381.464 383.235H263.824V490.059H381.464V383.235Z" fill="black"/>
<path d="M381.464 383.235H263.824V490.059H381.464V383.235Z" stroke="#263238" stroke-linecap="round" stroke-linejoin="round"/>
<path d="M347.666 383.235H263.824V490.059H347.666V383.235Z" fill="#F2E205" stroke="#263238" stroke-linecap="round" stroke-linejoin="round"/>
<path d="M314.238 383.235H296.226V413.054H314.238V383.235Z" fill="white" stroke="#263238" stroke-linecap="round" stroke-linejoin="round"/>
<path d="M339.733 421.771H318.85V432.426H339.733V421.771Z" fill="white"/>
<path d="M293.24 414.406L271.726 409.082L268.551 421.909L290.065 427.233L293.24 414.406Z" fill="white"/>
<path d="M469.1 383.235H351.46V490.059H469.1V383.235Z" fill="#F2E205"/>
<path opacity="0.37" d="M469.1 383.235H351.46V490.059H469.1V383.235Z" fill="black"/>
<path d="M469.1 383.235H351.46V490.059H469.1V383.235Z" stroke="#263238" stroke-linecap="round" stroke-linejoin="round"/>
<path d="M435.302 383.235H351.46V490.059H435.302V383.235Z" fill="#F2E205" stroke="#263238" stroke-linecap="round" stroke-linejoin="round"/>
<path d="M401.874 383.235H383.862V413.054H401.874V383.235Z" fill="white" stroke="#263238" stroke-linecap="round" stroke-linejoin="round"/>
<path d="M427.369 421.771H406.486V432.426H427.369V421.771Z" fill="white"/>
<path d="M380.869 414.414L359.356 409.09L356.181 421.917L377.695 427.242L380.869 414.414Z" fill="white"/>
<path d="M335.524 276.699H217.884V383.523H335.524V276.699Z" fill="#F2E205"/>
<path opacity="0.37" d="M335.524 276.699H217.884V383.523H335.524V276.699Z" fill="black"/>
<path d="M335.524 276.699H217.884V383.523H335.524V276.699Z" stroke="#263238" stroke-linecap="round" stroke-linejoin="round"/>
<path d="M301.727 276.699H217.884V383.523H301.727V276.699Z" fill="#F2E205" stroke="#263238" stroke-linecap="round" stroke-linejoin="round"/>
<path d="M268.287 276.699H250.275V306.519H268.287V276.699Z" fill="white" stroke="#263238" stroke-linecap="round" stroke-linejoin="round"/>
<path d="M293.793 315.236H272.911V325.891H293.793V315.236Z" fill="white"/>
<path d="M247.29 307.873L225.776 302.549L222.602 315.376L244.116 320.701L247.29 307.873Z" fill="white"/>
<path d="M428.926 276.699H311.286V383.523H428.926V276.699Z" fill="#F2E205"/>
<path opacity="0.37" d="M428.926 276.699H311.286V383.523H428.926V276.699Z" fill="black"/>
<path d="M428.926 276.699H311.286V383.523H428.926V276.699Z" stroke="#263238" stroke-linecap="round" stroke-linejoin="round"/>
<path d="M395.128 276.699H311.286V383.523H395.128V276.699Z" fill="#F2E205" stroke="#263238" stroke-linecap="round" stroke-linejoin="round"/>
<path d="M361.688 276.699H343.677V306.519H361.688V276.699Z" fill="white" stroke="#263238" stroke-linecap="round" stroke-linejoin="round"/>
<path d="M387.195 315.236H366.312V325.891H387.195V315.236Z" fill="white"/>
<path d="M345.875 333.136L324.361 327.812L321.187 340.639L342.701 345.963L345.875 333.136Z" fill="white"/>
<path d="M12.4817 490.058H517.542" stroke="#263238" stroke-linecap="round" stroke-linejoin="round"/>
<path d="M102.193 455.627C102.193 455.627 97.3504 465.463 93.8911 471.021C90.4317 476.579 84.0089 483.889 84.6662 490.324C85.3235 496.758 92.023 497.45 98.9186 493.783C105.814 490.116 112.018 482.759 113.909 477.236C115.8 471.713 121.727 467.123 121.727 460.92C121.727 454.716 121.266 454.001 118.971 453.332C116.676 452.663 104.488 451.718 102.193 455.627Z" fill="white" stroke="#263238" stroke-linecap="round" stroke-linejoin="round"/>
<path d="M121.727 460.908C121.727 459.997 121.727 459.213 121.727 458.521C121.089 460.44 120.319 462.313 119.421 464.125C116.884 469.187 113.206 472.197 111.833 478.377C110.461 484.558 101.721 491.707 94.1331 493.541C86.5457 495.374 84.9083 489.182 84.9083 489.182H84.6315C84.6035 489.566 84.6035 489.951 84.6315 490.335C85.3234 496.77 91.9884 497.461 98.8839 493.794C105.78 490.128 111.983 482.771 113.874 477.247C115.765 471.724 121.727 467.112 121.727 460.908Z" fill="#263238" stroke="#263238" stroke-linecap="round" stroke-linejoin="round"/>
<path d="M103.116 459.755C103.116 459.755 105.883 463.664 115.074 462.522" stroke="#263238" stroke-linecap="round" stroke-linejoin="round"/>
<path d="M102.885 462.983C105.616 465.132 109.083 466.122 112.537 465.739" stroke="#263238" stroke-linecap="round" stroke-linejoin="round"/>
<path d="M101.963 465.739C102.978 466.838 104.238 467.681 105.641 468.2C107.043 468.719 108.549 468.899 110.035 468.726" stroke="#263238" stroke-linecap="round" stroke-linejoin="round"/>
<path d="M101.04 469.648C101.04 469.648 102.655 472.866 108.858 472.174" stroke="#263238" stroke-linecap="round" stroke-linejoin="round"/>
<path d="M161.025 464.31C164.483 469.753 169.238 474.254 174.862 477.409C183.822 482.241 195.318 485.481 196.229 487.787C196.614 488.624 196.687 489.57 196.436 490.456C196.184 491.342 195.624 492.109 194.857 492.618C193.704 493.299 176.696 493.772 167.736 492.157C162.679 491.077 157.51 490.612 152.342 490.774C148.202 490.774 139.243 491.927 138.09 486.865C136.937 481.802 139.923 463.422 139.923 463.422C139.923 463.422 153.437 467.342 161.025 464.31Z" fill="white" stroke="#263238" stroke-miterlimit="10"/>
<path d="M194.811 492.63C195.405 492.237 195.876 491.684 196.169 491.036C196.463 490.387 196.568 489.669 196.471 488.963C192.903 489.833 189.277 490.441 185.621 490.785C176.396 491.707 162.639 488.721 151.835 488.26C143.901 487.925 139.566 486.092 137.824 485.158C137.856 485.735 137.929 486.309 138.043 486.876C139.197 491.938 148.156 490.785 152.296 490.785C157.464 490.623 162.633 491.088 167.69 492.169C176.649 493.771 193.658 493.31 194.811 492.63Z" fill="#263238" stroke="#263238" stroke-miterlimit="10"/>
<path d="M164.473 469.648C162.701 471.063 161.284 472.871 160.333 474.93" stroke="#263238" stroke-miterlimit="10"/>
<path d="M167.229 473.084C167.229 473.084 164.242 475.621 164.242 477.224" stroke="#263238" stroke-miterlimit="10"/>
<path d="M170.215 475.391C169.441 476.693 168.826 478.083 168.382 479.531" stroke="#263238" stroke-miterlimit="10"/>
<path d="M174.816 477.455C174.816 477.455 172.971 479.069 172.971 480.672" stroke="#263238" stroke-miterlimit="10"/>
<path d="M96.1165 220.232C96.1165 220.232 88.8058 255.021 89.3824 274.047C89.9589 293.074 115.904 340.351 115.904 340.351C115.904 340.351 102.067 374.367 101.49 389.358C100.913 404.348 102.09 452.606 102.09 452.606C102.09 452.606 107.855 455.95 113.079 455.95C118.302 455.95 124.541 453.321 124.541 453.321L137.813 401.431L138.389 464.275C142.229 466.55 146.611 467.745 151.074 467.734C155.613 467.707 160.037 466.3 163.758 463.699C163.758 463.699 172.983 397.395 174.136 386.441C175.289 375.486 182.784 342.622 183.36 340.316C183.937 338.01 194.892 301.687 194.892 272.283C194.892 242.879 186.439 225.202 186.439 225.202C186.439 225.202 156.839 218.664 134.93 218.087C121.955 217.729 108.973 218.447 96.1165 220.232Z" fill="#263238" stroke="#263238" stroke-linecap="round" stroke-linejoin="round"/>
<path d="M141.849 392.817C141.849 392.817 156.839 350.152 156.839 339.774C156.839 329.396 147.038 264.822 147.038 264.822" stroke="#878787" stroke-miterlimit="10"/>
<path d="M151.073 284.425C151.073 284.425 159.722 274.624 162.605 268.858" stroke="#878787" stroke-miterlimit="10"/>
<path d="M185.286 131.835C185.286 131.835 197.198 138.753 203.736 149.131C210.274 159.509 224.492 203.327 223.719 214.466C222.947 225.605 219.499 228.696 209.501 226.77C199.504 224.844 198.743 213.705 196.437 204.48C194.13 195.255 181.827 136.828 181.827 136.828L181.446 131.443L185.286 131.835Z" fill="white" stroke="#263238" stroke-linecap="round" stroke-linejoin="round"/>
<path d="M223.719 214.466C224.111 208.793 220.617 194.633 216.224 180.738L191.905 184.105C193.946 193.56 195.699 201.505 196.437 204.446C198.743 213.67 199.504 224.809 209.501 226.735C219.499 228.661 222.958 225.617 223.719 214.466Z" fill="#CFCFCF" stroke="#263238" stroke-linecap="round" stroke-linejoin="round"/>
<path d="M105.722 128.376C105.722 128.376 96.497 130.29 94.1908 146.433C91.8846 162.577 97.2696 189.098 97.2696 189.098L96.1165 220.232C96.1165 220.232 134.55 230.229 150.312 230.229C166.075 230.229 186.439 225.236 186.439 225.236C186.439 225.236 177.987 147.586 176.442 141.06C174.897 134.533 167.99 127.983 162.224 123.763C156.459 119.543 141.849 119.912 133.396 122.218C124.944 124.524 113.021 129.137 113.021 129.137L105.722 128.376Z" fill="white" stroke="#263238" stroke-linecap="round" stroke-linejoin="round"/>
<path d="M133.396 117.605C133.396 117.605 141.468 150.284 142.241 172.574C143.013 194.864 138.781 264.05 138.781 264.05C138.781 264.05 120.712 264.822 107.648 262.516C94.5829 260.21 85.3466 259.057 85.3466 259.057L96.8776 187.184C96.8776 187.184 112.641 188.337 116.1 177.186C119.559 166.036 114.947 143.746 110.715 136.828C106.483 129.909 105.722 128.375 105.722 128.375L133.396 117.605Z" fill="#F2E205" stroke="#263238" stroke-linecap="round" stroke-linejoin="round"/>
<path d="M168.37 147.978C168.37 147.978 176.834 180.265 176.061 212.552C175.289 244.839 174.908 262.136 174.908 262.136C174.908 262.136 193.358 260.983 203.736 256.751C203.736 256.751 197.97 181.418 192.585 159.117C187.2 136.816 185.286 131.835 185.286 131.835L163.758 122.99L168.37 147.978Z" fill="#F2E205" stroke="#263238" stroke-linecap="round" stroke-linejoin="round"/>
<path d="M141.676 111.332C141.676 111.332 133.604 112.831 131.482 117.029C129.361 121.226 139.877 155.704 139.877 155.704L155.167 143.112L174.055 153.905C174.055 153.905 170.457 127.822 162.662 118.827C154.867 109.833 141.676 111.332 141.676 111.332Z" fill="white" stroke="#263238" stroke-linecap="round" stroke-linejoin="round"/>
<path d="M138.378 89.458C138.378 89.458 138.078 119.727 141.376 127.511C144.674 135.294 153.368 146.698 156.666 144.899C159.964 143.1 160.863 121.215 161.463 119.716C162.063 118.216 164.461 105.878 164.461 105.878C164.461 105.878 142.875 99.9282 138.378 89.458Z" fill="#CFCFCF" stroke="#263238" stroke-linecap="round" stroke-linejoin="round"/>
<path d="M138.378 89.458C138.378 89.458 138.263 101.612 139.012 112.52C142.453 116.594 147.287 119.242 152.573 119.946C155.515 120.392 158.51 120.353 161.44 119.831C161.435 119.804 161.435 119.777 161.44 119.75C162.04 118.251 164.438 105.913 164.438 105.913C164.438 105.913 142.875 99.9282 138.378 89.458Z" fill="#263238" stroke="#263238" stroke-linecap="round" stroke-linejoin="round"/>
<path d="M172.106 193.607L169.8 195.013L156.458 173.208C156.275 172.903 156.22 172.539 156.304 172.193C156.388 171.848 156.605 171.549 156.908 171.363C157.058 171.27 157.225 171.208 157.399 171.18C157.573 171.152 157.75 171.158 157.922 171.199C158.093 171.24 158.255 171.314 158.398 171.417C158.54 171.52 158.661 171.651 158.753 171.801L172.106 193.607Z" fill="white" stroke="#263238" stroke-linecap="round" stroke-linejoin="round"/>
<path d="M105.722 128.375C105.722 128.375 96.8775 129.136 91.5041 139.514C86.1306 149.892 77.6668 198.715 76.1216 212.932C74.5765 227.15 83.0403 225.997 84.1934 225.997C85.3465 225.997 146.461 205.633 146.461 205.633L167.217 203.327C167.217 203.327 164.911 205.241 166.836 205.241C168.762 205.241 172.602 201.401 174.136 199.095C175.669 196.789 169.523 184.105 167.217 182.571C164.911 181.038 144.155 196.408 144.155 196.408L103.796 199.095L114.174 163.729" fill="white"/>
<path d="M105.722 128.375C105.722 128.375 96.8775 129.136 91.5041 139.514C86.1306 149.892 77.6668 198.715 76.1216 212.932C74.5765 227.15 83.0403 225.997 84.1934 225.997C85.3465 225.997 146.461 205.633 146.461 205.633L167.217 203.327C167.217 203.327 164.911 205.241 166.836 205.241C168.762 205.241 172.602 201.401 174.136 199.095C175.669 196.789 169.523 184.105 167.217 182.571C164.911 181.038 144.155 196.408 144.155 196.408L103.796 199.095L114.174 163.729" stroke="#263238" stroke-linecap="round" stroke-linejoin="round"/>
<path d="M167.217 182.571C164.911 181.026 144.155 196.409 144.155 196.409L103.796 199.095L106.356 190.378L80.5379 184.555C78.4047 196.397 76.7327 207.34 76.1215 212.933C74.5879 227.15 83.0402 225.997 84.1933 225.997C85.3464 225.997 146.461 205.633 146.461 205.633L167.217 203.327C167.217 203.327 164.911 205.241 166.836 205.241C168.762 205.241 172.602 201.401 174.136 199.095C175.669 196.789 169.523 184.105 167.217 182.571Z" fill="#CFCFCF" stroke="#263238" stroke-linecap="round" stroke-linejoin="round"/>
<path d="M167.217 182.571C164.911 181.026 144.155 196.409 144.155 196.409L138.274 196.801C138.252 200.523 139.168 204.192 140.938 207.467L146.461 205.633L167.217 203.327C167.217 203.327 164.911 205.241 166.837 205.241C168.762 205.241 172.602 201.401 174.136 199.095C175.669 196.789 169.523 184.105 167.217 182.571Z" fill="#666666" stroke="#263238" stroke-linecap="round" stroke-linejoin="round"/>
<path d="M187.592 164.502L148.387 219.471L199.896 217.545L237.176 166.808L187.592 164.502Z" fill="#263238" stroke="#263238" stroke-linecap="round" stroke-linejoin="round"/>
<path d="M204.9 162.888L201.891 167.892L224.434 168.4L227.444 163.384L204.9 162.888Z" fill="#263238" stroke="#263238" stroke-linecap="round" stroke-linejoin="round"/>
<path d="M220.133 195.694C218.363 196.341 216.519 196.767 214.644 196.962C212.338 197.066 210.216 198.231 210.216 199.395C210.216 200.56 214.333 200.767 217.285 200.767C220.237 200.767 222.555 200.133 223.05 198.231C223.546 196.328 222.877 194.644 220.133 195.694Z" fill="#666666" stroke="#263238" stroke-linecap="round" stroke-linejoin="round"/>
<path d="M222.785 190.539C220.553 191.357 218.23 191.899 215.867 192.154C212.926 192.28 210.251 193.756 210.251 195.221C210.251 196.685 215.463 196.962 219.211 196.962C222.958 196.962 225.899 196.166 226.567 193.756C227.236 191.346 226.268 189.202 222.785 190.539Z" fill="#666666" stroke="#263238" stroke-linecap="round" stroke-linejoin="round"/>
<path d="M224.918 186.134C222.686 186.952 220.363 187.494 218 187.749C215.048 187.875 212.373 189.351 212.373 190.816C212.373 192.28 217.596 192.557 221.344 192.557C225.091 192.557 228.032 191.761 228.701 189.351C229.369 186.941 228.401 184.797 224.918 186.134Z" fill="#666666" stroke="#263238" stroke-linecap="round" stroke-linejoin="round"/>
<path d="M226.36 181.153C224.127 181.965 221.804 182.503 219.441 182.756C216.501 182.883 213.826 184.359 213.826 185.835C213.826 187.311 219.038 187.576 222.785 187.576C226.533 187.576 229.473 186.769 230.142 184.359C230.811 181.949 229.842 179.815 226.36 181.153Z" fill="#666666" stroke="#263238" stroke-linecap="round" stroke-linejoin="round"/>
<path d="M100.902 441.617C100.902 441.617 100.66 453.563 101.132 455.454C101.605 457.345 109.977 459.744 115.223 459.744C120.47 459.744 123.826 458.59 124.783 457.126C125.74 455.662 127.4 445.895 127.4 445.895C127.4 445.895 108.778 449.746 100.902 441.617Z" fill="#666666" stroke="#263238" stroke-linecap="round" stroke-linejoin="round"/>
<path d="M127.331 79.8642C123.593 78.5476 119.573 78.2424 115.679 78.9795C111.785 79.7166 108.155 81.4698 105.157 84.0615C94.6636 93.0557 104.004 109.245 115.051 111.044C126.097 112.843 133.327 107.746 135.126 99.6515C136.925 91.5567 133.95 79.5644 127.331 79.8642Z" fill="#263238" stroke="#263238" stroke-linecap="round" stroke-linejoin="round"/>
<path d="M180.374 77.1661C180.374 77.1661 178.875 92.1565 175.877 102.65C172.879 113.143 165.084 117.04 153.968 115.541C142.852 114.042 136.579 105.048 132.981 94.5549C129.384 84.0617 129.084 69.6709 129.084 69.6709L180.374 77.1661Z" fill="#CFCFCF" stroke="#263238" stroke-linecap="round" stroke-linejoin="round"/>
<path d="M130.652 76.8661C130.652 76.8661 134.25 80.1639 142.321 74.4676C150.393 68.7713 146.519 66.073 146.519 66.073L127.331 67.2261L130.652 76.8661Z" fill="#263238" stroke="#263238" stroke-linecap="round" stroke-linejoin="round"/>
<path d="M168.428 80.7634C168.428 80.7634 166.929 85.2605 167.828 86.7596C168.728 88.2586 171.126 90.3573 168.428 92.7557C167.939 93.233 167.345 93.5884 166.693 93.793C166.041 93.9976 165.35 94.0457 164.676 93.9334C164.002 93.821 163.364 93.5515 162.814 93.1465C162.264 92.7416 161.817 92.2126 161.509 91.6026" stroke="#263238" stroke-linecap="round" stroke-linejoin="round"/>
<path d="M151.708 94.1626C151.708 94.1626 156.32 100.147 165.061 97.3913" stroke="#263238" stroke-linecap="round" stroke-linejoin="round"/>
<path d="M158.234 82.5625C158.234 84.223 157.565 85.5606 156.735 85.5606C155.905 85.5606 155.236 84.223 155.236 82.5625C155.236 80.9021 155.905 79.5645 156.735 79.5645C157.565 79.5645 158.234 80.9021 158.234 82.5625Z" fill="#263238"/>
<path d="M174.724 84.9378C174.724 86.5982 174.055 87.9358 173.225 87.9358C172.394 87.9358 171.726 86.5982 171.726 84.9378C171.726 83.2773 172.394 81.9397 173.225 81.9397C174.055 81.9397 174.724 83.3004 174.724 84.9378Z" fill="#263238"/>
<path d="M151.938 75.9667C151.938 75.9667 156.136 71.1698 161.532 75.9667" stroke="#263238" stroke-linecap="round" stroke-linejoin="round"/>
<path d="M171.149 78.3649C172.073 77.6835 173.204 77.3412 174.35 77.3958C175.497 77.4504 176.59 77.8985 177.445 78.6647" stroke="#263238" stroke-linecap="round" stroke-linejoin="round"/>
<path d="M126.178 70.8699L181.942 76.8661C181.942 76.8661 181.343 48.6842 181.043 43.8988C180.743 39.1134 158.557 32.5061 149.909 33.1057C141.261 33.7053 130.421 38.8021 128.623 41.1775C126.824 43.5529 126.178 70.8699 126.178 70.8699Z" fill="#F2E205" stroke="#263238" stroke-linecap="round" stroke-linejoin="round"/>
<path d="M150.14 73.868L199.596 80.4638C199.596 80.4638 186.416 69.0711 175.923 68.1717C165.43 67.2723 150.14 73.868 150.14 73.868Z" fill="#F2E205" stroke="#263238" stroke-linecap="round" stroke-linejoin="round"/>
<path d="M132.751 78.9649C132.751 78.9649 131.598 69.6709 126.455 69.6709C121.312 69.6709 123.756 77.1661 124.356 81.963C124.956 86.7599 130.652 87.9591 132.751 86.1603" fill="#CFCFCF"/>
<path d="M132.751 78.9649C132.751 78.9649 131.598 69.6709 126.455 69.6709C121.312 69.6709 123.756 77.1661 124.356 81.963C124.956 86.7599 130.652 87.9591 132.751 86.1603" stroke="#263238" stroke-linecap="round" stroke-linejoin="round"/>
<path d="M137.917 454.035L138.632 465.267C138.632 465.267 141.803 467.642 151.074 467.769C160.345 467.896 163.758 463.733 163.758 463.733L165.614 451.625C165.614 451.625 148.421 459.766 137.917 454.035Z" fill="#666666" stroke="#263238" stroke-linecap="round" stroke-linejoin="round"/>
</svg>
