<svg width="663" height="500" viewBox="0 0 663 500" fill="none" xmlns="http://www.w3.org/2000/svg">
<path d="M659.738 473.976H25.3895V500H659.738V473.976Z" fill="#F2E205"/>
<path opacity="0.5" d="M659.738 473.976H25.3895V500H659.738V473.976Z" fill="white"/>
<path d="M174.982 194.065C171.879 195.078 168.833 196.256 165.857 197.595C167.483 196.408 169.11 195.172 170.737 193.919C177.978 188.095 184.87 181.849 191.377 175.214C183.742 182.631 175.589 189.496 166.979 195.757C168.166 193.695 169.21 191.554 170.102 189.349C171.729 185.298 172.021 181.216 168.167 179.053C163.401 176.385 157.643 180.37 159.156 187.185C160.079 190.99 161.878 194.527 164.409 197.514C158.791 201.403 152.923 204.919 146.843 208.037L146.273 208.33C147.559 206.104 148.694 203.795 149.673 201.417C151.202 197.384 151.592 193.285 147.721 191.138C142.955 188.454 137.197 192.455 138.726 199.27C139.634 203.024 141.393 206.519 143.866 209.485C136.563 213.08 129.016 216.138 121.501 219.456L120.412 219.944C121.878 218.369 123.242 216.701 124.494 214.95C126.934 211.372 128.251 207.501 124.998 204.492C120.997 200.783 114.442 203.32 114.345 210.347C114.349 214.225 115.251 218.05 116.98 221.521C109.948 224.807 103.267 228.796 97.0383 233.428L96.8431 233.59C97.6855 232.255 98.4565 230.876 99.1528 229.459C100.991 225.539 101.674 221.505 97.9654 219.049C97.2119 218.531 96.3506 218.19 95.4464 218.053C94.5423 217.915 93.6187 217.985 92.7451 218.255C91.8716 218.526 91.0708 218.992 90.403 219.616C89.7351 220.241 89.2176 221.009 88.8894 221.863C88.4005 221.1 87.737 220.464 86.9538 220.009C83.229 217.862 79.5693 220.188 76.4301 223.473C75.6169 224.335 74.8036 225.262 74.1042 226.173C76.5258 219.452 79.5698 212.972 83.1965 206.818C86.6502 208.326 90.3744 209.117 94.1431 209.143C101.56 209.143 104.683 202.963 101.04 199.124C98.0793 196.017 93.9154 197.205 89.9792 199.482C88.683 200.238 87.4288 201.063 86.2219 201.954C89.9924 196.275 94.2716 190.951 99.0064 186.047C102.109 188.556 105.715 190.37 109.579 191.365C116.784 193.138 121.306 187.917 118.704 183.314C116.589 179.573 112.198 179.719 107.887 180.972C105.824 181.589 103.803 182.339 101.837 183.217C103.805 181.297 105.838 179.459 107.904 177.638C110.604 175.328 113.401 173.099 116.248 170.92C119.308 173.362 122.85 175.13 126.641 176.109C133.847 177.882 138.369 172.66 135.766 168.057C133.652 164.316 129.26 164.463 124.933 165.715C123.925 166.008 122.9 166.366 121.908 166.74C125.665 164.056 129.471 161.437 133.294 158.835L136.823 156.411C140.004 159.075 143.738 160.998 147.754 162.039C154.959 163.812 159.497 158.591 156.895 153.988C154.764 150.247 150.389 150.393 146.062 151.646C144.36 152.166 142.684 152.768 141.036 153.451L143.216 151.824C144.549 150.865 145.883 149.889 147.184 148.864C148.811 147.644 150.356 146.294 151.934 144.993C152.845 144.277 153.707 143.513 154.569 142.732C157.762 145.425 161.52 147.365 165.564 148.409C172.77 150.182 177.291 144.96 174.689 140.357C172.575 136.616 168.183 136.763 163.873 138.015C161.455 138.762 159.087 139.658 156.781 140.699C159.725 137.966 162.571 135.12 165.271 132.16C165.45 131.948 165.613 131.737 165.808 131.542C166.963 130.257 168.102 128.955 169.208 127.605C170.314 126.255 171.745 124.482 172.949 122.856C177.891 116.368 181.96 109.259 185.05 101.711C181.812 109.169 177.606 116.169 172.542 122.531C167.533 128.918 161.941 134.827 155.837 140.178L155.171 140.748C156.557 138.387 157.785 135.936 158.847 133.412C160.392 129.378 160.766 125.279 156.895 123.132C152.145 120.449 146.371 124.45 147.9 131.265C148.882 135.301 150.843 139.032 153.609 142.13L152.178 143.366L150.551 144.765C149.608 145.53 148.632 146.262 147.656 146.994C147.136 147.384 146.631 147.791 146.029 148.181C144.647 149.206 143.248 150.198 141.833 151.174L139.8 152.556L137.49 154.183C138.84 151.879 140.025 149.482 141.036 147.01C142.581 142.96 142.955 138.877 139.1 136.73C134.335 134.046 128.561 138.048 130.089 144.863C131.032 148.778 132.901 152.409 135.538 155.452L133.912 156.558L127.585 160.705L126.332 161.519L122.803 163.877L121.274 164.902C119.647 166.024 118.021 167.163 116.394 168.334C117.701 165.993 118.842 163.563 119.81 161.063C121.436 157.029 121.729 152.93 117.874 150.783C113.108 148.1 107.351 152.101 108.879 158.916C109.835 162.883 111.744 166.557 114.442 169.619C111.677 171.652 108.945 173.734 106.31 175.913C104.374 177.54 102.471 179.166 100.6 180.923C101.415 179.415 102.143 177.862 102.78 176.271C104.309 172.221 104.699 168.139 100.828 165.992C96.0624 163.308 90.3045 167.309 91.8334 174.124C92.7412 177.878 94.4997 181.373 96.9733 184.339C91.7053 189.574 86.9604 195.31 82.8061 201.466C83.2778 199.691 83.6364 197.887 83.8797 196.066C84.4002 191.772 83.7821 187.738 79.5043 186.567C74.2343 185.12 69.615 190.39 72.7542 196.668C74.56 200.124 77.1435 203.114 80.3013 205.402C76.204 212.095 72.7823 219.178 70.0867 226.547C70.0163 225.006 69.8643 223.47 69.6312 221.944C68.8993 217.666 67.1752 213.974 62.7347 214.056C57.2696 214.169 54.3256 220.562 59.1238 225.669C61.6828 228.337 64.806 230.399 68.2649 231.703C66.4151 237.393 64.9105 243.188 63.7594 249.059C63.5643 249.986 63.4179 250.913 63.2389 251.84C63.0438 252.019 62.8486 252.198 62.6697 252.393C62.4745 251.596 62.2468 250.766 61.9865 250.002C60.6202 245.903 58.3431 242.504 53.9677 243.284C48.6001 244.228 46.6646 250.962 52.1948 255.304C55.0053 257.45 58.2452 258.964 61.6937 259.745C61.6937 259.908 61.8239 260.054 61.9052 260.217C61.3034 264.625 60.8479 269.065 60.5714 273.522C60.36 276.775 60.2461 280.174 60.1811 283.509C55.5292 283.509 52.2436 288.616 55.4479 294.146C56.8 296.439 58.5326 298.485 60.5714 300.197C60.9618 306.459 61.5799 312.721 62.4094 318.934C61.7516 318.326 60.9467 317.9 60.0739 317.697C59.2012 317.495 58.2907 317.523 57.4322 317.78C54.5045 318.577 53.187 320.935 52.7153 323.83C51.6734 324.908 51.0904 326.349 51.0887 327.848C48.9092 324.595 46.8435 321.342 44.8429 317.91C47.8969 315.569 50.4286 312.616 52.2761 309.24C55.7732 302.734 51.8207 297.025 46.7296 298.408C42.5657 299.546 41.6549 303.775 41.85 308.313C41.9151 310.034 42.078 311.75 42.338 313.453L40.191 309.679C38.4018 306.426 36.9379 303.173 35.1812 299.92C34.7584 299.123 34.3842 298.294 34.0427 297.48C37.4694 295.754 40.4994 293.334 42.9398 290.373C47.608 284.615 44.7941 278.287 39.5241 278.694C35.23 279.036 33.5222 283.021 32.8065 287.51C32.5276 289.467 32.3538 291.438 32.286 293.414L30.7571 289.885C27.5007 281.878 24.8209 273.648 22.7383 265.259C26.617 263.884 30.14 261.662 33.0505 258.753C38.2717 253.466 36.1084 246.912 30.8221 246.781C26.5281 246.684 24.4299 250.474 23.2588 254.914C22.6848 257.271 22.2556 259.661 21.9738 262.071C20.8352 257.256 19.8593 252.377 19.046 247.432C18.493 244.407 18.1352 241.333 17.7611 238.275C21.9301 237.448 25.8568 235.685 29.2444 233.119C35.0999 228.564 33.815 221.733 28.5775 220.968C24.3323 220.301 21.7623 223.799 20.0382 228.011C19.0288 230.668 18.1814 233.384 17.5008 236.144C17.1755 232.598 16.8014 229.036 16.6388 225.474C16.1508 218.119 16.1508 210.74 16.6388 203.386C15.8963 210.734 15.6409 218.124 15.8743 225.506C15.8743 228.906 16.1671 232.289 16.3785 235.689C15.4493 233.377 14.3624 231.133 13.1255 228.971C10.9134 225.246 7.95308 222.465 3.85421 224.091C-1.20431 226.173 -1.64347 233.167 4.70001 236.225C8.42056 237.934 12.5018 238.71 16.59 238.486C16.8827 241.528 17.143 244.553 17.5984 247.562C18.2328 252.442 19.046 257.126 20.0057 261.859C18.9648 260.046 17.8076 258.302 16.5412 256.638C13.8574 253.239 10.5718 250.832 6.78197 253.027C2.04876 255.744 2.50419 262.787 9.18925 264.95C12.972 266.125 16.9786 266.393 20.884 265.731C22.7397 274.211 25.1799 282.554 28.1872 290.698L29.1468 293.138C28.2862 291.998 27.3574 290.912 26.3654 289.885C23.3563 286.762 19.8593 284.696 16.2321 287.282C11.7917 290.535 12.9791 297.367 19.8105 298.896C23.5807 299.659 27.4757 299.548 31.1962 298.57C31.5378 299.4 31.8794 300.197 32.286 301.043C33.9126 304.393 35.3602 307.825 37.068 311.111L38.4831 313.957C37.6373 313.225 36.759 312.526 35.8481 311.875C32.3023 309.387 28.4637 308.02 25.4058 311.225C21.6322 315.177 24.072 321.748 31.0986 321.96C34.7568 322.045 38.3887 321.323 41.7362 319.845C43.7531 323.489 45.8188 327.083 48.0634 330.613C48.8929 331.963 49.6899 333.297 50.6333 334.63C49.3573 333.464 48.0101 332.377 46.5995 331.377C43.0537 328.889 39.215 327.523 36.1409 330.727C32.3836 334.679 34.8234 341.251 41.85 341.462C45.8661 341.51 49.8359 340.601 53.431 338.811C54.6021 340.437 55.8057 342.064 57.0419 343.69C54.4231 346.732 55.2852 351.823 60.604 354.149C63.1872 355.226 65.9405 355.837 68.7366 355.954C69.0619 356.215 69.3872 356.475 69.7451 356.719L69.9077 356.849C73.2692 369.406 77.2542 381.778 81.8628 393.966C83.8146 399.155 85.9128 404.295 88.0761 409.402H68.5577V486.37H128.203V409.337H96.4528C93.7365 403.4 91.1177 397.398 88.6779 391.331C84.6929 381.377 81.082 371.26 77.9428 360.997C78.477 361.154 79.0201 361.279 79.5693 361.371C80.2918 361.517 81.0326 361.55 81.7652 361.468L80.9194 356.117H80.3501C80.0108 356.069 79.6742 356.004 79.3416 355.922C78.5902 355.706 77.8562 355.435 77.1458 355.109L76.3 354.718C79.4391 353.624 82.3543 351.971 84.9044 349.839C90.5484 344.959 88.9544 338.29 83.6845 337.721C79.423 337.249 77.0157 340.86 75.5518 345.138C75.1126 346.358 74.7548 347.626 74.4458 348.863C74.1367 347.724 73.8277 346.586 73.5349 345.447C72.6728 342.08 71.9084 338.681 71.1276 335.281C74.5343 334.219 77.7004 332.5 80.4477 330.223C86.0917 325.343 84.4815 318.69 79.2278 318.121C74.95 317.65 72.559 321.26 71.0951 325.538C70.6559 326.774 70.2818 328.059 69.9565 329.328C69.4686 326.856 68.9969 324.367 68.5577 321.878C68.2487 320.04 67.9559 318.186 67.6794 316.332C67.5818 313.697 67.533 311.062 67.5655 308.411C67.5655 306.963 67.5655 305.516 67.6956 304.068C70.8846 305.076 74.2292 305.5 77.5687 305.32C84.9857 304.832 87.7183 298.489 83.8471 294.894C80.6917 291.95 76.6091 293.414 72.8192 295.919C71.1197 297.074 69.4903 298.328 67.9396 299.676C68.3964 293.486 69.3372 287.34 70.7535 281.297C71.5835 277.737 72.6209 274.228 73.8602 270.789C77.2611 271.961 80.8569 272.464 84.4489 272.269C91.8659 271.798 94.5985 265.454 90.7274 261.843C87.5882 258.915 83.4893 260.363 79.6995 262.884C78.3765 263.793 77.1058 264.776 75.8934 265.828C77.3236 262.463 78.9867 259.202 80.8706 256.069C84.6065 249.747 89.2914 244.036 94.7612 239.137C97.5957 241.751 100.948 243.741 104.602 244.976C111.661 247.286 116.557 242.406 114.361 237.624C112.523 233.737 108.196 233.558 103.74 234.485C102.022 234.852 100.328 235.319 98.6648 235.884L98.7787 235.786C104.848 231.05 111.389 226.952 118.297 223.555C120.734 226.746 123.83 229.375 127.373 231.264C133.977 234.664 139.588 230.63 138.125 225.555C136.937 221.424 132.692 220.562 128.154 220.676C126.372 220.772 124.596 220.968 122.835 221.261C130.171 217.797 137.653 214.527 144.875 210.705H145.037C148.27 213.496 152.106 215.5 156.244 216.56C163.45 218.35 167.971 213.112 165.369 208.428C163.254 204.687 158.863 204.849 154.553 206.086C153.333 206.443 152.113 206.883 150.925 207.338C155.748 204.535 160.423 201.484 164.93 198.197L165.304 198.604V198.392C168.569 201.208 172.436 203.239 176.608 204.329C183.798 206.102 188.336 200.881 185.733 196.196C183.684 192.667 179.357 192.813 174.982 194.065ZM61.2546 341.446C59.7744 339.722 58.3756 337.916 57.0093 336.094C57.3346 335.802 57.6925 335.476 58.0503 335.118C60.0828 335.752 62.1865 336.129 64.3125 336.241V336.582L65.3046 336.371C65.8251 338.941 66.3619 341.494 66.9312 344.048C66.2702 343.183 65.407 342.493 64.4172 342.039C63.4275 341.586 62.3415 341.382 61.2546 341.446ZM66.5571 280.207C66.0529 282.126 65.63 284.045 65.2233 285.981L64.9793 285.639C64.9793 281.671 65.039 277.713 65.1583 273.766C65.2721 271.001 65.4673 268.252 65.7113 265.487C67.0495 266.85 68.5207 268.076 70.1029 269.146C68.7263 272.766 67.548 276.458 66.5733 280.207H66.5571ZM73.2259 261.99C73.3235 261.274 73.4048 260.542 73.4373 259.826V258.736C74.0229 258.558 74.6247 258.346 75.2102 258.102C74.5596 259.387 73.8765 260.688 73.2421 261.99H73.2259ZM81.7001 248.245C81.4191 247.602 81.0104 247.022 80.4987 246.541C79.9871 246.06 79.3832 245.688 78.7235 245.448C74.706 243.821 71.4529 246.749 68.8668 250.49L68.7366 250.669H68.4764C68.2037 250.607 67.9261 250.569 67.6469 250.555C67.6276 250.327 67.6668 250.097 67.7607 249.888C68.7905 244.012 70.1811 238.205 71.9246 232.5C75.6585 232.974 79.4499 232.681 83.0664 231.638C85.3008 231.052 87.2442 229.669 88.5315 227.751C89.2474 231.031 90.6135 234.133 92.5491 236.876C88.5476 240.279 84.9166 244.096 81.7164 248.262L81.7001 248.245Z" fill="#F2E205"/>
<path opacity="0.3" d="M174.982 194.065C171.879 195.078 168.833 196.256 165.857 197.595C167.483 196.408 169.11 195.172 170.737 193.919C177.978 188.095 184.87 181.849 191.377 175.214C183.742 182.631 175.589 189.496 166.979 195.757C168.166 193.695 169.21 191.554 170.102 189.349C171.729 185.298 172.021 181.216 168.167 179.053C163.401 176.385 157.643 180.37 159.156 187.185C160.079 190.99 161.878 194.527 164.409 197.514C158.791 201.403 152.923 204.919 146.843 208.037L146.273 208.33C147.559 206.104 148.694 203.795 149.673 201.417C151.202 197.384 151.592 193.285 147.721 191.138C142.955 188.454 137.197 192.455 138.726 199.27C139.634 203.024 141.393 206.519 143.866 209.485C136.563 213.08 129.016 216.138 121.501 219.456L120.412 219.944C121.878 218.369 123.242 216.701 124.494 214.95C126.934 211.372 128.251 207.501 124.998 204.492C120.997 200.783 114.442 203.32 114.345 210.347C114.349 214.225 115.251 218.05 116.98 221.521C109.948 224.807 103.267 228.796 97.0383 233.428L96.8431 233.59C97.6855 232.255 98.4565 230.876 99.1528 229.459C100.991 225.539 101.674 221.505 97.9654 219.049C97.2119 218.531 96.3506 218.19 95.4464 218.053C94.5423 217.915 93.6187 217.985 92.7451 218.255C91.8716 218.526 91.0708 218.992 90.403 219.616C89.7351 220.241 89.2176 221.009 88.8894 221.863C88.4005 221.1 87.737 220.464 86.9538 220.009C83.229 217.862 79.5693 220.188 76.4301 223.473C75.6169 224.335 74.8036 225.262 74.1042 226.173C76.5258 219.452 79.5698 212.972 83.1965 206.818C86.6502 208.326 90.3744 209.117 94.1431 209.143C101.56 209.143 104.683 202.963 101.04 199.124C98.0793 196.017 93.9154 197.205 89.9792 199.482C88.683 200.238 87.4288 201.063 86.2219 201.954C89.9924 196.275 94.2716 190.951 99.0064 186.047C102.109 188.556 105.715 190.37 109.579 191.365C116.784 193.138 121.306 187.917 118.704 183.314C116.589 179.573 112.198 179.719 107.887 180.972C105.824 181.589 103.803 182.339 101.837 183.217C103.805 181.297 105.838 179.459 107.904 177.638C110.604 175.328 113.401 173.099 116.248 170.92C119.308 173.362 122.85 175.13 126.641 176.109C133.847 177.882 138.369 172.66 135.766 168.057C133.652 164.316 129.26 164.463 124.933 165.715C123.925 166.008 122.9 166.366 121.908 166.74C125.665 164.056 129.471 161.437 133.294 158.835L136.823 156.411C140.004 159.075 143.738 160.998 147.754 162.039C154.959 163.812 159.497 158.591 156.895 153.988C154.764 150.247 150.389 150.393 146.062 151.646C144.36 152.166 142.684 152.768 141.036 153.451L143.216 151.824C144.549 150.865 145.883 149.889 147.184 148.864C148.811 147.644 150.356 146.294 151.934 144.993C152.845 144.277 153.707 143.513 154.569 142.732C157.762 145.425 161.52 147.365 165.564 148.409C172.77 150.182 177.291 144.96 174.689 140.357C172.575 136.616 168.183 136.763 163.873 138.015C161.455 138.762 159.087 139.658 156.781 140.699C159.725 137.966 162.571 135.12 165.271 132.16C165.45 131.948 165.613 131.737 165.808 131.542C166.963 130.257 168.102 128.955 169.208 127.605C170.314 126.255 171.745 124.482 172.949 122.856C177.891 116.368 181.96 109.259 185.05 101.711C181.812 109.169 177.606 116.169 172.542 122.531C167.533 128.918 161.941 134.827 155.837 140.178L155.171 140.748C156.557 138.387 157.785 135.936 158.847 133.412C160.392 129.378 160.766 125.279 156.895 123.132C152.145 120.449 146.371 124.45 147.9 131.265C148.882 135.301 150.843 139.032 153.609 142.13L152.178 143.366L150.551 144.765C149.608 145.53 148.632 146.262 147.656 146.994C147.136 147.384 146.631 147.791 146.029 148.181C144.647 149.206 143.248 150.198 141.833 151.174L139.8 152.556L137.49 154.183C138.84 151.879 140.025 149.482 141.036 147.01C142.581 142.96 142.955 138.877 139.1 136.73C134.335 134.046 128.561 138.048 130.089 144.863C131.032 148.778 132.901 152.409 135.538 155.452L133.912 156.558L127.585 160.705L126.332 161.519L122.803 163.877L121.274 164.902C119.647 166.024 118.021 167.163 116.394 168.334C117.701 165.993 118.842 163.563 119.81 161.063C121.436 157.029 121.729 152.93 117.874 150.783C113.108 148.1 107.351 152.101 108.879 158.916C109.835 162.883 111.744 166.557 114.442 169.619C111.677 171.652 108.945 173.734 106.31 175.913C104.374 177.54 102.471 179.166 100.6 180.923C101.415 179.415 102.143 177.862 102.78 176.271C104.309 172.221 104.699 168.139 100.828 165.992C96.0624 163.308 90.3045 167.309 91.8334 174.124C92.7412 177.878 94.4997 181.373 96.9733 184.339C91.7053 189.574 86.9604 195.31 82.8061 201.466C83.2778 199.691 83.6364 197.887 83.8797 196.066C84.4002 191.772 83.7821 187.738 79.5043 186.567C74.2343 185.12 69.615 190.39 72.7542 196.668C74.56 200.124 77.1435 203.114 80.3013 205.402C76.204 212.095 72.7823 219.178 70.0867 226.547C70.0163 225.006 69.8643 223.47 69.6312 221.944C68.8993 217.666 67.1752 213.974 62.7347 214.056C57.2696 214.169 54.3256 220.562 59.1238 225.669C61.6828 228.337 64.806 230.399 68.2649 231.703C66.4151 237.393 64.9105 243.188 63.7594 249.059C63.5643 249.986 63.4179 250.913 63.2389 251.84C63.0438 252.019 62.8486 252.198 62.6697 252.393C62.4745 251.596 62.2468 250.766 61.9865 250.002C60.6202 245.903 58.3431 242.504 53.9677 243.284C48.6001 244.228 46.6646 250.962 52.1948 255.304C55.0053 257.45 58.2452 258.964 61.6937 259.745C61.6937 259.908 61.8239 260.054 61.9052 260.217C61.3034 264.625 60.8479 269.065 60.5714 273.522C60.36 276.775 60.2461 280.174 60.1811 283.509C55.5292 283.509 52.2436 288.616 55.4479 294.146C56.8 296.439 58.5326 298.485 60.5714 300.197C60.9618 306.459 61.5799 312.721 62.4094 318.934C61.7516 318.326 60.9467 317.9 60.0739 317.697C59.2012 317.495 58.2907 317.523 57.4322 317.78C54.5045 318.577 53.187 320.935 52.7153 323.83C51.6734 324.908 51.0904 326.349 51.0887 327.848C48.9092 324.595 46.8435 321.342 44.8429 317.91C47.8969 315.569 50.4286 312.616 52.2761 309.24C55.7732 302.734 51.8207 297.025 46.7296 298.408C42.5657 299.546 41.6549 303.775 41.85 308.313C41.9151 310.034 42.078 311.75 42.338 313.453L40.191 309.679C38.4018 306.426 36.9379 303.173 35.1812 299.92C34.7584 299.123 34.3842 298.294 34.0427 297.48C37.4694 295.754 40.4994 293.334 42.9398 290.373C47.608 284.615 44.7941 278.287 39.5241 278.694C35.23 279.036 33.5222 283.021 32.8065 287.51C32.5276 289.467 32.3538 291.438 32.286 293.414L30.7571 289.885C27.5007 281.878 24.8209 273.648 22.7383 265.259C26.617 263.884 30.14 261.662 33.0505 258.753C38.2717 253.466 36.1084 246.912 30.8221 246.781C26.5281 246.684 24.4299 250.474 23.2588 254.914C22.6848 257.271 22.2556 259.661 21.9738 262.071C20.8352 257.256 19.8593 252.377 19.046 247.432C18.493 244.407 18.1352 241.333 17.7611 238.275C21.9301 237.448 25.8568 235.685 29.2444 233.119C35.0999 228.564 33.815 221.733 28.5775 220.968C24.3323 220.301 21.7623 223.799 20.0382 228.011C19.0288 230.668 18.1814 233.384 17.5008 236.144C17.1755 232.598 16.8014 229.036 16.6388 225.474C16.1508 218.119 16.1508 210.74 16.6388 203.386C15.8963 210.734 15.6409 218.124 15.8743 225.506C15.8743 228.906 16.1671 232.289 16.3785 235.689C15.4493 233.377 14.3624 231.133 13.1255 228.971C10.9134 225.246 7.95308 222.465 3.85421 224.091C-1.20431 226.173 -1.64347 233.167 4.70001 236.225C8.42056 237.934 12.5018 238.71 16.59 238.486C16.8827 241.528 17.143 244.553 17.5984 247.562C18.2328 252.442 19.046 257.126 20.0057 261.859C18.9648 260.046 17.8076 258.302 16.5412 256.638C13.8574 253.239 10.5718 250.832 6.78197 253.027C2.04876 255.744 2.50419 262.787 9.18925 264.95C12.972 266.125 16.9786 266.393 20.884 265.731C22.7397 274.211 25.1799 282.554 28.1872 290.698L29.1468 293.138C28.2862 291.998 27.3574 290.912 26.3654 289.885C23.3563 286.762 19.8593 284.696 16.2321 287.282C11.7917 290.535 12.9791 297.367 19.8105 298.896C23.5807 299.659 27.4757 299.548 31.1962 298.57C31.5378 299.4 31.8794 300.197 32.286 301.043C33.9126 304.393 35.3602 307.825 37.068 311.111L38.4831 313.957C37.6373 313.225 36.759 312.526 35.8481 311.875C32.3023 309.387 28.4637 308.02 25.4058 311.225C21.6322 315.177 24.072 321.748 31.0986 321.96C34.7568 322.045 38.3887 321.323 41.7362 319.845C43.7531 323.489 45.8188 327.083 48.0634 330.613C48.8929 331.963 49.6899 333.297 50.6333 334.63C49.3573 333.464 48.0101 332.377 46.5995 331.377C43.0537 328.889 39.215 327.523 36.1409 330.727C32.3836 334.679 34.8234 341.251 41.85 341.462C45.8661 341.51 49.8359 340.601 53.431 338.811C54.6021 340.437 55.8057 342.064 57.0419 343.69C54.4231 346.732 55.2852 351.823 60.604 354.149C63.1872 355.226 65.9405 355.837 68.7366 355.954C69.0619 356.215 69.3872 356.475 69.7451 356.719L69.9077 356.849C73.2692 369.406 77.2542 381.778 81.8628 393.966C83.8146 399.155 85.9128 404.295 88.0761 409.402H68.5577V486.37H128.203V409.337H96.4528C93.7365 403.4 91.1177 397.398 88.6779 391.331C84.6929 381.377 81.082 371.26 77.9428 360.997C78.477 361.154 79.0201 361.279 79.5693 361.371C80.2918 361.517 81.0326 361.55 81.7652 361.468L80.9194 356.117H80.3501C80.0108 356.069 79.6742 356.004 79.3416 355.922C78.5902 355.706 77.8562 355.435 77.1458 355.109L76.3 354.718C79.4391 353.624 82.3543 351.971 84.9044 349.839C90.5484 344.959 88.9544 338.29 83.6845 337.721C79.423 337.249 77.0157 340.86 75.5518 345.138C75.1126 346.358 74.7548 347.626 74.4458 348.863C74.1367 347.724 73.8277 346.586 73.5349 345.447C72.6728 342.08 71.9084 338.681 71.1276 335.281C74.5343 334.219 77.7004 332.5 80.4477 330.223C86.0917 325.343 84.4815 318.69 79.2278 318.121C74.95 317.65 72.559 321.26 71.0951 325.538C70.6559 326.774 70.2818 328.059 69.9565 329.328C69.4686 326.856 68.9969 324.367 68.5577 321.878C68.2487 320.04 67.9559 318.186 67.6794 316.332C67.5818 313.697 67.533 311.062 67.5655 308.411C67.5655 306.963 67.5655 305.516 67.6956 304.068C70.8846 305.076 74.2292 305.5 77.5687 305.32C84.9857 304.832 87.7183 298.489 83.8471 294.894C80.6917 291.95 76.6091 293.414 72.8192 295.919C71.1197 297.074 69.4903 298.328 67.9396 299.676C68.3964 293.486 69.3372 287.34 70.7535 281.297C71.5835 277.737 72.6209 274.228 73.8602 270.789C77.2611 271.961 80.8569 272.464 84.4489 272.269C91.8659 271.798 94.5985 265.454 90.7274 261.843C87.5882 258.915 83.4893 260.363 79.6995 262.884C78.3765 263.793 77.1058 264.776 75.8934 265.828C77.3236 262.463 78.9867 259.202 80.8706 256.069C84.6065 249.747 89.2914 244.036 94.7612 239.137C97.5957 241.751 100.948 243.741 104.602 244.976C111.661 247.286 116.557 242.406 114.361 237.624C112.523 233.737 108.196 233.558 103.74 234.485C102.022 234.852 100.328 235.319 98.6648 235.884L98.7787 235.786C104.848 231.05 111.389 226.952 118.297 223.555C120.734 226.746 123.83 229.375 127.373 231.264C133.977 234.664 139.588 230.63 138.125 225.555C136.937 221.424 132.692 220.562 128.154 220.676C126.372 220.772 124.596 220.968 122.835 221.261C130.171 217.797 137.653 214.527 144.875 210.705H145.037C148.27 213.496 152.106 215.5 156.244 216.56C163.45 218.35 167.971 213.112 165.369 208.428C163.254 204.687 158.863 204.849 154.553 206.086C153.333 206.443 152.113 206.883 150.925 207.338C155.748 204.535 160.423 201.484 164.93 198.197L165.304 198.604V198.392C168.569 201.208 172.436 203.239 176.608 204.329C183.798 206.102 188.336 200.881 185.733 196.196C183.684 192.667 179.357 192.813 174.982 194.065ZM61.2546 341.446C59.7744 339.722 58.3756 337.916 57.0093 336.094C57.3346 335.802 57.6925 335.476 58.0503 335.118C60.0828 335.752 62.1865 336.129 64.3125 336.241V336.582L65.3046 336.371C65.8251 338.941 66.3619 341.494 66.9312 344.048C66.2702 343.183 65.407 342.493 64.4172 342.039C63.4275 341.586 62.3415 341.382 61.2546 341.446ZM66.5571 280.207C66.0529 282.126 65.63 284.045 65.2233 285.981L64.9793 285.639C64.9793 281.671 65.039 277.713 65.1583 273.766C65.2721 271.001 65.4673 268.252 65.7113 265.487C67.0495 266.85 68.5207 268.076 70.1029 269.146C68.7263 272.766 67.548 276.458 66.5733 280.207H66.5571ZM73.2259 261.99C73.3235 261.274 73.4048 260.542 73.4373 259.826V258.736C74.0229 258.558 74.6247 258.346 75.2102 258.102C74.5596 259.387 73.8765 260.688 73.2421 261.99H73.2259ZM81.7001 248.245C81.4191 247.602 81.0104 247.022 80.4987 246.541C79.9871 246.06 79.3832 245.688 78.7235 245.448C74.706 243.821 71.4529 246.749 68.8668 250.49L68.7366 250.669H68.4764C68.2037 250.607 67.9261 250.569 67.6469 250.555C67.6276 250.327 67.6668 250.097 67.7607 249.888C68.7905 244.012 70.1811 238.205 71.9246 232.5C75.6585 232.974 79.4499 232.681 83.0664 231.638C85.3008 231.052 87.2442 229.669 88.5315 227.751C89.2474 231.031 90.6135 234.133 92.5491 236.876C88.5476 240.279 84.9166 244.096 81.7164 248.262L81.7001 248.245Z" fill="white"/>
<path d="M576.036 415.404C576.036 415.404 568.164 397.821 566.277 396.016C564.39 394.21 549.312 388.745 545.132 374.871C540.952 360.996 533.014 323.96 553.021 326.384C573.027 328.807 568.164 367.6 575.434 366.38C582.705 365.16 569.384 303.368 582.103 294.813C594.823 286.257 615.431 294.211 613.007 326.937C610.584 359.662 605.737 378.433 609.982 376.627C614.227 374.822 626.345 368.137 626.345 382.076C626.345 396.016 614.829 405.71 608.16 406.311C601.491 406.913 598.401 407.531 598.401 407.531V416.607L576.036 415.404Z" fill="#2E353A" stroke="#2E353A" stroke-linecap="round" stroke-linejoin="round"/>
<path d="M569.628 381.328C565.057 377.001 560.861 372.805 558.925 368.95C555.086 361.256 552.191 339.672 552.191 339.672" stroke="white" stroke-width="0.5" stroke-linecap="round" stroke-linejoin="round"/>
<path d="M545.376 350.212C548.401 362.818 548.824 372.317 557.965 383.377C562.845 389.363 575.76 394.438 577.207 399.724C578.502 406.085 579.474 412.507 580.119 418.966L587.341 419.454C587.341 419.454 588.804 406.93 584.673 398" stroke="white" stroke-width="0.5" stroke-linecap="round" stroke-linejoin="round"/>
<path d="M547.393 329.995C547.393 329.995 541.993 334.142 543.912 344.357" stroke="white" stroke-width="0.5" stroke-linecap="round" stroke-linejoin="round"/>
<path d="M581.989 367.193L579.127 371.829" stroke="white" stroke-width="0.5" stroke-linecap="round" stroke-linejoin="round"/>
<path d="M582.981 365.583L581.989 367.193" stroke="white" stroke-width="0.5" stroke-linecap="round" stroke-linejoin="round"/>
<path d="M592.594 296.325C592.594 296.325 581.534 295.854 581.534 306.426C581.534 315.356 584.266 345.837 583.681 359.777" stroke="white" stroke-width="0.5" stroke-linecap="round" stroke-linejoin="round"/>
<path d="M601.264 382.939C601.003 386.566 600.841 389.136 600.841 390.112C600.841 395.398 614.292 375.196 620.554 374.725C620.554 374.725 626.8 374.237 624.393 385.785C623.517 390.072 621.488 394.039 618.524 397.257C615.561 400.476 611.775 402.825 607.575 404.051C602.272 405.499 597.946 403.091 596.986 405.499C596.22 408.328 595.735 411.227 595.538 414.152" stroke="white" stroke-width="0.5" stroke-linecap="round" stroke-linejoin="round"/>
<path d="M604.403 306.361C605.239 309.849 605.632 313.428 605.574 317.015C605.574 328.27 603.427 354.815 601.996 372.74" stroke="white" stroke-width="0.5" stroke-linecap="round" stroke-linejoin="round"/>
<path d="M598.84 297.301C600.285 298.129 601.455 299.362 602.207 300.847" stroke="white" stroke-width="0.5" stroke-linecap="round" stroke-linejoin="round"/>
<path d="M591.017 380.011L590.675 386.745" stroke="white" stroke-width="0.5" stroke-linecap="round" stroke-linejoin="round"/>
<path d="M593.554 303.059C593.554 303.059 590.675 304.019 591.635 314.12C592.432 322.464 591.635 360.346 591.26 373.277" stroke="white" stroke-width="0.5" stroke-linecap="round" stroke-linejoin="round"/>
<path d="M623.856 377.604C619.731 385.323 613.124 391.426 605.102 394.926C592.09 400.212 591.635 397.805 591.635 403.059C591.635 408.312 591.147 417.974 591.147 417.974" stroke="white" stroke-width="0.5" stroke-linecap="round" stroke-linejoin="round"/>
<path d="M605.818 486.321H563.788L554.794 425.439H614.813L605.818 486.321Z" fill="#F2E205" stroke="#2E353A" stroke-linecap="round" stroke-linejoin="round"/>
<path d="M619.969 415.843H549.637V432.141H619.969V415.843Z" fill="#F2E205" stroke="#2E353A" stroke-linecap="round" stroke-linejoin="round"/>
<path d="M375.046 445.332V412.281H277.714V445.332C277.698 456.098 274.054 466.545 267.369 474.984L263.108 480.352H389.652L385.39 474.984C378.706 466.545 375.061 456.098 375.046 445.332Z" fill="white" stroke="#2E353A" stroke-linecap="round" stroke-linejoin="round"/>
<path d="M271.728 468.478H381.031C377.107 461.395 375.047 453.43 375.046 445.332V412.281H277.714V445.332C277.712 453.43 275.652 461.395 271.728 468.478Z" fill="#F2E205"/>
<path d="M508.177 129.296H144.566C136.948 129.296 130.773 135.472 130.773 143.089V408.914C130.773 416.531 136.948 422.707 144.566 422.707H508.177C515.795 422.707 521.97 416.531 521.97 408.914V143.089C521.97 135.472 515.795 129.296 508.177 129.296Z" fill="#2E353A" stroke="#2E353A" stroke-linecap="round" stroke-linejoin="round"/>
<path d="M130.773 377.099H521.987V408.898C521.987 412.556 520.533 416.064 517.947 418.651C515.36 421.238 511.852 422.691 508.194 422.691H144.582C140.924 422.691 137.416 421.238 134.829 418.651C132.242 416.064 130.789 412.556 130.789 408.898V377.099H130.773Z" fill="white" stroke="#2E353A" stroke-linecap="round" stroke-linejoin="round"/>
<path d="M502.305 147.562H150.454V354.848H502.305V147.562Z" fill="white" stroke="#2E353A" stroke-linecap="round" stroke-linejoin="round"/>
<path d="M333.601 399.903C333.601 398.475 333.178 397.078 332.384 395.891C331.591 394.703 330.463 393.777 329.143 393.231C327.824 392.684 326.372 392.541 324.971 392.82C323.57 393.099 322.283 393.786 321.273 394.796C320.263 395.806 319.575 397.093 319.297 398.494C319.018 399.895 319.161 401.347 319.708 402.667C320.254 403.986 321.18 405.114 322.367 405.908C323.555 406.701 324.951 407.125 326.38 407.125C328.295 407.125 330.132 406.364 331.486 405.01C332.841 403.655 333.601 401.818 333.601 399.903Z" fill="#2E353A" stroke="#2E353A" stroke-linecap="round" stroke-linejoin="round"/>
<path d="M389.668 480.417H263.108V486.321H389.668V480.417Z" fill="white" stroke="#2E353A" stroke-linecap="round" stroke-linejoin="round"/>
<path d="M499.004 162.169H153.219V180.337H499.004V162.169Z" fill="white" stroke="#2E353A" stroke-linecap="round" stroke-linejoin="round"/>
<path d="M210.278 180.337L206.13 169.114H153.219V180.337V195.22V346.016H499.004V180.337H210.278Z" fill="#F2E205" stroke="#2E353A" stroke-linecap="round" stroke-linejoin="round"/>
<path d="M246.289 262.494H408.422" stroke="#2E353A" stroke-width="2" stroke-linecap="round" stroke-linejoin="round"/>
<path d="M246.289 278.434H408.422" stroke="#2E353A" stroke-width="2" stroke-linecap="round" stroke-linejoin="round"/>
<path d="M246.289 294.374H408.422" stroke="#2E353A" stroke-width="2" stroke-linecap="round" stroke-linejoin="round"/>
<path d="M246.289 310.33H408.422" stroke="#2E353A" stroke-width="2" stroke-linecap="round" stroke-linejoin="round"/>
<path d="M399.85 219.992H252.925C251.413 219.994 249.915 219.699 248.517 219.122C247.119 218.545 245.849 217.699 244.778 216.631C243.707 215.563 242.857 214.295 242.276 212.898C241.695 211.502 241.395 210.005 241.393 208.493C241.391 206.98 241.687 205.482 242.264 204.084C242.84 202.686 243.687 201.416 244.755 200.345C245.822 199.274 247.091 198.424 248.487 197.843C249.884 197.263 251.381 196.963 252.893 196.96H399.85C401.365 196.958 402.866 197.255 404.266 197.834C405.666 198.413 406.938 199.262 408.009 200.333C409.081 201.405 409.93 202.677 410.509 204.077C411.088 205.477 411.384 206.978 411.382 208.493C411.38 210.005 411.08 211.502 410.499 212.898C409.919 214.295 409.069 215.563 407.998 216.631C406.927 217.699 405.656 218.545 404.258 219.122C402.86 219.699 401.362 219.994 399.85 219.992Z" fill="white" stroke="#2E353A" stroke-linecap="round" stroke-linejoin="round"/>
<path d="M399.85 219.992H379.779V196.928H399.85C401.365 196.926 402.866 197.223 404.266 197.802C405.666 198.38 406.938 199.23 408.009 200.301C409.081 201.372 409.93 202.645 410.509 204.045C411.088 205.445 411.384 206.945 411.382 208.46C411.384 209.975 411.088 211.476 410.509 212.876C409.93 214.276 409.081 215.548 408.009 216.62C406.938 217.691 405.666 218.54 404.266 219.119C402.866 219.698 401.365 219.995 399.85 219.992Z" fill="#2E353A" stroke="#2E353A" stroke-linecap="round" stroke-linejoin="round"/>
<path d="M395.377 199.856C394.422 198.961 393.222 198.369 391.93 198.155C390.638 197.942 389.311 198.117 388.118 198.657C386.926 199.198 385.92 200.08 385.229 201.192C384.537 202.304 384.191 203.597 384.235 204.906C384.278 206.214 384.708 207.481 385.472 208.545C386.235 209.609 387.297 210.423 388.522 210.884C389.748 211.344 391.083 211.431 392.359 211.133C393.634 210.835 394.792 210.165 395.686 209.209C396.282 208.577 396.747 207.835 397.055 207.023C397.363 206.212 397.508 205.347 397.481 204.479C397.454 203.612 397.255 202.758 396.897 201.968C396.539 201.177 396.028 200.465 395.393 199.872L395.377 199.856ZM394.727 208.314C394.008 209.076 393.08 209.609 392.059 209.845C391.039 210.08 389.971 210.008 388.991 209.638C388.012 209.267 387.163 208.615 386.554 207.763C385.945 206.91 385.601 205.897 385.567 204.85C385.533 203.803 385.81 202.769 386.363 201.88C386.916 200.99 387.72 200.284 388.674 199.85C389.627 199.417 390.688 199.276 391.722 199.445C392.756 199.614 393.716 200.085 394.483 200.799C395.511 201.764 396.114 203.097 396.16 204.506C396.206 205.915 395.69 207.285 394.727 208.314Z" fill="white"/>
<path d="M400.354 211.616C400.209 211.474 400.026 211.377 399.827 211.337C399.628 211.296 399.421 211.314 399.232 211.388L396.841 209.143C396.719 209.024 396.556 208.958 396.386 208.958C396.215 208.958 396.052 209.024 395.93 209.143L395.719 209.371C395.602 209.497 395.537 209.663 395.537 209.835C395.537 210.007 395.602 210.172 395.719 210.298L398.077 212.51C398.007 212.712 397.996 212.929 398.045 213.136C398.094 213.344 398.201 213.533 398.354 213.682L402.42 217.667C402.688 217.933 403.051 218.082 403.429 218.082C403.806 218.082 404.169 217.933 404.437 217.667C404.703 217.398 404.853 217.036 404.853 216.658C404.853 216.28 404.703 215.918 404.437 215.65L400.354 211.616Z" fill="white"/>
<path d="M442.351 289.559C442.826 290.737 443.533 291.808 444.43 292.708C445.327 293.607 446.395 294.318 447.572 294.796C449.41 295.544 451.866 295.382 454.696 296.976C461.089 300.57 477.045 297.366 488.61 298.602C500.174 299.839 515.756 287.038 515.756 287.038L561.641 289.559V244.016C561.641 244.016 513.756 246.017 503.379 242.015C493.001 238.014 481.437 229.654 476.248 230.044C471.059 230.434 428.363 235.233 428.363 235.233L442.335 289.559H442.351Z" fill="white" stroke="#2E353A" stroke-linecap="round" stroke-linejoin="round"/>
<path d="M430.477 105.923C421.003 106.972 412.053 110.807 404.758 116.942C397.464 123.078 392.152 131.238 389.495 140.393C386.839 149.547 386.956 159.283 389.833 168.371C392.71 177.458 398.217 185.488 405.658 191.446C413.098 197.404 422.139 201.021 431.635 201.841C441.132 202.66 450.658 200.646 459.01 196.051C467.361 191.457 474.163 184.489 478.555 176.029C482.946 167.569 484.73 157.996 483.681 148.522C482.989 142.23 481.063 136.136 478.014 130.589C474.965 125.042 470.852 120.15 465.91 116.193C460.969 112.237 455.296 109.294 449.216 107.531C443.136 105.769 436.769 105.223 430.477 105.923ZM440.042 192.26C432.442 193.104 424.762 191.676 417.974 188.156C411.186 184.635 405.594 179.181 401.905 172.483C398.217 165.785 396.597 158.143 397.252 150.524C397.906 142.906 400.805 135.652 405.582 129.681C410.359 123.71 416.799 119.29 424.088 116.979C431.377 114.668 439.188 114.57 446.533 116.698C453.877 118.826 460.426 123.085 465.35 128.935C470.275 134.785 473.354 141.963 474.199 149.563C474.76 154.61 474.321 159.717 472.908 164.594C471.495 169.47 469.135 174.021 465.963 177.986C462.791 181.951 458.87 185.252 454.422 187.701C449.974 190.15 445.088 191.699 440.042 192.26Z" fill="white" stroke="#2E353A" stroke-linecap="round" stroke-linejoin="round"/>
<path d="M430.217 103.174C420.743 104.223 411.793 108.058 404.498 114.193C397.203 120.329 391.892 128.489 389.235 137.644C386.578 146.798 386.696 156.534 389.573 165.622C392.45 174.709 397.957 182.739 405.397 188.697C412.838 194.655 421.879 198.272 431.375 199.092C440.872 199.911 450.398 197.897 458.75 193.302C467.101 188.708 473.903 181.74 478.294 173.28C482.686 164.82 484.47 155.247 483.421 145.773C482.011 133.071 475.614 121.448 465.637 113.46C455.661 105.472 442.921 101.773 430.217 103.174ZM439.781 189.511C432.181 190.355 424.502 188.927 417.713 185.407C410.925 181.886 405.333 176.432 401.645 169.734C397.956 163.036 396.337 155.394 396.991 147.775C397.646 140.157 400.545 132.903 405.322 126.932C410.099 120.961 416.539 116.54 423.828 114.23C431.117 111.919 438.928 111.821 446.273 113.949C453.617 116.077 460.166 120.336 465.09 126.186C470.015 132.036 473.094 139.214 473.938 146.814C474.499 151.861 474.061 156.968 472.647 161.845C471.234 166.721 468.875 171.272 465.703 175.237C462.531 179.202 458.609 182.503 454.162 184.952C449.714 187.401 444.828 188.95 439.781 189.511Z" fill="white" stroke="#2E353A" stroke-linecap="round" stroke-linejoin="round"/>
<path d="M442.409 199.873L440.13 200.125C437.559 200.41 435.705 202.725 435.99 205.297L439.689 238.697C439.974 241.268 442.289 243.122 444.86 242.837L447.14 242.584C449.711 242.3 451.565 239.984 451.28 237.413L447.581 204.013C447.296 201.441 444.981 199.588 442.409 199.873Z" fill="#F2E205" stroke="#2E353A" stroke-linecap="round" stroke-linejoin="round"/>
<path d="M441.668 227.751L446.548 227.23C448.646 227.006 450.748 227.617 452.399 228.933C454.049 230.248 455.114 232.161 455.363 234.257L462.667 300.31C462.963 303.011 462.176 305.718 460.477 307.838C458.778 309.958 456.307 311.316 453.607 311.615H453.281C451.944 311.764 450.59 311.648 449.298 311.273C448.005 310.898 446.8 310.272 445.75 309.43C444.699 308.589 443.826 307.548 443.178 306.368C442.531 305.189 442.123 303.893 441.977 302.555L434.674 236.518C434.556 235.472 434.646 234.413 434.938 233.402C435.23 232.391 435.719 231.448 436.376 230.626C437.033 229.804 437.846 229.12 438.768 228.612C439.69 228.105 440.703 227.785 441.749 227.669L441.668 227.751Z" fill="#2E353A" stroke="#2E353A" stroke-linecap="round" stroke-linejoin="round"/>
<path d="M448.76 282.792C448.76 282.792 437.195 283.215 435.568 285.216C433.942 287.217 434.235 294.178 437.374 294.975C445.376 297.073 462.39 295.854 463.057 294.422C463.724 292.991 465.09 284.663 461.577 283.768C457.335 283.118 453.051 282.792 448.76 282.792Z" fill="white" stroke="#2E353A" stroke-linecap="round" stroke-linejoin="round"/>
<path d="M445.425 266.657C445.425 266.657 431.974 266.153 429.876 268.577C427.777 271 427.371 280.06 430.916 281.426C439.96 284.891 460.308 283.541 461.235 281.752C462.162 279.962 464.179 270.675 460.194 269.178C456.209 267.682 445.425 266.657 445.425 266.657Z" fill="white" stroke="#2E353A" stroke-linecap="round" stroke-linejoin="round"/>
<path d="M443.49 248.44C443.49 248.44 429.111 247.887 426.866 250.49C424.622 253.092 424.183 262.754 427.972 264.218C437.732 267.926 458.877 267.926 459.869 266.007C460.861 264.088 463.529 252.734 459.267 251.124C455.005 249.514 443.49 248.44 443.49 248.44Z" fill="white" stroke="#2E353A" stroke-linecap="round" stroke-linejoin="round"/>
<path d="M435.194 231.394C435.194 231.394 420.816 230.858 418.571 233.444C416.327 236.03 415.79 246.001 419.677 247.172C423.565 248.343 450.581 250.88 451.574 248.977C452.566 247.074 455.233 235.688 450.972 234.078C446.71 232.468 435.194 231.394 435.194 231.394Z" fill="white" stroke="#2E353A" stroke-linecap="round" stroke-linejoin="round"/>
<path d="M482.282 279.231C479.701 278.521 477.256 277.389 475.044 275.88C463.48 267.894 463.87 249.546 463.87 249.546L461.089 248.749C458.791 247.875 456.637 246.664 454.696 245.155C455.628 248.945 456.173 252.819 456.323 256.719C456.281 258.863 455.444 260.914 453.974 262.474C452.504 264.034 450.506 264.992 448.369 265.161C444.775 265.568 443.181 265.958 441.977 261.176C440.773 256.394 434.804 237.234 434.397 234.436C434.039 231.898 438.301 227.377 445.084 226.303C455.51 227.149 465.789 230.061 476.297 230.061C479.953 230.404 483.456 231.693 486.463 233.802" fill="white"/>
<path d="M482.282 279.231C479.701 278.521 477.256 277.389 475.044 275.88C463.48 267.894 463.87 249.546 463.87 249.546L461.089 248.749C458.791 247.875 456.637 246.664 454.696 245.155C455.628 248.945 456.173 252.819 456.323 256.719C456.281 258.863 455.444 260.914 453.974 262.474C452.504 264.034 450.506 264.992 448.369 265.161C444.775 265.568 443.181 265.958 441.977 261.176C440.773 256.394 434.804 237.234 434.397 234.436C434.039 231.898 438.301 227.377 445.084 226.303C455.51 227.149 465.789 230.061 476.297 230.061C479.953 230.404 483.456 231.693 486.463 233.802" stroke="#2E353A" stroke-linecap="round" stroke-linejoin="round"/>
<path d="M493.278 280.239C492.01 280.304 490.74 280.304 489.472 280.239H493.278Z" fill="white"/>
<path d="M493.278 280.239C492.01 280.304 490.74 280.304 489.472 280.239" stroke="#2E353A" stroke-linecap="round" stroke-linejoin="round"/>
<path d="M501.785 278.661C499.023 279.535 496.167 280.081 493.278 280.288L501.785 278.661Z" fill="white"/>
<path d="M501.785 278.661C499.023 279.535 496.167 280.081 493.278 280.288" stroke="#2E353A" stroke-linecap="round" stroke-linejoin="round"/>
<path d="M516.147 273.489H530.509" stroke="#2E353A" stroke-linecap="round" stroke-linejoin="round"/>
<path d="M517.35 277.474H523.336" stroke="#2E353A" stroke-linecap="round" stroke-linejoin="round"/>
<path d="M463.87 249.546C463.87 249.546 471.807 249.546 477.012 244.813" stroke="#2E353A" stroke-linecap="round" stroke-linejoin="round"/>
<path d="M454.518 244.634C454.289 242.468 453.836 240.331 453.168 238.258" stroke="#2E353A" stroke-linecap="round" stroke-linejoin="round"/>
<path d="M441.863 259.078C441.863 259.078 440.35 254.881 442.188 253.369C444.026 251.856 448.906 249.676 449.752 251.352C450.598 253.027 452.436 260.753 451.931 262.266L451.427 263.778" stroke="#2E353A" stroke-width="0.5" stroke-linecap="round" stroke-linejoin="round"/>
<path d="M662.34 309.972H524.816V242.374H662.34" fill="#F2E205"/>
<path d="M662.34 309.972H524.816V242.374H662.34" stroke="#2E353A" stroke-linecap="round" stroke-linejoin="round"/>
<path d="M534.901 305.45C536.608 305.45 537.991 304.067 537.991 302.36C537.991 300.653 536.608 299.27 534.901 299.27C533.194 299.27 531.81 300.653 531.81 302.36C531.81 304.067 533.194 305.45 534.901 305.45Z" fill="white" stroke="#2E353A" stroke-linecap="round" stroke-linejoin="round"/>
<path d="M316.344 177.995C317.522 177.52 318.593 176.813 319.492 175.916C320.392 175.019 321.102 173.95 321.581 172.774C322.329 170.936 322.15 168.496 323.761 165.649C327.339 159.273 324.151 143.317 325.387 131.736C326.623 120.155 313.806 104.606 313.806 104.606L316.295 58.7212H270.752C270.752 58.7212 272.736 106.606 268.751 116.967C264.766 127.328 256.39 138.926 256.78 144.114C257.17 149.303 262.001 191.967 262.001 191.967L316.262 177.995H316.344Z" fill="white" stroke="#2E353A" stroke-linecap="round" stroke-linejoin="round"/>
<path d="M132.822 189.836C133.864 199.311 137.692 208.265 143.822 215.564C149.952 222.864 158.11 228.181 167.262 230.845C176.415 233.508 186.152 233.397 195.242 230.526C204.331 227.656 212.365 222.154 218.328 214.717C224.291 207.28 227.914 198.242 228.74 188.745C229.566 179.249 227.558 169.721 222.968 161.366C218.379 153.012 211.415 146.206 202.957 141.809C194.5 137.412 184.928 135.622 175.453 136.665H175.339C162.656 138.091 151.057 144.491 143.086 154.459C135.115 164.427 131.424 177.15 132.822 189.836ZM219.028 180.256C219.875 187.859 218.449 195.542 214.93 202.334C211.41 209.126 205.956 214.722 199.256 218.415C192.556 222.107 184.912 223.73 177.29 223.078C169.668 222.426 162.411 219.528 156.436 214.752C150.461 209.975 146.036 203.534 143.721 196.243C141.407 188.952 141.306 181.138 143.432 173.789C145.558 166.441 149.816 159.888 155.666 154.959C161.516 150.03 168.697 146.947 176.299 146.099C186.494 144.966 196.722 147.927 204.734 154.333C212.747 160.738 217.888 170.062 219.028 180.256Z" fill="white" stroke="#2E353A" stroke-linecap="round" stroke-linejoin="round"/>
<path d="M130.008 190.129C131.059 199.598 134.895 208.543 141.029 215.833C147.163 223.122 155.321 228.429 164.472 231.083C173.622 233.737 183.354 233.618 192.436 230.742C201.519 227.866 209.545 222.361 215.5 214.924C221.455 207.487 225.071 198.451 225.891 188.959C226.711 179.467 224.698 169.945 220.107 161.597C215.516 153.249 208.553 146.449 200.099 142.058C191.644 137.666 182.077 135.88 172.607 136.925C166.316 137.619 160.223 139.547 154.676 142.596C149.13 145.646 144.239 149.759 140.283 154.7C136.327 159.641 133.384 165.313 131.62 171.392C129.857 177.471 129.309 183.838 130.008 190.129ZM216.344 180.581C217.189 188.181 215.76 195.861 212.24 202.649C208.72 209.437 203.266 215.029 196.567 218.718C189.869 222.406 182.227 224.025 174.609 223.371C166.99 222.716 159.737 219.817 153.766 215.041C147.795 210.264 143.374 203.824 141.063 196.534C138.752 189.245 138.655 181.435 140.783 174.09C142.911 166.745 147.169 160.197 153.019 155.272C158.869 150.348 166.048 147.269 173.648 146.424C178.694 145.863 183.801 146.302 188.678 147.715C193.555 149.128 198.106 151.488 202.07 154.66C206.035 157.831 209.336 161.753 211.786 166.201C214.235 170.648 215.784 175.535 216.344 180.581Z" fill="white" stroke="#2E353A" stroke-linecap="round" stroke-linejoin="round"/>
<path d="M264.257 169.091L230.857 172.79C228.286 173.075 226.432 175.39 226.717 177.962L226.969 180.241C227.254 182.812 229.57 184.666 232.141 184.381L265.541 180.682C268.112 180.397 269.966 178.082 269.681 175.511L269.429 173.231C269.144 170.66 266.829 168.806 264.257 169.091Z" fill="#F2E205" stroke="#2E353A" stroke-linecap="round" stroke-linejoin="round"/>
<path d="M254.584 178.694L254.047 173.815C253.815 171.701 254.431 169.581 255.761 167.922C257.091 166.263 259.025 165.2 261.139 164.967L327.176 157.663C328.519 157.507 329.88 157.618 331.18 157.989C332.48 158.361 333.694 158.985 334.752 159.827C335.81 160.669 336.691 161.711 337.345 162.895C337.999 164.078 338.413 165.379 338.562 166.723V167.048C338.718 168.391 338.607 169.752 338.236 171.052C337.865 172.352 337.24 173.566 336.398 174.624C335.557 175.682 334.514 176.563 333.331 177.217C332.147 177.871 330.846 178.285 329.502 178.434L263.465 185.737C261.354 185.976 259.235 185.368 257.571 184.049C255.907 182.729 254.833 180.804 254.584 178.694Z" fill="#2E353A" stroke="#2E353A" stroke-linecap="round" stroke-linejoin="round"/>
<path d="M309.61 171.603C309.61 171.603 310.049 183.151 312.033 184.778C314.018 186.404 321.012 186.112 321.792 182.972C323.907 174.986 322.671 157.956 321.239 157.306C319.808 156.655 311.48 155.256 310.602 158.786C309.947 163.027 309.615 167.312 309.61 171.603Z" fill="white" stroke="#2E353A" stroke-linecap="round" stroke-linejoin="round"/>
<path d="M293.491 174.921C293.491 174.921 292.97 188.372 295.394 190.471C297.817 192.569 306.877 192.992 308.243 189.43C311.724 180.386 310.358 160.038 308.569 159.127C306.78 158.217 297.492 156.183 295.996 160.168C294.499 164.153 293.491 174.921 293.491 174.921Z" fill="white" stroke="#2E353A" stroke-linecap="round" stroke-linejoin="round"/>
<path d="M275.274 176.889C275.274 176.889 274.721 191.268 277.307 193.513C279.893 195.757 289.587 196.196 291.051 192.39C294.76 182.729 294.76 161.486 292.84 160.51C290.921 159.534 279.551 156.85 277.957 161.112C276.363 165.374 275.274 176.889 275.274 176.889Z" fill="white" stroke="#2E353A" stroke-linecap="round" stroke-linejoin="round"/>
<path d="M258.228 185.168C258.228 185.168 257.675 199.546 260.277 201.791C262.879 204.036 272.834 204.572 274.005 200.669C275.176 196.765 277.713 169.765 275.794 168.772C273.875 167.78 262.522 165.129 260.911 169.391C259.301 173.652 258.228 185.168 258.228 185.168Z" fill="white" stroke="#2E353A" stroke-linecap="round" stroke-linejoin="round"/>
<path d="M307.056 127.036C307.719 133.443 306.182 139.884 302.697 145.302C294.727 156.883 276.363 156.476 276.363 156.476L275.566 159.274C274.699 161.569 273.487 163.719 271.972 165.65C275.767 164.718 279.647 164.173 283.553 164.023C285.689 164.085 287.726 164.935 289.273 166.41C290.819 167.884 291.766 169.879 291.929 172.009C292.336 175.604 292.726 177.198 287.944 178.385C283.162 179.573 264.002 185.575 261.204 185.981C258.667 186.339 254.145 182.078 253.072 175.295C253.934 164.869 256.845 154.573 256.845 144.082C257.185 140.42 258.475 136.911 260.586 133.9" fill="white"/>
<path d="M307.056 127.036C307.719 133.443 306.182 139.884 302.697 145.302C294.727 156.883 276.363 156.476 276.363 156.476L275.566 159.274C274.699 161.569 273.487 163.719 271.972 165.65C275.767 164.718 279.647 164.173 283.553 164.023C285.689 164.085 287.726 164.935 289.273 166.41C290.819 167.884 291.766 169.879 291.929 172.009C292.336 175.604 292.726 177.198 287.944 178.385C283.162 179.573 264.002 185.575 261.204 185.981C258.667 186.339 254.145 182.078 253.072 175.295C253.934 164.869 256.845 154.573 256.845 144.082C257.185 140.42 258.475 136.911 260.586 133.9" stroke="#2E353A" stroke-linecap="round" stroke-linejoin="round"/>
<path d="M305.495 118.578C305.976 120.099 306.346 121.654 306.601 123.23L305.495 118.578Z" fill="white"/>
<path d="M305.495 118.578C305.976 120.099 306.346 121.654 306.601 123.23" stroke="#2E353A" stroke-linecap="round" stroke-linejoin="round"/>
<path d="M300.306 104.199V89.8369" stroke="#2E353A" stroke-linecap="round" stroke-linejoin="round"/>
<path d="M304.291 103.012V97.0259" stroke="#2E353A" stroke-linecap="round" stroke-linejoin="round"/>
<path d="M276.363 156.476C276.363 156.476 276.363 148.538 271.63 143.333" stroke="#2E353A" stroke-linecap="round" stroke-linejoin="round"/>
<path d="M271.468 165.845C269.302 166.068 267.165 166.515 265.092 167.178" stroke="#2E353A" stroke-linecap="round" stroke-linejoin="round"/>
<path d="M285.911 178.434C285.911 178.434 281.715 179.947 280.202 178.092C278.689 176.238 276.51 171.375 278.185 170.545C279.86 169.716 287.587 167.862 289.099 168.366L290.612 168.854" stroke="#2E353A" stroke-width="0.5" stroke-linecap="round" stroke-linejoin="round"/>
<path d="M336.81 56.3394V95.8274H269.448V56.3394" fill="#F2E205"/>
<path d="M336.81 56.3394V95.8275H269.448V56.3394" stroke="#2E353A" stroke-linecap="round" stroke-linejoin="round"/>
<path d="M329.177 88.5358C330.884 88.5358 332.267 87.1522 332.267 85.4454C332.267 83.7386 330.884 82.355 329.177 82.355C327.47 82.355 326.087 83.7386 326.087 85.4454C326.087 87.1522 327.47 88.5358 329.177 88.5358Z" fill="white" stroke="#2E353A" stroke-linecap="round" stroke-linejoin="round"/>
<path d="M248.306 422.935C247.833 424.114 247.127 425.186 246.23 426.086C245.333 426.986 244.263 427.696 243.085 428.172C241.247 428.937 238.807 428.758 235.96 430.352C229.584 433.946 213.628 430.758 202.047 431.978C190.466 433.198 174.917 420.414 174.917 420.414L128.983 422.935V377.392C128.983 377.392 176.868 379.392 187.246 375.407C197.623 371.422 209.188 363.03 214.376 363.436C219.565 363.843 262.261 368.625 262.261 368.625L248.306 422.935Z" fill="white" stroke="#2E353A" stroke-linecap="round" stroke-linejoin="round"/>
<path d="M260.098 239.397C269.572 240.445 278.523 244.28 285.817 250.415C293.112 256.551 298.424 264.712 301.08 273.866C303.737 283.02 303.619 292.757 300.743 301.844C297.866 310.931 292.359 318.962 284.918 324.919C277.477 330.877 268.437 334.494 258.94 335.314C249.444 336.134 239.917 334.119 231.566 329.524C223.214 324.93 216.413 317.962 212.021 309.502C207.63 301.042 205.845 291.47 206.894 281.996C208.301 269.296 214.694 257.675 224.669 249.689C234.644 241.703 247.382 238.007 260.082 239.413L260.098 239.397ZM250.534 325.733C258.137 326.58 265.82 325.154 272.612 321.635C279.404 318.115 285 312.661 288.693 305.961C292.385 299.261 294.008 291.617 293.356 283.995C292.704 276.373 289.806 269.116 285.03 263.141C280.253 257.165 273.812 252.741 266.521 250.426C259.23 248.112 251.416 248.011 244.067 250.137C236.719 252.263 230.166 256.52 225.237 262.371C220.308 268.221 217.225 275.401 216.377 283.004C215.244 293.199 218.206 303.427 224.611 311.439C231.016 319.452 240.34 324.593 250.534 325.733Z" fill="white" stroke="#2E353A" stroke-linecap="round" stroke-linejoin="round"/>
<path d="M260.391 236.648C269.861 237.7 278.806 241.536 286.095 247.671C293.385 253.806 298.692 261.965 301.345 271.117C303.998 280.268 303.878 290 301 299.083C298.122 308.166 292.616 316.192 285.177 322.145C277.739 328.099 268.701 331.713 259.209 332.531C249.716 333.349 240.194 331.334 231.846 326.741C223.499 322.148 216.7 315.182 212.311 306.726C207.922 298.269 206.139 288.701 207.187 279.231C207.883 272.941 209.812 266.85 212.863 261.305C215.914 255.761 220.027 250.872 224.967 246.918C229.908 242.963 235.579 240.021 241.658 238.259C247.736 236.497 254.101 235.949 260.391 236.648ZM250.827 322.984C258.43 323.831 266.113 322.405 272.905 318.886C279.697 315.366 285.293 309.912 288.985 303.212C292.678 296.513 294.3 288.869 293.648 281.247C292.996 273.625 290.099 266.367 285.322 260.392C280.546 254.417 274.105 249.992 266.813 247.677C259.522 245.363 251.708 245.262 244.36 247.388C237.012 249.514 230.459 253.772 225.53 259.622C220.601 265.472 217.518 272.653 216.67 280.255C215.542 290.446 218.506 300.668 224.911 308.674C231.315 316.68 240.637 321.815 250.827 322.952V322.984Z" fill="white" stroke="#2E353A" stroke-linecap="round" stroke-linejoin="round"/>
<path d="M243.016 337.488L239.317 370.888C239.032 373.459 240.886 375.774 243.457 376.059L245.736 376.312C248.308 376.596 250.623 374.743 250.908 372.171L254.607 338.771C254.892 336.2 253.038 333.885 250.467 333.6L248.187 333.347C245.616 333.062 243.301 334.916 243.016 337.488Z" fill="#F2E205" stroke="#2E353A" stroke-linecap="round" stroke-linejoin="round"/>
<path d="M237.359 445.153H237.034C235.689 445.006 234.387 444.593 233.203 443.94C232.018 443.287 230.975 442.406 230.132 441.347C229.29 440.289 228.666 439.074 228.295 437.773C227.925 436.472 227.816 435.111 227.974 433.767L235.277 367.73C235.391 366.683 235.71 365.668 236.216 364.744C236.723 363.82 237.407 363.005 238.229 362.346C239.051 361.688 239.995 361.197 241.007 360.904C242.019 360.611 243.079 360.521 244.126 360.638L249.005 361.175C251.119 361.408 253.054 362.471 254.383 364.131C255.713 365.79 256.33 367.91 256.097 370.023L248.794 436.142C248.642 437.485 248.227 438.785 247.573 439.967C246.918 441.15 246.037 442.191 244.98 443.033C243.922 443.874 242.709 444.499 241.41 444.871C240.111 445.243 238.751 445.356 237.408 445.202L237.359 445.153Z" fill="#2E353A" stroke="#2E353A" stroke-linecap="round" stroke-linejoin="round"/>
<path d="M241.8 416.25C241.8 416.25 253.348 416.689 254.975 418.673C256.601 420.657 256.308 427.635 253.169 428.432C245.183 430.547 228.153 429.311 227.502 427.879C226.852 426.448 225.453 418.12 228.983 417.225C233.224 416.575 237.509 416.249 241.8 416.25Z" fill="white" stroke="#2E353A" stroke-linecap="round" stroke-linejoin="round"/>
<path d="M245.183 400.163C245.183 400.163 258.634 399.643 260.733 402.066C262.831 404.49 263.254 413.55 259.692 414.916C250.648 418.38 230.3 417.03 229.389 415.241C228.478 413.452 226.445 404.164 230.43 402.668C234.415 401.172 245.183 400.163 245.183 400.163Z" fill="white" stroke="#2E353A" stroke-linecap="round" stroke-linejoin="round"/>
<path d="M247.151 381.897C247.151 381.897 261.529 381.361 263.774 383.947C266.019 386.533 266.458 396.227 262.668 397.675C252.909 401.399 231.764 401.383 230.772 399.48C229.78 397.577 227.112 386.191 231.374 384.581C235.635 382.971 247.151 381.897 247.151 381.897Z" fill="white" stroke="#2E353A" stroke-linecap="round" stroke-linejoin="round"/>
<path d="M255.43 364.867C255.43 364.867 269.809 364.314 272.053 366.9C274.298 369.486 274.834 379.473 270.931 380.644C267.027 381.816 240.027 384.337 239.034 382.434C238.042 380.531 235.391 369.145 239.653 367.551C243.914 365.957 255.43 364.867 255.43 364.867Z" fill="white" stroke="#2E353A" stroke-linecap="round" stroke-linejoin="round"/>
<path d="M199.51 413.777C205.182 414 210.783 412.448 215.531 409.337C227.112 401.351 226.705 383.003 226.705 383.003L229.503 382.206C231.798 381.339 233.948 380.126 235.879 378.612C234.948 382.402 234.403 386.276 234.253 390.176C234.314 392.314 235.164 394.353 236.638 395.903C238.112 397.452 240.107 398.402 242.239 398.569C245.833 398.96 247.427 399.366 248.631 394.568C249.835 389.77 255.804 370.625 256.211 367.844C256.617 365.063 252.307 360.769 245.524 359.711C235.098 360.573 224.802 363.485 214.311 363.485C210.652 363.826 207.145 365.11 204.129 367.21" fill="white"/>
<path d="M199.51 413.777C205.182 414 210.783 412.448 215.531 409.337C227.112 401.351 226.705 383.003 226.705 383.003L229.503 382.206C231.798 381.339 233.948 380.126 235.879 378.612C234.948 382.402 234.403 386.276 234.253 390.176C234.314 392.314 235.164 394.353 236.638 395.903C238.112 397.452 240.107 398.402 242.239 398.569C245.833 398.96 247.427 399.366 248.631 394.568C249.835 389.77 255.804 370.625 256.211 367.844C256.617 365.063 252.307 360.769 245.524 359.711C235.098 360.573 224.802 363.485 214.311 363.485C210.652 363.826 207.145 365.11 204.129 367.21" stroke="#2E353A" stroke-linecap="round" stroke-linejoin="round"/>
<path d="M188.84 412.135C191.114 412.834 193.451 413.308 195.818 413.55L188.84 412.135Z" fill="white"/>
<path d="M188.84 412.135C191.114 412.834 193.451 413.308 195.818 413.55" stroke="#2E353A" stroke-linecap="round" stroke-linejoin="round"/>
<path d="M174.461 406.946H160.099" stroke="#2E353A" stroke-linecap="round" stroke-linejoin="round"/>
<path d="M173.274 410.931H167.288" stroke="#2E353A" stroke-linecap="round" stroke-linejoin="round"/>
<path d="M226.738 383.003C226.738 383.003 218.8 383.003 213.596 378.27" stroke="#2E353A" stroke-linecap="round" stroke-linejoin="round"/>
<path d="M236.107 378.091C236.33 375.925 236.777 373.788 237.441 371.715" stroke="#2E353A" stroke-linecap="round" stroke-linejoin="round"/>
<path d="M248.696 392.535C248.696 392.535 250.209 388.338 248.355 386.826C246.5 385.313 241.637 383.133 240.807 384.809C239.978 386.484 238.124 394.226 238.628 395.723L239.132 397.235" stroke="#2E353A" stroke-width="0.5" stroke-linecap="round" stroke-linejoin="round"/>
<path d="M28.2683 443.445H165.792V375.83H28.2683" fill="#F2E205"/>
<path d="M28.2683 443.445H165.792V375.83H28.2683" stroke="#2E353A" stroke-linecap="round" stroke-linejoin="round"/>
<path d="M152.617 435.817C152.617 436.428 152.798 437.025 153.138 437.533C153.477 438.042 153.96 438.438 154.525 438.672C155.089 438.906 155.711 438.967 156.31 438.848C156.91 438.728 157.46 438.434 157.892 438.002C158.325 437.57 158.619 437.019 158.738 436.419C158.858 435.82 158.796 435.199 158.562 434.634C158.329 434.069 157.932 433.587 157.424 433.247C156.916 432.907 156.318 432.726 155.707 432.726C154.888 432.726 154.102 433.052 153.522 433.631C152.942 434.211 152.617 434.997 152.617 435.817Z" fill="white" stroke="#2E353A" stroke-linecap="round" stroke-linejoin="round"/>
</svg>
