<svg width="516" height="500" viewBox="0 0 516 500" fill="none" xmlns="http://www.w3.org/2000/svg">
<path d="M222.259 500C330.637 500 418.495 494.527 418.495 487.775C418.495 481.023 330.637 475.55 222.259 475.55C113.882 475.55 26.024 481.023 26.024 487.775C26.024 494.527 113.882 500 222.259 500Z" fill="#F2E205"/>
<path opacity="0.8" d="M222.259 500C330.637 500 418.495 494.527 418.495 487.775C418.495 481.023 330.637 475.55 222.259 475.55C113.882 475.55 26.024 481.023 26.024 487.775C26.024 494.527 113.882 500 222.259 500Z" fill="white"/>
<path d="M369.721 22.9063H172.407C158.784 22.9063 147.741 33.9496 147.741 47.5722V464.137C147.741 477.76 158.784 488.803 172.407 488.803H369.721C383.344 488.803 394.387 477.76 394.387 464.137V47.5722C394.387 33.9496 383.344 22.9063 369.721 22.9063Z" fill="#263238"/>
<path d="M383.419 74.0662H158.697V437.644H383.419V74.0662Z" fill="white" stroke="#263238" stroke-width="1.33739" stroke-miterlimit="10"/>
<path d="M305.507 221.289C324.529 202.267 324.529 171.426 305.507 152.403C286.484 133.381 255.643 133.381 236.621 152.403C217.598 171.426 217.598 202.267 236.621 221.289C255.643 240.311 286.484 240.311 305.507 221.289Z" fill="#F2E205"/>
<path d="M335.014 414.78H207.127C206.839 414.782 206.554 414.727 206.287 414.618C206.021 414.509 205.779 414.348 205.575 414.145C205.371 413.942 205.209 413.701 205.098 413.435C204.988 413.17 204.931 412.885 204.931 412.597C204.929 412.308 204.985 412.022 205.095 411.754C205.204 411.487 205.366 411.244 205.57 411.04C205.775 410.836 206.017 410.674 206.285 410.564C206.552 410.455 206.838 410.399 207.127 410.401H335.014C335.302 410.401 335.587 410.458 335.852 410.568C336.118 410.679 336.359 410.841 336.562 411.045C336.765 411.249 336.926 411.491 337.035 411.757C337.144 412.024 337.199 412.309 337.197 412.597C337.197 413.176 336.967 413.731 336.558 414.141C336.148 414.55 335.593 414.78 335.014 414.78Z" fill="#F2E205"/>
<path d="M339.178 262.938H202.95C200.139 262.938 197.86 265.218 197.86 268.029V284.088C197.86 286.899 200.139 289.178 202.95 289.178H339.178C341.989 289.178 344.268 286.899 344.268 284.088V268.029C344.268 265.218 341.989 262.938 339.178 262.938Z" fill="#F2E205"/>
<path d="M339.178 312.016H202.95C200.139 312.016 197.86 314.295 197.86 317.107V333.166C197.86 335.977 200.139 338.256 202.95 338.256H339.178C341.989 338.256 344.268 335.977 344.268 333.166V317.107C344.268 314.295 341.989 312.016 339.178 312.016Z" fill="#F2E205"/>
<path d="M295.317 211.144L280.985 202.892V196.075C283.06 193.565 284.564 190.632 285.39 187.481C285.883 187.656 286.403 187.746 286.926 187.748C288.703 187.748 289.833 182.238 290.024 178.303C292.093 173.923 289.275 171.359 289.275 171.359C289.275 171.359 290.443 170.191 291.217 165.506C291.991 160.822 288.488 162.777 285.758 158.486C283.029 154.195 281.074 149.524 272.111 149.524C269.642 149.443 267.205 150.106 265.118 151.428C263.03 152.75 261.389 154.67 260.407 156.937C258.176 156.946 255.953 157.205 253.78 157.712C251.038 158.486 250.264 167.461 252.6 170.978C253.645 172.9 254.203 175.049 254.225 177.236C253.603 176.475 252.955 176.272 252.6 177.998C251.825 181.895 254.948 187.354 254.948 187.354L256.56 186.897C257.373 190.264 258.94 193.403 261.143 196.075V202.892L246.811 211.144C245.137 212.11 243.747 213.5 242.78 215.173C241.813 216.847 241.303 218.745 241.301 220.678V225.4C249.825 231.985 260.293 235.557 271.064 235.557C281.836 235.557 292.303 231.985 300.827 225.4V220.678C300.828 218.745 300.319 216.845 299.352 215.171C298.384 213.498 296.993 212.108 295.317 211.144Z" fill="#263238"/>
<path d="M216.407 331.731C216.078 331.727 215.764 331.595 215.531 331.363C215.406 331.251 215.306 331.114 215.238 330.961C215.171 330.808 215.136 330.642 215.137 330.474C215.141 330.245 215.207 330.022 215.328 329.827L217.613 326.171L213.157 326.311C212.989 326.321 212.821 326.296 212.663 326.237C212.506 326.178 212.363 326.086 212.243 325.968C212.036 325.735 211.922 325.435 211.922 325.124C211.922 324.812 212.036 324.512 212.243 324.279C212.36 324.157 212.502 324.061 212.66 324C212.818 323.938 212.988 323.913 213.157 323.924L217.549 324.089L215.29 320.446C215.167 320.247 215.101 320.019 215.099 319.785C215.098 319.618 215.133 319.452 215.2 319.299C215.268 319.146 215.368 319.009 215.493 318.897C215.726 318.665 216.04 318.533 216.369 318.529C216.585 318.53 216.797 318.593 216.979 318.71C217.161 318.827 217.306 318.993 217.397 319.189L219.568 323.111L221.713 319.214C221.815 319.006 221.972 318.83 222.166 318.705C222.361 318.58 222.586 318.51 222.818 318.503C222.978 318.504 223.137 318.539 223.283 318.604C223.43 318.67 223.561 318.765 223.668 318.884C223.901 319.126 224.029 319.45 224.024 319.785C224.023 320.004 223.966 320.218 223.859 320.408L221.561 324.089L226.017 323.924C226.186 323.913 226.355 323.938 226.513 324C226.671 324.061 226.814 324.157 226.931 324.279C227.147 324.504 227.266 324.805 227.261 325.117C227.26 325.432 227.142 325.735 226.931 325.968C226.811 326.086 226.668 326.178 226.51 326.237C226.353 326.296 226.185 326.321 226.017 326.311L221.536 326.171L223.77 329.789C223.895 329.991 223.961 330.224 223.96 330.462C223.96 330.798 223.826 331.121 223.588 331.359C223.35 331.597 223.027 331.731 222.691 331.731C222.473 331.728 222.261 331.662 222.081 331.54C221.9 331.418 221.759 331.246 221.675 331.046L219.555 327.237L217.448 331.046C217.354 331.245 217.208 331.414 217.024 331.535C216.84 331.656 216.627 331.724 216.407 331.731Z" fill="#263238"/>
<path d="M236.998 331.731C236.669 331.727 236.355 331.595 236.122 331.363C235.997 331.251 235.897 331.114 235.829 330.961C235.761 330.808 235.727 330.642 235.728 330.474C235.732 330.245 235.798 330.022 235.919 329.827L238.204 326.171L233.761 326.311C233.591 326.318 233.422 326.292 233.262 326.233C233.103 326.174 232.958 326.084 232.834 325.968C232.665 325.794 232.553 325.573 232.512 325.335C232.47 325.096 232.501 324.851 232.601 324.63C232.701 324.41 232.865 324.225 233.072 324.099C233.279 323.973 233.519 323.912 233.761 323.924L238.14 324.089L235.881 320.446C235.758 320.247 235.692 320.019 235.69 319.785C235.689 319.618 235.723 319.452 235.791 319.299C235.859 319.146 235.959 319.009 236.084 318.897C236.317 318.665 236.631 318.533 236.96 318.529C237.176 318.53 237.387 318.593 237.569 318.71C237.751 318.827 237.897 318.993 237.988 319.189L240.159 323.112L242.304 319.214C242.406 319.006 242.563 318.83 242.757 318.705C242.952 318.58 243.177 318.51 243.409 318.503C243.569 318.503 243.728 318.536 243.875 318.602C244.022 318.668 244.153 318.764 244.259 318.884C244.377 319.003 244.47 319.143 244.533 319.298C244.596 319.453 244.628 319.618 244.627 319.785C244.623 320.005 244.561 320.219 244.45 320.408L242.152 324.089L246.62 323.949C246.788 323.938 246.955 323.964 247.111 324.026C247.267 324.087 247.407 324.182 247.522 324.305C247.738 324.53 247.857 324.831 247.852 325.143C247.851 325.457 247.733 325.76 247.522 325.993C247.404 326.111 247.263 326.203 247.108 326.262C246.953 326.321 246.786 326.346 246.62 326.336L242.126 326.196L244.361 329.814C244.486 330.016 244.552 330.249 244.551 330.487C244.551 330.824 244.417 331.147 244.179 331.385C243.941 331.623 243.618 331.757 243.282 331.757C243.064 331.754 242.852 331.687 242.671 331.566C242.491 331.444 242.35 331.272 242.266 331.071L240.146 327.263L238.039 331.071C237.942 331.265 237.793 331.43 237.61 331.546C237.427 331.662 237.215 331.726 236.998 331.731Z" fill="#263238"/>
<path d="M257.601 331.731C257.268 331.73 256.949 331.598 256.713 331.363C256.588 331.251 256.488 331.114 256.42 330.961C256.352 330.808 256.318 330.642 256.319 330.474C256.323 330.245 256.389 330.022 256.51 329.827L258.795 326.171L254.351 326.311C254.112 326.32 253.875 326.258 253.672 326.133C253.468 326.007 253.306 325.824 253.206 325.606C253.107 325.388 253.074 325.146 253.113 324.909C253.152 324.673 253.261 324.454 253.425 324.279C253.545 324.157 253.689 324.062 253.849 324.001C254.009 323.939 254.181 323.913 254.351 323.924L258.731 324.089L256.471 320.446C256.349 320.247 256.283 320.019 256.281 319.785C256.285 319.619 256.322 319.455 256.389 319.302C256.457 319.15 256.554 319.012 256.675 318.897C256.911 318.662 257.23 318.53 257.563 318.529C257.777 318.533 257.986 318.596 258.166 318.713C258.345 318.83 258.488 318.995 258.579 319.189L260.75 323.112L262.895 319.214C262.997 319.006 263.153 318.83 263.348 318.705C263.543 318.58 263.768 318.51 263.999 318.503C264.16 318.503 264.319 318.536 264.466 318.602C264.612 318.668 264.743 318.764 264.85 318.884C264.968 319.003 265.061 319.143 265.124 319.298C265.187 319.453 265.219 319.618 265.218 319.785C265.214 320.005 265.152 320.219 265.04 320.408L262.743 324.089L267.211 323.924C267.376 323.908 267.541 323.926 267.698 323.98C267.854 324.033 267.997 324.119 268.118 324.232C268.238 324.345 268.333 324.482 268.395 324.635C268.458 324.788 268.487 324.952 268.481 325.117C268.483 325.43 268.37 325.733 268.163 325.968C268.044 326.086 267.9 326.178 267.743 326.237C267.585 326.296 267.417 326.321 267.249 326.311L262.768 326.171L264.99 329.789C265.115 329.991 265.181 330.224 265.18 330.462C265.176 330.628 265.139 330.793 265.072 330.945C265.004 331.098 264.907 331.235 264.787 331.35C264.676 331.469 264.543 331.564 264.394 331.63C264.246 331.695 264.086 331.73 263.923 331.731C263.707 331.728 263.497 331.661 263.319 331.539C263.141 331.417 263.002 331.245 262.92 331.046L260.788 327.237L258.68 331.046C258.585 331.252 258.433 331.426 258.242 331.547C258.05 331.669 257.828 331.733 257.601 331.731Z" fill="#263238"/>
<path d="M278.192 331.731C277.859 331.73 277.54 331.598 277.304 331.363C277.064 331.129 276.927 330.809 276.923 330.474C276.919 330.246 276.98 330.021 277.1 329.827L279.385 326.171L274.942 326.311C274.773 326.318 274.603 326.292 274.444 326.233C274.285 326.174 274.139 326.084 274.016 325.968C273.809 325.735 273.694 325.435 273.694 325.124C273.694 324.812 273.809 324.512 274.016 324.279C274.138 324.161 274.284 324.068 274.443 324.007C274.602 323.946 274.772 323.918 274.942 323.924L279.335 324.089L277.088 320.446C276.965 320.247 276.899 320.019 276.897 319.785C276.901 319.619 276.938 319.455 277.006 319.302C277.073 319.15 277.17 319.012 277.291 318.897C277.527 318.662 277.846 318.53 278.179 318.529C278.396 318.53 278.607 318.593 278.789 318.71C278.971 318.827 279.116 318.993 279.208 319.189L281.366 323.112L283.511 319.214C283.613 319.006 283.77 318.83 283.964 318.705C284.159 318.58 284.384 318.51 284.616 318.503C284.776 318.503 284.935 318.536 285.082 318.602C285.229 318.668 285.36 318.764 285.466 318.884C285.584 319.003 285.677 319.143 285.74 319.298C285.803 319.453 285.835 319.618 285.834 319.785C285.83 320.005 285.769 320.219 285.657 320.408L283.359 324.089L287.827 323.924C287.992 323.908 288.158 323.926 288.314 323.98C288.47 324.033 288.613 324.119 288.734 324.232C288.854 324.345 288.949 324.482 289.011 324.635C289.074 324.788 289.103 324.952 289.097 325.117C289.1 325.43 288.987 325.733 288.78 325.968C288.66 326.086 288.517 326.178 288.359 326.237C288.202 326.296 288.033 326.321 287.866 326.311L283.384 326.171L285.606 329.789C285.731 329.991 285.797 330.224 285.796 330.462C285.798 330.629 285.763 330.795 285.695 330.948C285.627 331.102 285.528 331.239 285.403 331.35C285.292 331.469 285.159 331.564 285.01 331.63C284.862 331.695 284.702 331.73 284.54 331.731C284.324 331.728 284.114 331.661 283.935 331.539C283.757 331.417 283.618 331.245 283.537 331.046L281.404 327.237L279.297 331.046C279.2 331.256 279.044 331.432 278.847 331.554C278.651 331.676 278.423 331.738 278.192 331.731Z" fill="#263238"/>
<path d="M298.783 331.731C298.45 331.73 298.131 331.598 297.894 331.363C297.698 331.164 297.572 330.905 297.538 330.627C297.503 330.35 297.562 330.068 297.704 329.827L299.976 326.171L295.533 326.311C295.364 326.318 295.194 326.292 295.035 326.233C294.876 326.174 294.73 326.084 294.606 325.968C294.399 325.735 294.285 325.435 294.285 325.124C294.285 324.812 294.399 324.512 294.606 324.279C294.729 324.161 294.874 324.068 295.034 324.007C295.193 323.946 295.363 323.918 295.533 323.924L299.925 324.089L297.666 320.446C297.543 320.247 297.477 320.019 297.475 319.785C297.48 319.451 297.617 319.131 297.856 318.897C298.093 318.662 298.412 318.53 298.745 318.529C298.961 318.53 299.173 318.593 299.355 318.71C299.537 318.827 299.682 318.993 299.773 319.189L301.931 323.112L304.077 319.214C304.178 319.006 304.335 318.83 304.53 318.705C304.724 318.58 304.95 318.51 305.181 318.503C305.344 318.502 305.505 318.536 305.653 318.602C305.802 318.667 305.935 318.764 306.044 318.884C306.277 319.126 306.405 319.45 306.4 319.785C306.395 320.005 306.334 320.219 306.222 320.408L303.924 324.089L308.393 323.924C308.557 323.908 308.723 323.926 308.879 323.98C309.036 324.033 309.179 324.119 309.299 324.232C309.419 324.345 309.514 324.482 309.577 324.635C309.639 324.788 309.669 324.952 309.662 325.117C309.665 325.43 309.552 325.733 309.345 325.968C309.225 326.086 309.082 326.178 308.925 326.237C308.767 326.296 308.599 326.321 308.431 326.311L303.95 326.171L306.171 329.789C306.296 329.991 306.362 330.224 306.362 330.462C306.363 330.629 306.328 330.795 306.261 330.948C306.193 331.102 306.093 331.239 305.968 331.35C305.858 331.469 305.724 331.564 305.576 331.63C305.427 331.695 305.267 331.73 305.105 331.731C304.889 331.728 304.679 331.661 304.501 331.539C304.322 331.417 304.184 331.246 304.102 331.046L301.969 327.237L299.862 331.046C299.767 331.252 299.615 331.426 299.423 331.547C299.232 331.669 299.01 331.733 298.783 331.731Z" fill="#263238"/>
<path d="M319.374 331.731C319.045 331.727 318.731 331.595 318.498 331.363C318.373 331.251 318.273 331.114 318.205 330.961C318.138 330.808 318.103 330.642 318.104 330.474C318.108 330.245 318.174 330.022 318.295 329.827L320.567 326.171L316.124 326.311C315.961 326.323 315.796 326.301 315.642 326.247C315.487 326.192 315.346 326.106 315.226 325.994C315.107 325.881 315.012 325.745 314.948 325.595C314.884 325.444 314.852 325.281 314.855 325.117C314.854 324.962 314.884 324.808 314.942 324.664C315.001 324.52 315.088 324.39 315.197 324.279C315.314 324.157 315.457 324.061 315.615 324C315.773 323.938 315.942 323.913 316.111 323.924L320.504 324.089L318.244 320.446C318.121 320.247 318.055 320.019 318.054 319.785C318.058 319.451 318.195 319.131 318.434 318.897C318.671 318.662 318.99 318.53 319.323 318.529C319.539 318.53 319.751 318.593 319.933 318.71C320.115 318.827 320.26 318.993 320.351 319.189L322.509 323.112L324.668 319.214C324.768 319.008 324.923 318.833 325.115 318.708C325.308 318.583 325.53 318.512 325.759 318.503C325.922 318.502 326.083 318.536 326.232 318.602C326.38 318.667 326.514 318.764 326.623 318.884C326.856 319.126 326.983 319.45 326.978 319.785C326.977 320.004 326.921 320.218 326.813 320.408L324.515 324.089L328.971 323.924C329.14 323.913 329.31 323.938 329.468 324C329.626 324.061 329.768 324.157 329.885 324.279C330.102 324.504 330.22 324.805 330.215 325.117C330.214 325.432 330.097 325.735 329.885 325.968C329.766 326.086 329.622 326.178 329.465 326.237C329.307 326.296 329.139 326.321 328.971 326.311L324.49 326.171L326.711 329.789C326.837 329.991 326.903 330.224 326.902 330.462C326.897 330.797 326.76 331.116 326.521 331.35C326.29 331.587 325.975 331.723 325.645 331.731C325.429 331.728 325.219 331.661 325.041 331.539C324.863 331.417 324.724 331.246 324.642 331.046L322.509 327.237L320.402 331.046C320.311 331.244 320.166 331.413 319.985 331.534C319.803 331.655 319.592 331.723 319.374 331.731Z" fill="#263238"/>
<g style="mix-blend-mode:multiply">
<path d="M383.419 74.5485H158.697V88.627H383.419V74.5485Z" fill="#F2E205"/>
</g>
<path d="M295.495 48.6132H246.62C245.738 48.6132 244.892 48.2627 244.269 47.639C243.645 47.0152 243.294 46.1693 243.294 45.2871C243.294 44.405 243.645 43.559 244.269 42.9353C244.892 42.3115 245.738 41.9611 246.62 41.9611H295.495C296.377 41.9611 297.223 42.3115 297.847 42.9353C298.471 43.559 298.821 44.405 298.821 45.2871C298.821 46.1693 298.471 47.0152 297.847 47.639C297.223 48.2627 296.377 48.6132 295.495 48.6132Z" fill="#F2E205" stroke="#263238" stroke-width="1.33739" stroke-linecap="round" stroke-linejoin="round"/>
<path d="M284.387 458.184C284.39 455.546 283.61 452.967 282.146 450.773C280.682 448.579 278.601 446.869 276.164 445.859C273.728 444.848 271.047 444.583 268.46 445.097C265.873 445.611 263.497 446.881 261.632 448.746C259.767 450.61 258.498 452.987 257.984 455.574C257.47 458.16 257.735 460.842 258.745 463.278C259.756 465.714 261.466 467.796 263.66 469.259C265.854 470.723 268.433 471.503 271.07 471.5C274.601 471.497 277.986 470.093 280.483 467.596C282.98 465.1 284.384 461.714 284.387 458.184Z" fill="#F2E205"/>
<path d="M277.824 451.43H264.317V464.937H277.824V451.43Z" fill="#F2E205" stroke="#263238" stroke-width="1.33739" stroke-linecap="round" stroke-linejoin="round"/>
<path d="M431.964 304.907C431.964 304.907 414.267 259.943 430.021 254.598C446.423 249.025 445.699 278.718 445.065 293.19C443.732 324.114 440.317 329.865 437.765 322.312L431.964 304.907ZM426.645 339.983C431.507 346.33 432.878 339.754 424.106 310.061C419.993 296.097 411.055 267.851 397.345 278.451C384.181 288.607 415.511 325.422 415.511 325.422L426.645 339.983ZM417.25 365.753C421.884 369.866 421.973 364.674 410.967 343.233C405.8 333.191 394.87 312.867 385.92 322.921C377.326 332.62 406.612 356.194 406.612 356.194L417.25 365.753ZM407.095 396.398C411.728 400.524 411.817 395.319 400.811 373.891C395.644 363.849 384.714 343.512 375.764 353.579C367.22 363.303 396.418 386.877 396.418 386.877L407.095 396.398ZM436.42 334.016C429.006 336.911 434.896 340.059 465.859 339.97C480.381 339.97 510.036 339.31 503.714 323.175C497.659 307.675 453.557 327.415 453.557 327.415L436.42 334.016ZM427.977 354.633C420.132 355.991 425.286 360.256 455.652 366.324C469.883 369.181 499.068 374.449 496.085 357.438C493.228 341.037 446.08 351.624 446.08 351.624L427.977 354.633ZM418.533 379.806C411.855 380.771 416.121 384.491 441.65 390.33C453.621 393.072 478.185 398.214 476.052 383.704C474.021 369.739 433.906 377.635 433.906 377.635L418.533 379.806ZM411.36 403.127C404.822 404.79 409.456 408.039 435.48 411.137C447.667 412.584 472.638 415.098 468.994 400.892C465.478 387.258 426.429 399.331 426.429 399.331L411.36 403.127ZM449.622 308.716C445.814 317.247 453.722 315.952 480.61 292.492C493.203 281.486 518.466 258.457 498.459 246.994C479.252 235.975 458.597 289.14 458.597 289.14L449.622 308.716ZM412.35 433.505C408.326 435.854 412.274 436.768 430.732 433.086C439.39 431.372 456.998 427.564 451.044 420.049C445.28 412.813 421.668 428.046 421.668 428.046L412.35 433.505Z" fill="#F2E205"/>
<path opacity="0.3" d="M431.964 304.907C431.964 304.907 414.267 259.943 430.021 254.598C446.423 249.025 445.699 278.718 445.065 293.19C443.732 324.114 440.317 329.865 437.765 322.312L431.964 304.907ZM426.645 339.983C431.507 346.33 432.878 339.754 424.106 310.061C419.993 296.097 411.055 267.851 397.345 278.451C384.181 288.607 415.511 325.422 415.511 325.422L426.645 339.983ZM417.25 365.753C421.884 369.866 421.973 364.674 410.967 343.233C405.8 333.191 394.87 312.867 385.92 322.921C377.326 332.62 406.612 356.194 406.612 356.194L417.25 365.753ZM407.095 396.398C411.728 400.524 411.817 395.319 400.811 373.891C395.644 363.849 384.714 343.512 375.764 353.579C367.22 363.303 396.418 386.877 396.418 386.877L407.095 396.398ZM436.42 334.016C429.006 336.911 434.896 340.059 465.859 339.97C480.381 339.97 510.036 339.31 503.714 323.175C497.659 307.675 453.557 327.415 453.557 327.415L436.42 334.016ZM427.977 354.633C420.132 355.991 425.286 360.256 455.652 366.324C469.883 369.181 499.068 374.449 496.085 357.438C493.228 341.037 446.08 351.624 446.08 351.624L427.977 354.633ZM418.533 379.806C411.855 380.771 416.121 384.491 441.65 390.33C453.621 393.072 478.185 398.214 476.052 383.704C474.021 369.739 433.906 377.635 433.906 377.635L418.533 379.806ZM411.36 403.127C404.822 404.79 409.456 408.039 435.48 411.137C447.667 412.584 472.638 415.098 468.994 400.892C465.478 387.258 426.429 399.331 426.429 399.331L411.36 403.127ZM449.622 308.716C445.814 317.247 453.722 315.952 480.61 292.492C493.203 281.486 518.466 258.457 498.459 246.994C479.252 235.975 458.597 289.14 458.597 289.14L449.622 308.716ZM412.35 433.505C408.326 435.854 412.274 436.768 430.732 433.086C439.39 431.372 456.998 427.564 451.044 420.049C445.28 412.813 421.668 428.046 421.668 428.046L412.35 433.505Z" fill="white"/>
<path d="M439.771 325.841L436.686 274.516L439.771 325.841ZM430.009 342.776L410.51 298.636L430.009 342.776ZM480.331 329.941L433.601 336.644L480.331 329.941ZM419.904 366.566L394.603 334.105L419.904 366.566ZM424.347 356.613L459.207 358.365L424.347 356.613ZM416.095 381.507L442.754 384.148L416.095 381.507ZM409.659 397.325L396.418 377.407L409.659 397.325ZM408.136 404.358L439.479 404.65L408.136 404.358ZM401.788 463.16C401.998 463.144 402.193 463.045 402.331 462.886C402.469 462.727 402.539 462.52 402.525 462.309C400.531 432.375 412.109 383.348 430.681 343.106C442.551 317.386 489.077 266.836 489.572 266.328C489.722 266.178 489.806 265.975 489.806 265.763C489.806 265.551 489.722 265.348 489.572 265.198C489.499 265.125 489.412 265.066 489.316 265.026C489.22 264.986 489.118 264.966 489.014 264.966C488.91 264.966 488.807 264.986 488.711 265.026C488.615 265.066 488.528 265.125 488.455 265.198C487.986 265.706 441.269 316.447 429.298 342.395C410.383 383.615 398.957 431.753 400.988 462.411C401.004 462.613 401.095 462.802 401.243 462.941C401.391 463.079 401.586 463.158 401.788 463.16ZM439.758 326.628C439.968 326.615 440.164 326.52 440.305 326.363C440.445 326.206 440.518 326 440.507 325.79L437.473 274.44C437.468 274.335 437.443 274.233 437.398 274.138C437.353 274.044 437.289 273.959 437.211 273.89C437.133 273.82 437.042 273.766 436.943 273.732C436.844 273.698 436.74 273.684 436.635 273.691C436.425 273.704 436.229 273.799 436.089 273.956C435.949 274.113 435.876 274.319 435.886 274.529L438.971 325.854C438.981 326.056 439.068 326.246 439.215 326.386C439.361 326.525 439.556 326.603 439.758 326.603V326.628ZM430.288 343.499C430.478 343.413 430.627 343.256 430.703 343.062C430.779 342.867 430.776 342.651 430.694 342.458L411.182 298.319C411.098 298.127 410.941 297.976 410.746 297.9C410.551 297.824 410.333 297.828 410.141 297.913C409.949 297.997 409.799 298.154 409.723 298.349C409.646 298.544 409.651 298.762 409.735 298.954L429.234 343.093C429.295 343.235 429.396 343.356 429.525 343.441C429.653 343.527 429.804 343.574 429.958 343.576C430.089 343.582 430.22 343.556 430.339 343.499H430.288ZM433.665 337.406L480.369 330.729C480.481 330.726 480.592 330.7 480.694 330.652C480.796 330.603 480.887 330.534 480.96 330.448C481.033 330.363 481.088 330.262 481.12 330.154C481.151 330.046 481.16 329.932 481.144 329.82C481.129 329.709 481.09 329.601 481.031 329.506C480.971 329.41 480.892 329.328 480.798 329.265C480.704 329.202 480.598 329.16 480.487 329.141C480.376 329.122 480.262 329.126 480.153 329.154L433.449 335.832C433.24 335.845 433.045 335.941 432.907 336.098C432.769 336.255 432.699 336.461 432.713 336.67C432.726 336.878 432.822 337.073 432.979 337.211C433.136 337.349 433.342 337.419 433.55 337.406H433.665ZM420.348 367.201C420.514 367.07 420.621 366.88 420.648 366.671C420.674 366.461 420.616 366.25 420.488 366.083L395.174 333.559C395.045 333.391 394.853 333.281 394.643 333.254C394.432 333.226 394.219 333.284 394.051 333.413C393.882 333.543 393.772 333.734 393.745 333.945C393.718 334.156 393.775 334.369 393.905 334.537L419.269 367.112C419.342 367.206 419.437 367.283 419.545 367.336C419.652 367.389 419.771 367.416 419.891 367.416C420.08 367.407 420.26 367.33 420.399 367.201H420.348ZM459.905 358.403C459.912 358.193 459.836 357.989 459.693 357.834C459.551 357.68 459.353 357.588 459.143 357.578L424.347 355.813C424.151 355.827 423.967 355.912 423.83 356.052C423.693 356.192 423.612 356.377 423.603 356.573C423.593 356.769 423.656 356.961 423.779 357.114C423.902 357.266 424.077 357.368 424.271 357.4L459.13 359.165C459.34 359.172 459.545 359.096 459.699 358.953C459.854 358.811 459.946 358.613 459.956 358.403H459.905ZM443.49 384.224C443.503 384.12 443.494 384.014 443.465 383.913C443.435 383.812 443.386 383.718 443.32 383.636C443.254 383.554 443.172 383.487 443.079 383.437C442.986 383.388 442.884 383.358 442.78 383.348L416.121 380.72C416.017 380.71 415.913 380.72 415.813 380.75C415.714 380.78 415.621 380.83 415.541 380.896C415.461 380.962 415.394 381.043 415.345 381.135C415.297 381.227 415.267 381.328 415.257 381.431C415.24 381.64 415.304 381.846 415.437 382.008C415.57 382.169 415.76 382.272 415.968 382.295L442.627 384.935H442.703C442.908 384.949 443.11 384.883 443.267 384.75C443.423 384.617 443.522 384.429 443.541 384.224H443.49ZM410.04 397.985C410.216 397.869 410.339 397.687 410.382 397.48C410.425 397.273 410.384 397.058 410.268 396.881L397.091 376.963C396.971 376.791 396.788 376.673 396.582 376.633C396.377 376.592 396.163 376.633 395.987 376.747C395.81 376.863 395.687 377.045 395.645 377.252C395.602 377.459 395.643 377.674 395.758 377.851L408.935 397.769C409.011 397.878 409.111 397.967 409.228 398.029C409.345 398.091 409.476 398.124 409.608 398.125C409.78 398.134 409.95 398.085 410.091 397.985H410.04ZM440.279 404.65C440.275 404.441 440.192 404.241 440.045 404.092C439.899 403.943 439.7 403.857 439.492 403.85L408.148 403.558C407.94 403.558 407.739 403.641 407.592 403.789C407.444 403.936 407.361 404.137 407.361 404.345C407.358 404.45 407.376 404.555 407.414 404.652C407.452 404.75 407.51 404.839 407.583 404.914C407.657 404.989 407.745 405.048 407.842 405.088C407.939 405.127 408.043 405.147 408.148 405.145L439.492 405.437C439.599 405.442 439.706 405.426 439.806 405.389C439.907 405.352 439.999 405.295 440.077 405.221C440.156 405.148 440.218 405.059 440.261 404.961C440.305 404.863 440.328 404.757 440.329 404.65H440.279ZM398.221 451.519C398.284 451.379 403.629 436.653 419.7 433.137C419.907 433.091 420.088 432.966 420.202 432.787C420.316 432.609 420.355 432.392 420.31 432.185C420.259 431.982 420.131 431.807 419.954 431.695C419.776 431.584 419.563 431.546 419.358 431.588C402.41 435.295 396.786 450.846 396.723 450.998C396.658 451.199 396.673 451.417 396.765 451.606C396.858 451.796 397.02 451.942 397.218 452.014H397.472C397.641 452.029 397.81 451.988 397.954 451.899C398.098 451.81 398.21 451.677 398.272 451.519H398.221ZM401.788 463.16C401.998 463.144 402.193 463.045 402.331 462.886C402.469 462.727 402.539 462.52 402.525 462.309C400.531 432.375 412.109 383.348 430.681 343.106C442.551 317.386 489.077 266.836 489.572 266.328C489.722 266.178 489.806 265.975 489.806 265.763C489.806 265.551 489.722 265.348 489.572 265.198C489.499 265.125 489.412 265.066 489.316 265.026C489.22 264.986 489.118 264.966 489.014 264.966C488.91 264.966 488.807 264.986 488.711 265.026C488.615 265.066 488.528 265.125 488.455 265.198C487.986 265.706 441.269 316.447 429.298 342.395C410.383 383.615 398.957 431.753 400.988 462.411C401.004 462.613 401.095 462.802 401.243 462.941C401.391 463.079 401.586 463.158 401.788 463.16ZM439.758 326.628C439.968 326.615 440.164 326.52 440.305 326.363C440.445 326.206 440.518 326 440.507 325.79L437.473 274.44C437.468 274.335 437.443 274.233 437.398 274.138C437.353 274.044 437.289 273.959 437.211 273.89C437.133 273.82 437.042 273.766 436.943 273.732C436.844 273.698 436.74 273.684 436.635 273.691C436.425 273.704 436.229 273.799 436.089 273.956C435.949 274.113 435.876 274.319 435.886 274.529L438.971 325.854C438.981 326.056 439.068 326.246 439.215 326.386C439.361 326.525 439.556 326.603 439.758 326.603V326.628ZM430.288 343.499C430.478 343.413 430.627 343.256 430.703 343.062C430.779 342.867 430.776 342.651 430.694 342.458L411.182 298.319C411.098 298.127 410.941 297.976 410.746 297.9C410.551 297.824 410.333 297.828 410.141 297.913C409.949 297.997 409.799 298.154 409.723 298.349C409.646 298.544 409.651 298.762 409.735 298.954L429.234 343.093C429.295 343.235 429.396 343.356 429.525 343.441C429.653 343.527 429.804 343.574 429.958 343.576C430.089 343.582 430.22 343.556 430.339 343.499H430.288ZM433.665 337.406L480.369 330.729C480.481 330.726 480.592 330.7 480.694 330.652C480.796 330.603 480.887 330.534 480.96 330.448C481.033 330.363 481.088 330.262 481.12 330.154C481.151 330.046 481.16 329.932 481.144 329.82C481.129 329.709 481.09 329.601 481.031 329.506C480.971 329.41 480.892 329.328 480.798 329.265C480.704 329.202 480.598 329.16 480.487 329.141C480.376 329.122 480.262 329.126 480.153 329.154L433.449 335.832C433.24 335.845 433.045 335.941 432.907 336.098C432.769 336.255 432.699 336.461 432.713 336.67C432.726 336.878 432.822 337.073 432.979 337.211C433.136 337.349 433.342 337.419 433.55 337.406H433.665ZM420.348 367.201C420.514 367.07 420.621 366.88 420.648 366.671C420.674 366.461 420.616 366.25 420.488 366.083L395.174 333.559C395.11 333.476 395.03 333.406 394.939 333.354C394.848 333.301 394.747 333.267 394.643 333.254C394.538 333.24 394.432 333.247 394.331 333.275C394.229 333.302 394.134 333.349 394.051 333.413C393.967 333.478 393.898 333.558 393.845 333.649C393.793 333.74 393.759 333.841 393.745 333.945C393.732 334.049 393.739 334.155 393.766 334.257C393.793 334.358 393.841 334.454 393.905 334.537L419.269 367.112C419.342 367.206 419.437 367.283 419.545 367.336C419.652 367.389 419.771 367.416 419.891 367.416C420.08 367.407 420.26 367.33 420.399 367.201H420.348ZM459.905 358.403C459.912 358.193 459.836 357.989 459.693 357.834C459.551 357.68 459.353 357.588 459.143 357.578L424.347 355.813C424.151 355.827 423.967 355.912 423.83 356.052C423.693 356.192 423.612 356.377 423.603 356.573C423.593 356.769 423.656 356.961 423.779 357.114C423.902 357.266 424.077 357.368 424.271 357.4L459.13 359.165C459.34 359.172 459.545 359.096 459.699 358.953C459.854 358.811 459.946 358.613 459.956 358.403H459.905ZM443.49 384.224C443.503 384.12 443.494 384.014 443.465 383.913C443.435 383.812 443.386 383.718 443.32 383.636C443.254 383.554 443.172 383.487 443.079 383.437C442.986 383.388 442.884 383.358 442.78 383.348L416.121 380.72C416.017 380.71 415.913 380.72 415.813 380.75C415.714 380.78 415.621 380.83 415.541 380.896C415.461 380.962 415.394 381.043 415.345 381.135C415.297 381.227 415.267 381.328 415.257 381.431C415.24 381.64 415.304 381.846 415.437 382.008C415.57 382.169 415.76 382.272 415.968 382.295L442.627 384.935H442.703C442.908 384.949 443.11 384.883 443.267 384.75C443.423 384.617 443.522 384.429 443.541 384.224H443.49ZM410.04 397.985C410.216 397.869 410.339 397.687 410.382 397.48C410.425 397.273 410.384 397.058 410.268 396.881L397.091 376.963C396.971 376.791 396.788 376.673 396.582 376.633C396.377 376.592 396.163 376.633 395.987 376.747C395.81 376.863 395.687 377.045 395.645 377.252C395.602 377.459 395.643 377.674 395.758 377.851L408.935 397.769C409.011 397.878 409.111 397.967 409.228 398.029C409.345 398.091 409.476 398.124 409.608 398.125C409.78 398.134 409.95 398.085 410.091 397.985H410.04ZM440.279 404.65C440.275 404.441 440.192 404.241 440.045 404.092C439.899 403.943 439.7 403.857 439.492 403.85L408.148 403.558C407.94 403.558 407.739 403.641 407.592 403.789C407.444 403.936 407.361 404.137 407.361 404.345C407.358 404.45 407.376 404.555 407.414 404.652C407.452 404.75 407.51 404.839 407.583 404.914C407.657 404.989 407.745 405.048 407.842 405.088C407.939 405.127 408.043 405.147 408.148 405.145L439.492 405.437C439.599 405.442 439.706 405.426 439.806 405.389C439.907 405.352 439.999 405.295 440.077 405.221C440.156 405.148 440.218 405.059 440.261 404.961C440.305 404.863 440.328 404.757 440.329 404.65H440.279ZM398.221 451.519C398.284 451.379 403.629 436.653 419.7 433.137C419.907 433.091 420.088 432.966 420.202 432.787C420.316 432.609 420.355 432.392 420.31 432.185C420.259 431.982 420.131 431.807 419.954 431.695C419.776 431.584 419.563 431.546 419.358 431.588C402.41 435.295 396.786 450.846 396.723 450.998C396.658 451.199 396.673 451.417 396.765 451.606C396.858 451.796 397.02 451.942 397.218 452.014H397.472C397.641 452.029 397.81 451.988 397.954 451.899C398.098 451.81 398.21 451.677 398.272 451.519H398.221Z" fill="#F2E205"/>
<path opacity="0.2" d="M439.771 325.841L436.686 274.516L439.771 325.841ZM430.009 342.776L410.51 298.636L430.009 342.776ZM480.331 329.941L433.601 336.644L480.331 329.941ZM419.904 366.566L394.603 334.105L419.904 366.566ZM424.347 356.613L459.207 358.365L424.347 356.613ZM416.095 381.507L442.754 384.148L416.095 381.507ZM409.659 397.325L396.418 377.407L409.659 397.325ZM408.136 404.358L439.479 404.65L408.136 404.358ZM401.788 463.16C401.998 463.144 402.193 463.045 402.331 462.886C402.469 462.727 402.539 462.52 402.525 462.309C400.531 432.375 412.109 383.348 430.681 343.106C442.551 317.386 489.077 266.836 489.572 266.328C489.722 266.178 489.806 265.975 489.806 265.763C489.806 265.551 489.722 265.348 489.572 265.198C489.499 265.125 489.412 265.066 489.316 265.026C489.22 264.986 489.118 264.966 489.014 264.966C488.91 264.966 488.807 264.986 488.711 265.026C488.615 265.066 488.528 265.125 488.455 265.198C487.986 265.706 441.269 316.447 429.298 342.395C410.383 383.615 398.957 431.753 400.988 462.411C401.004 462.613 401.095 462.802 401.243 462.941C401.391 463.079 401.586 463.158 401.788 463.16ZM439.758 326.628C439.968 326.615 440.164 326.52 440.305 326.363C440.445 326.206 440.518 326 440.507 325.79L437.473 274.44C437.468 274.335 437.443 274.233 437.398 274.138C437.353 274.044 437.289 273.959 437.211 273.89C437.133 273.82 437.042 273.766 436.943 273.732C436.844 273.698 436.74 273.684 436.635 273.691C436.425 273.704 436.229 273.799 436.089 273.956C435.949 274.113 435.876 274.319 435.886 274.529L438.971 325.854C438.981 326.056 439.068 326.246 439.215 326.386C439.361 326.525 439.556 326.603 439.758 326.603V326.628ZM430.288 343.499C430.478 343.413 430.627 343.256 430.703 343.062C430.779 342.867 430.776 342.651 430.694 342.458L411.182 298.319C411.098 298.127 410.941 297.976 410.746 297.9C410.551 297.824 410.333 297.828 410.141 297.913C409.949 297.997 409.799 298.154 409.723 298.349C409.646 298.544 409.651 298.762 409.735 298.954L429.234 343.093C429.295 343.235 429.396 343.356 429.525 343.441C429.653 343.527 429.804 343.574 429.958 343.576C430.089 343.582 430.22 343.556 430.339 343.499H430.288ZM433.665 337.406L480.369 330.729C480.481 330.726 480.592 330.7 480.694 330.652C480.796 330.603 480.887 330.534 480.96 330.448C481.033 330.363 481.088 330.262 481.12 330.154C481.151 330.046 481.16 329.932 481.144 329.82C481.129 329.709 481.09 329.601 481.031 329.506C480.971 329.41 480.892 329.328 480.798 329.265C480.704 329.202 480.598 329.16 480.487 329.141C480.376 329.122 480.262 329.126 480.153 329.154L433.449 335.832C433.24 335.845 433.045 335.941 432.907 336.098C432.769 336.255 432.699 336.461 432.713 336.67C432.726 336.878 432.822 337.073 432.979 337.211C433.136 337.349 433.342 337.419 433.55 337.406H433.665ZM420.348 367.201C420.514 367.07 420.621 366.88 420.648 366.671C420.674 366.461 420.616 366.25 420.488 366.083L395.174 333.559C395.045 333.391 394.853 333.281 394.643 333.254C394.432 333.226 394.219 333.284 394.051 333.413C393.882 333.543 393.772 333.734 393.745 333.945C393.718 334.156 393.775 334.369 393.905 334.537L419.269 367.112C419.342 367.206 419.437 367.283 419.545 367.336C419.652 367.389 419.771 367.416 419.891 367.416C420.08 367.407 420.26 367.33 420.399 367.201H420.348ZM459.905 358.403C459.912 358.193 459.836 357.989 459.693 357.834C459.551 357.68 459.353 357.588 459.143 357.578L424.347 355.813C424.151 355.827 423.967 355.912 423.83 356.052C423.693 356.192 423.612 356.377 423.603 356.573C423.593 356.769 423.656 356.961 423.779 357.114C423.902 357.266 424.077 357.368 424.271 357.4L459.13 359.165C459.34 359.172 459.545 359.096 459.699 358.953C459.854 358.811 459.946 358.613 459.956 358.403H459.905ZM443.49 384.224C443.503 384.12 443.494 384.014 443.465 383.913C443.435 383.812 443.386 383.718 443.32 383.636C443.254 383.554 443.172 383.487 443.079 383.437C442.986 383.388 442.884 383.358 442.78 383.348L416.121 380.72C416.017 380.71 415.913 380.72 415.813 380.75C415.714 380.78 415.621 380.83 415.541 380.896C415.461 380.962 415.394 381.043 415.345 381.135C415.297 381.227 415.267 381.328 415.257 381.431C415.24 381.64 415.304 381.846 415.437 382.008C415.57 382.169 415.76 382.272 415.968 382.295L442.627 384.935H442.703C442.908 384.949 443.11 384.883 443.267 384.75C443.423 384.617 443.522 384.429 443.541 384.224H443.49ZM410.04 397.985C410.216 397.869 410.339 397.687 410.382 397.48C410.425 397.273 410.384 397.058 410.268 396.881L397.091 376.963C396.971 376.791 396.788 376.673 396.582 376.633C396.377 376.592 396.163 376.633 395.987 376.747C395.81 376.863 395.687 377.045 395.645 377.252C395.602 377.459 395.643 377.674 395.758 377.851L408.935 397.769C409.011 397.878 409.111 397.967 409.228 398.029C409.345 398.091 409.476 398.124 409.608 398.125C409.78 398.134 409.95 398.085 410.091 397.985H410.04ZM440.279 404.65C440.275 404.441 440.192 404.241 440.045 404.092C439.899 403.943 439.7 403.857 439.492 403.85L408.148 403.558C407.94 403.558 407.739 403.641 407.592 403.789C407.444 403.936 407.361 404.137 407.361 404.345C407.358 404.45 407.376 404.555 407.414 404.652C407.452 404.75 407.51 404.839 407.583 404.914C407.657 404.989 407.745 405.048 407.842 405.088C407.939 405.127 408.043 405.147 408.148 405.145L439.492 405.437C439.599 405.442 439.706 405.426 439.806 405.389C439.907 405.352 439.999 405.295 440.077 405.221C440.156 405.148 440.218 405.059 440.261 404.961C440.305 404.863 440.328 404.757 440.329 404.65H440.279ZM398.221 451.519C398.284 451.379 403.629 436.653 419.7 433.137C419.907 433.091 420.088 432.966 420.202 432.787C420.316 432.609 420.355 432.392 420.31 432.185C420.259 431.982 420.131 431.807 419.954 431.695C419.776 431.584 419.563 431.546 419.358 431.588C402.41 435.295 396.786 450.846 396.723 450.998C396.658 451.199 396.673 451.417 396.765 451.606C396.858 451.796 397.02 451.942 397.218 452.014H397.472C397.641 452.029 397.81 451.988 397.954 451.899C398.098 451.81 398.21 451.677 398.272 451.519H398.221ZM401.788 463.16C401.998 463.144 402.193 463.045 402.331 462.886C402.469 462.727 402.539 462.52 402.525 462.309C400.531 432.375 412.109 383.348 430.681 343.106C442.551 317.386 489.077 266.836 489.572 266.328C489.722 266.178 489.806 265.975 489.806 265.763C489.806 265.551 489.722 265.348 489.572 265.198C489.499 265.125 489.412 265.066 489.316 265.026C489.22 264.986 489.118 264.966 489.014 264.966C488.91 264.966 488.807 264.986 488.711 265.026C488.615 265.066 488.528 265.125 488.455 265.198C487.986 265.706 441.269 316.447 429.298 342.395C410.383 383.615 398.957 431.753 400.988 462.411C401.004 462.613 401.095 462.802 401.243 462.941C401.391 463.079 401.586 463.158 401.788 463.16ZM439.758 326.628C439.968 326.615 440.164 326.52 440.305 326.363C440.445 326.206 440.518 326 440.507 325.79L437.473 274.44C437.468 274.335 437.443 274.233 437.398 274.138C437.353 274.044 437.289 273.959 437.211 273.89C437.133 273.82 437.042 273.766 436.943 273.732C436.844 273.698 436.74 273.684 436.635 273.691C436.425 273.704 436.229 273.799 436.089 273.956C435.949 274.113 435.876 274.319 435.886 274.529L438.971 325.854C438.981 326.056 439.068 326.246 439.215 326.386C439.361 326.525 439.556 326.603 439.758 326.603V326.628ZM430.288 343.499C430.478 343.413 430.627 343.256 430.703 343.062C430.779 342.867 430.776 342.651 430.694 342.458L411.182 298.319C411.098 298.127 410.941 297.976 410.746 297.9C410.551 297.824 410.333 297.828 410.141 297.913C409.949 297.997 409.799 298.154 409.723 298.349C409.646 298.544 409.651 298.762 409.735 298.954L429.234 343.093C429.295 343.235 429.396 343.356 429.525 343.441C429.653 343.527 429.804 343.574 429.958 343.576C430.089 343.582 430.22 343.556 430.339 343.499H430.288ZM433.665 337.406L480.369 330.729C480.481 330.726 480.592 330.7 480.694 330.652C480.796 330.603 480.887 330.534 480.96 330.448C481.033 330.363 481.088 330.262 481.12 330.154C481.151 330.046 481.16 329.932 481.144 329.82C481.129 329.709 481.09 329.601 481.031 329.506C480.971 329.41 480.892 329.328 480.798 329.265C480.704 329.202 480.598 329.16 480.487 329.141C480.376 329.122 480.262 329.126 480.153 329.154L433.449 335.832C433.24 335.845 433.045 335.941 432.907 336.098C432.769 336.255 432.699 336.461 432.713 336.67C432.726 336.878 432.822 337.073 432.979 337.211C433.136 337.349 433.342 337.419 433.55 337.406H433.665ZM420.348 367.201C420.514 367.07 420.621 366.88 420.648 366.671C420.674 366.461 420.616 366.25 420.488 366.083L395.174 333.559C395.11 333.476 395.03 333.406 394.939 333.354C394.848 333.301 394.747 333.267 394.643 333.254C394.538 333.24 394.432 333.247 394.331 333.275C394.229 333.302 394.134 333.349 394.051 333.413C393.967 333.478 393.898 333.558 393.845 333.649C393.793 333.74 393.759 333.841 393.745 333.945C393.732 334.049 393.739 334.155 393.766 334.257C393.793 334.358 393.841 334.454 393.905 334.537L419.269 367.112C419.342 367.206 419.437 367.283 419.545 367.336C419.652 367.389 419.771 367.416 419.891 367.416C420.08 367.407 420.26 367.33 420.399 367.201H420.348ZM459.905 358.403C459.912 358.193 459.836 357.989 459.693 357.834C459.551 357.68 459.353 357.588 459.143 357.578L424.347 355.813C424.151 355.827 423.967 355.912 423.83 356.052C423.693 356.192 423.612 356.377 423.603 356.573C423.593 356.769 423.656 356.961 423.779 357.114C423.902 357.266 424.077 357.368 424.271 357.4L459.13 359.165C459.34 359.172 459.545 359.096 459.699 358.953C459.854 358.811 459.946 358.613 459.956 358.403H459.905ZM443.49 384.224C443.503 384.12 443.494 384.014 443.465 383.913C443.435 383.812 443.386 383.718 443.32 383.636C443.254 383.554 443.172 383.487 443.079 383.437C442.986 383.388 442.884 383.358 442.78 383.348L416.121 380.72C416.017 380.71 415.913 380.72 415.813 380.75C415.714 380.78 415.621 380.83 415.541 380.896C415.461 380.962 415.394 381.043 415.345 381.135C415.297 381.227 415.267 381.328 415.257 381.431C415.24 381.64 415.304 381.846 415.437 382.008C415.57 382.169 415.76 382.272 415.968 382.295L442.627 384.935H442.703C442.908 384.949 443.11 384.883 443.267 384.75C443.423 384.617 443.522 384.429 443.541 384.224H443.49ZM410.04 397.985C410.216 397.869 410.339 397.687 410.382 397.48C410.425 397.273 410.384 397.058 410.268 396.881L397.091 376.963C396.971 376.791 396.788 376.673 396.582 376.633C396.377 376.592 396.163 376.633 395.987 376.747C395.81 376.863 395.687 377.045 395.645 377.252C395.602 377.459 395.643 377.674 395.758 377.851L408.935 397.769C409.011 397.878 409.111 397.967 409.228 398.029C409.345 398.091 409.476 398.124 409.608 398.125C409.78 398.134 409.95 398.085 410.091 397.985H410.04ZM440.279 404.65C440.275 404.441 440.192 404.241 440.045 404.092C439.899 403.943 439.7 403.857 439.492 403.85L408.148 403.558C407.94 403.558 407.739 403.641 407.592 403.789C407.444 403.936 407.361 404.137 407.361 404.345C407.358 404.45 407.376 404.555 407.414 404.652C407.452 404.75 407.51 404.839 407.583 404.914C407.657 404.989 407.745 405.048 407.842 405.088C407.939 405.127 408.043 405.147 408.148 405.145L439.492 405.437C439.599 405.442 439.706 405.426 439.806 405.389C439.907 405.352 439.999 405.295 440.077 405.221C440.156 405.148 440.218 405.059 440.261 404.961C440.305 404.863 440.328 404.757 440.329 404.65H440.279ZM398.221 451.519C398.284 451.379 403.629 436.653 419.7 433.137C419.907 433.091 420.088 432.966 420.202 432.787C420.316 432.609 420.355 432.392 420.31 432.185C420.259 431.982 420.131 431.807 419.954 431.695C419.776 431.584 419.563 431.546 419.358 431.588C402.41 435.295 396.786 450.846 396.723 450.998C396.658 451.199 396.673 451.417 396.765 451.606C396.858 451.796 397.02 451.942 397.218 452.014H397.472C397.641 452.029 397.81 451.988 397.954 451.899C398.098 451.81 398.21 451.677 398.272 451.519H398.221Z" fill="black"/>
<path d="M422.519 440.779H386.58V448.218H389.716L396.203 488.803H412.896L419.383 448.218H422.519V440.779Z" fill="#F2E205"/>
<path opacity="0.3" d="M422.519 440.779H386.58V448.218H389.716L396.203 488.803H412.896L419.383 448.218H422.519V440.779Z" fill="white"/>
<path d="M98.9551 215.828L57.1513 202.181L53.4318 192.356L44.939 192.089L29.5276 189.169L31.381 192.356L50.7786 206.434L55.5645 208.821L99.2852 231.659L98.9551 215.828Z" fill="white" stroke="#263238" stroke-width="1.00396" stroke-miterlimit="10"/>
<path d="M53.4319 192.356L49.4457 189.969L41.4861 192.889L42.8064 194.476L53.4319 192.356Z" fill="white" stroke="#263238" stroke-width="1.00396" stroke-linejoin="round"/>
<path d="M98.9551 215.828L57.1513 202.181L53.4318 192.356L44.939 192.089L29.5276 189.169L31.381 192.356L50.7786 206.434L55.5645 208.821L99.2852 231.659L98.9551 215.828Z" fill="white"/>
<path opacity="0.5" d="M98.9551 215.828L57.1513 202.181L53.4318 192.356L44.939 192.089L29.5276 189.169L31.381 192.356L50.7786 206.434L55.5645 208.821L99.2852 231.659L98.9551 215.828Z" fill="#F2E205" stroke="#263238" stroke-width="1.00396" stroke-miterlimit="10"/>
<path d="M98.9551 215.828L57.1513 202.181L53.4318 192.356L44.939 192.089L29.5276 189.169L31.381 192.356L50.7786 206.434L55.5645 208.821L99.2852 231.659L98.9551 215.828Z" stroke="#263238" stroke-width="1.00396" stroke-miterlimit="10"/>
<path d="M53.4319 192.356L49.4457 189.969L41.4861 192.889L42.8064 194.476L53.4319 192.356Z" fill="white"/>
<path opacity="0.5" d="M53.4319 192.356L49.4457 189.969L41.4861 192.889L42.8064 194.476L53.4319 192.356Z" fill="#F2E205" stroke="#263238" stroke-width="1.00396" stroke-linejoin="round"/>
<path d="M53.4319 192.356L49.4457 189.969L41.4861 192.889L42.8064 194.476L53.4319 192.356Z" stroke="#263238" stroke-width="1.00396" stroke-linejoin="round"/>
<path d="M107.829 127.257C107.829 127.257 107.181 132.97 108.794 136.638C110.406 140.307 119.356 152.735 119.356 152.735L102.649 166.128C102.649 166.128 95.7179 152.164 94.3977 149.904C93.0774 147.645 91.4906 137.921 95.7941 130.951C100.098 123.982 106.293 122.103 107.829 127.257Z" fill="white"/>
<g style="mix-blend-mode:multiply" opacity="0.5">
<path d="M99.2471 145.614L106.496 160.644L102.637 166.141L95.3498 153.129L99.2471 145.614Z" fill="#F2E205"/>
</g>
<path d="M107.829 127.257C107.829 127.257 107.181 132.97 108.794 136.638C110.406 140.307 119.356 152.735 119.356 152.735L102.649 166.128C102.649 166.128 95.7179 152.164 94.3977 149.904C93.0774 147.645 91.4906 137.921 95.7941 130.951C100.098 123.982 106.293 122.103 107.829 127.257Z" stroke="#263238" stroke-width="1.00396" stroke-miterlimit="10"/>
<path d="M113.008 116.797C111.98 110.449 104.706 97.5387 93.1663 98.0338C85.6764 98.3639 82.1726 99.8745 78.9228 101.715C76.2737 103.276 73.8045 105.124 71.5598 107.225C65.9234 113.991 63.943 115.845 65.0347 121.024C64.9452 123.09 65.2689 125.153 65.9868 127.092C67.7133 131.7 68.8939 134.709 70.3919 136.905C69.9349 139.051 68.7416 144.712 68.6781 146.007C68.6147 147.302 72.4866 146.401 74.4415 145.906C78.0722 154.03 84.7243 159.667 86.7935 160.314C90.3988 161.444 96.0988 155.516 99.1201 150.92C102.141 146.325 99.8564 141.158 99.8691 139.101C99.8818 137.045 106.661 132.525 109.174 131.091C111.688 129.656 114.024 123.131 113.008 116.797Z" fill="white"/>
<g style="mix-blend-mode:multiply" opacity="0.5">
<path d="M65.0856 121.024C64.996 123.09 65.3197 125.153 66.0377 127.092C67.7642 131.7 68.9448 134.709 70.4428 136.905C69.9857 139.051 68.7924 144.712 68.729 146.007C68.6655 147.302 72.5374 146.401 74.4924 145.906C78.1231 154.03 84.7751 159.667 86.8444 160.314C90.4497 161.444 96.1496 155.516 99.1709 150.92C99.9258 149.773 100.416 148.472 100.605 147.112C100.44 146.515 100.326 146.147 100.326 146.147C100.326 146.147 98.6251 152.685 95.2483 151.834C91.8715 150.984 86.7047 144.217 83.823 141.881C80.9413 139.546 82.1219 136.474 81.5507 132.995C80.9794 129.517 72.4485 126.457 71.8773 124.464C71.306 122.471 73.2991 114.22 73.2991 114.22C73.2991 114.22 76.5362 109.903 75.838 111.681C75.3445 113.222 75.1655 114.846 75.3116 116.458C75.4577 118.069 75.926 119.635 76.6886 121.062C77.2237 122.188 78.0726 123.136 79.1333 123.791C80.1939 124.446 81.4213 124.782 82.6678 124.756L85.7653 109.408L79.2275 104L71.6107 107.174C65.9234 113.991 63.9811 115.845 65.0856 121.024Z" fill="#F2E205"/>
</g>
<path d="M113.008 116.797C111.98 110.449 104.706 97.5387 93.1663 98.0338C85.6764 98.3639 82.1726 99.8745 78.9228 101.715C76.2737 103.276 73.8045 105.124 71.5598 107.225C65.9234 113.991 63.943 115.845 65.0347 121.024C64.9452 123.09 65.2689 125.153 65.9868 127.092C67.7133 131.7 68.8939 134.709 70.3919 136.905C69.9349 139.051 68.7416 144.712 68.6781 146.007C68.6147 147.302 72.4866 146.401 74.4415 145.906C78.0722 154.03 84.7243 159.667 86.7935 160.314C90.3988 161.444 96.0988 155.516 99.1201 150.92C102.141 146.325 99.8564 141.158 99.8691 139.101C99.8818 137.045 106.661 132.525 109.174 131.091C111.688 129.656 114.024 123.131 113.008 116.797Z" stroke="#263238" stroke-miterlimit="10"/>
<path d="M71.9661 133.071L73.2355 136.702C73.2355 136.702 75.9649 137.603 79.2909 133.973" stroke="#263238" stroke-miterlimit="10" stroke-linecap="round"/>
<path d="M81.3476 150.031C81.3476 150.031 84.369 149.727 85.5877 145.487" stroke="#263238" stroke-miterlimit="10" stroke-linecap="round"/>
<path d="M69.8462 130.037C69.8462 130.037 70.7475 127.308 76.1936 127.308" stroke="#263238" stroke-miterlimit="10" stroke-linecap="round"/>
<path d="M97.7618 92.9813C93.8045 92.4122 89.8138 92.1069 85.816 92.0673C85.816 92.0673 73.8576 85.174 62.3688 92.5243C50.8801 99.8745 56.4023 112.747 56.4023 115.959C56.4023 119.171 52.7208 119.183 55.0186 123.322C57.3163 127.46 65.0855 125.175 65.0855 125.175C65.1676 123.614 65.5801 122.089 66.2957 120.699C67.0113 119.309 68.0137 118.087 69.2367 117.114C73.3752 113.902 76.6758 113.204 78.0469 114.131C78.0469 114.131 77.1328 121.024 78.5039 123.779C78.5039 123.779 83.0994 126.076 84.4831 126.076C85.8668 126.076 83.5818 128.019 88.1646 129.745C88.9995 130.045 89.8926 130.147 90.7736 130.044C91.6547 129.94 92.4998 129.634 93.2425 129.149C93.9153 126.356 95.3879 122.154 98.1299 123.131C102.154 124.566 105.823 134.468 100.377 137.844C106.927 139.038 114.862 127.448 115.331 116.885C115.801 106.323 104.566 94.1746 97.7618 92.9813Z" fill="#263238"/>
<path d="M78.25 109.599C78.25 109.599 81.6268 107.783 85.7653 111.668C89.9038 115.552 97.9522 120.745 108.616 117.888" stroke="white" stroke-width="0.5" stroke-linecap="round" stroke-linejoin="round"/>
<path d="M77.7803 106.488C77.7803 106.488 80.1034 102.858 83.988 102.858C87.8726 102.858 96.9493 108.304 104.198 108.304" stroke="white" stroke-width="0.5" stroke-linecap="round" stroke-linejoin="round"/>
<path d="M75.1398 113.483C75.1398 113.483 70.7347 108.05 66.5963 112.455C62.4578 116.86 65.0856 121.024 65.0856 121.024" stroke="white" stroke-width="0.5" stroke-linecap="round" stroke-linejoin="round"/>
<path d="M57.5323 117.114C60.0566 114.837 61.6259 111.69 61.9247 108.304C62.4452 102.604 70.227 97.6783 75.1399 102.35" stroke="white" stroke-width="0.5" stroke-linecap="round" stroke-linejoin="round"/>
<path d="M65.5554 96.3835C65.5554 96.3835 73.3372 88.8682 79.8115 98.4528" stroke="white" stroke-width="0.5" stroke-linecap="round" stroke-linejoin="round"/>
<path d="M128.889 465.889C128.889 465.889 133.675 473.328 133.142 478.114L132.622 482.9C132.622 482.9 115.065 487.712 111.345 487.712C107.626 487.712 87.9362 485.845 87.9362 485.845L87.0857 482.469C87.0261 482.219 87.0542 481.957 87.1651 481.726C87.2761 481.495 87.4632 481.309 87.695 481.199L105.252 473.011L110.787 466.956L128.889 465.889Z" fill="white" stroke="#263238" stroke-width="1.00396" stroke-miterlimit="10"/>
<path d="M114.011 483.967C118.772 484.335 127.81 481.428 133.053 479.574L132.685 482.9C132.685 482.9 115.065 487.712 111.345 487.712C107.626 487.712 87.936 485.846 87.936 485.846L87.3267 483.434C90.475 483.446 107.714 483.484 114.011 483.967Z" fill="#F2E205" stroke="#263238" stroke-width="1.00396" stroke-miterlimit="10"/>
<path d="M105.277 473.011L79.7227 484.132C79.7227 484.132 77.5392 489.603 79.7227 490.695C81.9062 491.787 129.511 490.695 129.511 490.695C129.511 490.695 132.799 482.05 127.607 476.248C122.415 470.447 105.277 473.011 105.277 473.011Z" fill="white" stroke="#263238" stroke-width="1.00396" stroke-miterlimit="10"/>
<path d="M129.511 490.695C129.511 490.695 81.9061 491.787 79.7226 490.695C78.669 490.162 78.6309 488.626 78.8721 487.166H130.349C130.181 488.366 129.901 489.547 129.511 490.695Z" fill="#F2E205" stroke="#263238" stroke-width="1.00396" stroke-miterlimit="10"/>
<path d="M93.1917 279.784C93.1917 279.784 86.5142 309.376 83.988 327.885C81.4617 346.394 79.9765 383.475 80.5096 387.728C81.0428 391.98 107.626 463.236 107.626 463.236L110.279 469.583L128.889 465.864C128.889 465.864 120.384 438.748 117.197 423.857C114.011 408.966 107.042 384.503 107.042 380.251C107.042 375.998 123.545 294.777 124.725 289.445C125.906 284.113 131.263 275.925 131.263 275.925L95.6291 275.202L93.1917 279.784Z" fill="#F2E205" stroke="#263238" stroke-width="1.00396" stroke-miterlimit="10"/>
<path d="M93.1918 279.784C93.1918 279.784 89.2818 306.811 90.8941 325.6C92.5063 344.388 95.972 384.389 95.972 390.343C95.972 396.297 105.582 431.855 106.128 443.026C106.978 459.161 105.785 467.146 105.785 467.146L105.214 472.998C105.214 472.998 116.423 474.598 118.873 475.296C121.703 476.025 124.623 476.342 127.544 476.235C127.544 476.235 131.619 458.298 131.619 443.013C131.619 427.729 128.229 396.271 126.541 383.526C124.852 370.78 130.172 321.614 133.193 312.435C136.214 303.257 142.816 283.821 138.372 273.894C133.929 263.967 93.1918 279.784 93.1918 279.784Z" fill="#F2E205" stroke="#263238" stroke-width="1.00396" stroke-miterlimit="10"/>
<path d="M143.31 268.918L142.904 281.003C142.904 281.003 135.668 282.438 125.919 284.126C117.87 285.522 97.6602 283.758 90.8558 283.098C90.2358 283.043 89.6625 282.745 89.2607 282.27C88.8589 281.794 88.6611 281.179 88.7104 280.559L89.3705 269.641L143.31 268.918Z" fill="#263238"/>
<path d="M115.027 148.445C115.027 148.445 103.601 160.797 99.2979 168.477C94.9944 176.157 93.2933 187.925 91.6811 197.192C90.0689 206.46 94.4359 228.218 93.2045 238.209L89.3072 269.679C89.3072 269.679 88.4693 271.812 91.2749 274.148C94.0804 276.484 107.778 277.334 120.155 277.956C124.675 278.185 138.169 275.278 140.378 275.138C143.044 274.973 143.133 271.584 143.247 268.918C143.78 256.388 146.04 222.988 147.525 208.44C150.585 178.772 133.84 150.133 115.027 148.445Z" fill="white" stroke="#263238" stroke-width="1.00396" stroke-miterlimit="10"/>
<g style="mix-blend-mode:multiply">
<path d="M146.129 225.311C146.637 218.723 147.144 212.743 147.589 208.44C147.716 207.17 147.792 205.901 147.855 204.632L117.502 209.709L91.4272 200.823C91.43 206.219 91.7352 211.61 92.3412 216.971L117.921 224.131L146.129 225.311Z" fill="#F2E205"/>
</g>
<g style="mix-blend-mode:multiply">
<path d="M113.897 149.689C112.17 151.606 108.743 155.503 105.48 159.641L124.751 179.229L131.098 176.69L113.897 149.689Z" fill="#F2E205"/>
</g>
<path d="M115.027 148.445C115.027 148.445 103.601 160.797 99.2979 168.477C98.0218 170.811 96.9881 173.27 96.213 175.814L119.191 149.27C117.833 148.859 116.438 148.582 115.027 148.445Z" fill="#263238"/>
<g style="mix-blend-mode:multiply">
<path d="M92.5696 192.191L117.502 200.391L147.779 196.913C147.305 189.371 145.629 181.953 142.815 174.938L118.403 184.726L96.5812 174.837C94.7968 180.509 93.4556 186.311 92.5696 192.191Z" fill="#F2E205"/>
</g>
<g style="mix-blend-mode:multiply">
<path d="M135.491 256.388C122.845 258.511 109.87 257.451 97.7365 253.303L91.6557 251.221L89.7642 266.455L96.6955 268.397C109.872 272.081 123.644 273.142 137.23 271.52L142.828 270.847C143.12 270.23 143.284 269.561 143.311 268.88C143.463 265.49 143.73 260.565 144.072 254.915L135.491 256.388Z" fill="#F2E205"/>
</g>
<g style="mix-blend-mode:multiply">
<path d="M138.88 235.645C126.234 237.776 113.256 236.712 101.126 232.547L93.3823 229.894C93.5743 232.66 93.5361 235.437 93.268 238.196L92.3667 245.521L100.085 247.679C113.257 251.367 127.024 252.433 140.607 250.815L144.415 250.358C144.732 245.28 145.101 239.872 145.494 234.528L138.88 235.645Z" fill="#F2E205"/>
</g>
<path d="M19.7796 181.961L44.3253 201.697L45.3833 200.381L20.8376 180.645L19.7796 181.961Z" fill="#263238"/>
<path d="M126.845 162.142C126.845 162.142 135.846 168.274 136.049 182.758C136.138 189.106 135.478 195.034 134.018 205.431C132.558 215.828 123.494 249.685 116.436 253.798C109.377 257.911 98.4219 250.142 98.4219 250.142L45.4341 214.965L32.6251 204.619L26.2777 192.635L28.2708 188.827L43.898 200.81L35.4814 193.029L37.1317 190.934L40.1785 193.054L49.0648 196.38L51.0071 209.075L53.7492 210.954L104.439 229.475C104.439 229.475 103.805 202.194 104.274 196.977C104.744 191.759 105.391 178.645 110.977 169.137" fill="white"/>
<g style="mix-blend-mode:multiply" opacity="0.5">
<path d="M104.084 208.859C104.084 218.278 104.401 229.475 104.401 229.475L53.7619 211.03L51.0199 209.151L49.0776 196.456L40.1913 193.13L37.1572 190.972L35.5069 193.067L43.8981 200.81L28.2709 188.827L26.3794 192.571L32.7268 204.555L45.5358 214.965L48.7602 217.11L118.772 239.669L104.084 208.859Z" fill="#F2E205"/>
</g>
<path d="M126.845 162.142C126.845 162.142 135.846 168.274 136.049 182.758C136.138 189.106 135.478 195.034 134.018 205.431C132.558 215.828 123.494 249.685 116.436 253.798C109.377 257.911 98.4219 250.142 98.4219 250.142L45.4341 214.965L32.6251 204.619L26.2777 192.635L28.2708 188.827L43.898 200.81L35.4814 193.029L37.1317 190.934L40.1785 193.054L49.0648 196.38L51.0071 209.075L53.7492 210.954L104.439 229.475C104.439 229.475 103.805 202.194 104.274 196.977C104.744 191.759 105.391 178.645 110.977 169.137" stroke="#263238" stroke-width="1.00396" stroke-miterlimit="10"/>
<path d="M104.439 229.475L123.786 243.439L128.8 234.553C128.8 234.553 132.266 231.824 132.774 229.767C133.282 227.711 132.634 224.372 133.155 222.315C133.675 220.259 136.265 218.329 136.506 213.353C136.747 208.376 136.506 204.225 136.506 204.225C136.506 204.225 140.695 186.998 140.238 179.509C139.781 172.019 132.558 158.778 126.769 158.486C120.981 158.194 113.453 159.07 107.613 167.906C101.773 176.741 102.967 202.537 102.053 204.149C101.139 205.761 102.408 213.721 102.408 213.721C101.901 214.099 101.48 214.581 101.173 215.135C100.867 215.689 100.682 216.302 100.631 216.933C100.529 219.002 102.764 224.093 102.764 224.093L104.439 229.475Z" fill="white" stroke="#263238" stroke-width="1.00396" stroke-miterlimit="10"/>
<g style="mix-blend-mode:multiply">
<path d="M102.561 197.522C102.6 199.738 102.435 201.952 102.065 204.136C101.253 205.584 102.18 212.121 102.383 213.454C113.264 216.834 124.771 217.702 136.037 215.993C136.279 215.11 136.423 214.204 136.468 213.289C136.722 208.326 136.468 204.162 136.468 204.162C136.468 204.162 136.836 202.626 137.344 200.29C125.677 201.032 113.964 200.1 102.561 197.522Z" fill="#F2E205"/>
</g>
<g style="mix-blend-mode:multiply">
<path d="M106.826 169.315C105.011 172.958 103.995 178.43 103.411 183.977C114.935 188.375 127.361 189.888 139.604 188.382C140.092 185.446 140.309 182.472 140.251 179.496C140.031 177.144 139.476 174.835 138.601 172.641C127.911 172.89 117.233 171.773 106.826 169.315Z" fill="#F2E205"/>
</g>
<path d="M102.764 224.232L104.401 229.475L123.748 243.439L128.762 234.553C128.762 234.553 132.228 231.824 132.736 229.767C132.826 229.409 132.882 229.044 132.901 228.675C122.706 228.499 112.576 227.006 102.764 224.232Z" fill="#263238"/>
<path d="M116.766 475.131C116.766 475.131 117.197 464.137 119.305 448.066C121.412 431.994 116.347 409.169 115.496 405.361C114.646 401.552 115.928 393.098 115.077 390.127C114.227 387.157 110.114 374.487 112.539 359.787C114.963 345.086 116.931 306.228 116.931 306.228C116.931 306.228 110.825 301.264 109.035 294.802C107.245 288.341 108.616 286.31 108.616 286.31" stroke="#263238" stroke-width="1.00396" stroke-miterlimit="10"/>
<path d="M119.597 286.906L117.248 299.906" stroke="#263238" stroke-width="1.00396" stroke-miterlimit="10"/>
</svg>
