<svg width="521" height="500" viewBox="0 0 521 500" fill="none" xmlns="http://www.w3.org/2000/svg">
<path d="M338.712 41.2314L118.72 65.7131L152.753 371.532L372.745 347.05L338.712 41.2314Z" fill="white" stroke="#263238" stroke-linecap="round" stroke-linejoin="round"/>
<path d="M338.711 41.2329L118.72 65.7144L123.428 108.028L343.42 83.5463L338.711 41.2329Z" fill="#BFBFBF" stroke="#263238" stroke-linecap="round" stroke-linejoin="round"/>
<path d="M277.588 60.7288L182.619 71.2935C182.178 71.3155 181.746 71.4272 181.349 71.6218C180.953 71.8165 180.6 72.09 180.312 72.4256C180.025 72.7611 179.809 73.1518 179.678 73.5737C179.546 73.9956 179.502 74.4398 179.548 74.8792C179.594 75.3187 179.73 75.7441 179.946 76.1295C180.162 76.515 180.454 76.8523 180.805 77.1209C181.156 77.3896 181.558 77.5839 181.986 77.692C182.414 77.8001 182.86 77.8197 183.297 77.7497L278.266 67.185C279.097 67.0593 279.847 66.6168 280.358 65.9501C280.87 65.2835 281.103 64.4446 281.01 63.6094C280.917 62.7743 280.503 62.0078 279.857 61.4707C279.211 60.9336 278.381 60.6677 277.543 60.7288H277.588Z" fill="white"/>
<path d="M255.319 76.6215L207.846 81.9038C207.634 81.9248 207.428 81.9879 207.241 82.0894C207.054 82.1908 206.888 82.3286 206.755 82.4946C206.621 82.6607 206.522 82.8517 206.464 83.0564C206.405 83.2612 206.387 83.4756 206.412 83.6872C206.458 84.115 206.671 84.5073 207.006 84.7781C207.34 85.0489 207.768 85.1761 208.196 85.1319L255.68 79.8496C256.096 79.7867 256.471 79.5655 256.727 79.2321C256.982 78.8988 257.099 78.4794 257.053 78.0618C257.006 77.6442 256.799 77.261 256.476 76.9924C256.153 76.7239 255.738 76.5909 255.319 76.6215Z" fill="white"/>
<path opacity="0.3" d="M290.806 113.214L166.366 127.052C166.047 127.087 165.756 127.249 165.556 127.499C165.356 127.75 165.264 128.07 165.299 128.389C165.335 128.708 165.497 128.999 165.747 129.199C165.998 129.399 166.318 129.492 166.637 129.456L291.043 115.618C291.361 115.582 291.653 115.421 291.853 115.17C292.053 114.919 292.145 114.599 292.109 114.28C292.073 113.961 291.912 113.67 291.661 113.47C291.41 113.27 291.09 113.178 290.772 113.214H290.806Z" fill="black"/>
<path opacity="0.3" d="M291.765 121.848L148.691 137.763C148.372 137.799 148.08 137.96 147.88 138.211C147.68 138.461 147.588 138.781 147.624 139.1C147.66 139.419 147.821 139.711 148.072 139.911C148.323 140.111 148.643 140.203 148.962 140.167L292.036 124.252C292.199 124.242 292.358 124.2 292.504 124.127C292.65 124.054 292.779 123.952 292.885 123.827C292.99 123.703 293.069 123.558 293.118 123.403C293.166 123.247 293.182 123.083 293.165 122.92C293.147 122.756 293.096 122.598 293.015 122.454C292.934 122.311 292.825 122.185 292.694 122.085C292.563 121.985 292.413 121.912 292.254 121.871C292.094 121.831 291.928 121.823 291.765 121.848Z" fill="black"/>
<path opacity="0.3" d="M255.387 134.636L149.65 146.397C149.331 146.433 149.04 146.595 148.84 146.845C148.64 147.096 148.547 147.416 148.583 147.735C148.619 148.054 148.78 148.345 149.031 148.545C149.282 148.745 149.602 148.838 149.921 148.802L255.646 137.041C255.809 137.031 255.969 136.988 256.114 136.915C256.26 136.842 256.39 136.74 256.495 136.616C256.601 136.491 256.68 136.347 256.728 136.191C256.776 136.035 256.792 135.871 256.775 135.709C256.757 135.546 256.707 135.389 256.626 135.246C256.546 135.103 256.438 134.978 256.309 134.878C256.179 134.778 256.031 134.705 255.872 134.663C255.714 134.622 255.549 134.613 255.387 134.636Z" fill="black"/>
<path opacity="0.3" d="M322.356 108.628L309.736 110.032C308.039 110.221 306.816 111.75 307.005 113.448L308.409 126.068C308.598 127.765 310.127 128.988 311.825 128.799L324.445 127.395C326.142 127.206 327.365 125.677 327.176 123.979L325.772 111.359C325.583 109.662 324.054 108.439 322.356 108.628Z" stroke="#263238" stroke-linecap="round" stroke-linejoin="round"/>
<path d="M311.98 118.326L316.134 122.243L321.597 113.879" stroke="#F2E205" stroke-width="3" stroke-linecap="round" stroke-linejoin="round"/>
<path opacity="0.3" d="M295.354 154.118L170.949 167.956C170.63 167.992 170.338 168.153 170.138 168.404C169.938 168.655 169.846 168.975 169.882 169.293C169.918 169.612 170.079 169.904 170.33 170.104C170.581 170.304 170.901 170.396 171.22 170.36L295.625 156.522C295.783 156.504 295.936 156.456 296.075 156.379C296.214 156.302 296.336 156.198 296.435 156.074C296.534 155.95 296.608 155.808 296.652 155.655C296.696 155.502 296.709 155.342 296.692 155.185C296.674 155.027 296.625 154.874 296.548 154.735C296.471 154.596 296.368 154.473 296.244 154.374C296.12 154.275 295.977 154.202 295.824 154.158C295.672 154.114 295.512 154.1 295.354 154.118Z" fill="black"/>
<path opacity="0.3" d="M296.314 162.753L153.239 178.667C153.081 178.685 152.929 178.734 152.79 178.811C152.651 178.888 152.528 178.991 152.429 179.115C152.33 179.239 152.256 179.382 152.212 179.535C152.168 179.687 152.155 179.847 152.173 180.005C152.19 180.163 152.239 180.316 152.316 180.455C152.393 180.594 152.496 180.716 152.621 180.815C152.745 180.914 152.887 180.988 153.04 181.032C153.193 181.076 153.352 181.089 153.51 181.072L296.584 165.157C296.903 165.121 297.195 164.96 297.395 164.709C297.595 164.458 297.687 164.138 297.651 163.819C297.615 163.501 297.454 163.209 297.203 163.009C296.952 162.809 296.632 162.717 296.314 162.753Z" fill="black"/>
<path opacity="0.3" d="M259.936 175.541L154.199 187.302C153.88 187.338 153.588 187.499 153.388 187.75C153.188 188 153.096 188.32 153.132 188.639C153.168 188.958 153.329 189.25 153.58 189.45C153.831 189.65 154.151 189.742 154.47 189.706L260.195 177.945C260.358 177.935 260.517 177.892 260.663 177.819C260.809 177.746 260.939 177.645 261.044 177.52C261.15 177.396 261.229 177.251 261.277 177.095C261.325 176.939 261.341 176.775 261.324 176.613C261.306 176.45 261.255 176.293 261.175 176.15C261.095 176.007 260.987 175.882 260.857 175.782C260.728 175.682 260.579 175.609 260.421 175.568C260.263 175.526 260.097 175.517 259.936 175.541Z" fill="black"/>
<path opacity="0.3" d="M326.909 149.523L314.289 150.927C312.591 151.116 311.368 152.645 311.557 154.343L312.962 166.963C313.151 168.66 314.68 169.883 316.377 169.694L328.997 168.29C330.695 168.101 331.918 166.572 331.729 164.874L330.325 152.254C330.136 150.557 328.606 149.334 326.909 149.523Z" stroke="#263238" stroke-linecap="round" stroke-linejoin="round"/>
<path d="M316.54 159.231L320.682 163.148L326.145 154.784" stroke="#F2E205" stroke-width="3" stroke-linecap="round" stroke-linejoin="round"/>
<path opacity="0.3" d="M299.903 195.022L175.497 208.86C175.199 208.917 174.933 209.085 174.753 209.33C174.573 209.575 174.492 209.879 174.526 210.182C174.56 210.484 174.707 210.762 174.937 210.96C175.168 211.159 175.464 211.263 175.768 211.253L300.174 197.392C300.332 197.374 300.484 197.326 300.623 197.249C300.762 197.172 300.885 197.069 300.984 196.944C301.083 196.82 301.157 196.678 301.201 196.525C301.245 196.372 301.258 196.213 301.24 196.055C301.223 195.897 301.174 195.744 301.097 195.605C301.02 195.466 300.917 195.343 300.793 195.244C300.668 195.145 300.526 195.072 300.373 195.028C300.221 194.984 300.061 194.97 299.903 194.988V195.022Z" fill="black"/>
<path opacity="0.3" d="M300.874 203.657L157.788 219.571C157.63 219.587 157.476 219.634 157.337 219.71C157.197 219.785 157.074 219.888 156.975 220.013C156.876 220.137 156.803 220.28 156.761 220.433C156.718 220.586 156.707 220.746 156.727 220.903C156.744 221.061 156.792 221.214 156.868 221.354C156.944 221.493 157.047 221.616 157.17 221.716C157.294 221.815 157.436 221.89 157.589 221.934C157.741 221.979 157.901 221.993 158.059 221.976L301.133 206.061C301.297 206.05 301.456 206.006 301.602 205.931C301.748 205.857 301.877 205.754 301.983 205.629C302.088 205.504 302.167 205.358 302.215 205.202C302.263 205.045 302.279 204.881 302.262 204.718C302.244 204.555 302.193 204.398 302.113 204.256C302.033 204.114 301.924 203.989 301.795 203.89C301.665 203.791 301.516 203.719 301.358 203.679C301.2 203.639 301.035 203.631 300.874 203.657Z" fill="black"/>
<path opacity="0.3" d="M264.484 216.445L158.747 228.206C158.429 228.242 158.137 228.403 157.937 228.654C157.737 228.905 157.645 229.225 157.681 229.544C157.717 229.862 157.878 230.154 158.129 230.354C158.379 230.554 158.699 230.646 159.018 230.61L264.744 218.838C265.063 218.803 265.355 218.644 265.556 218.394C265.757 218.144 265.85 217.825 265.816 217.506C265.782 217.187 265.622 216.895 265.372 216.694C265.122 216.493 264.803 216.399 264.484 216.434V216.445Z" fill="black"/>
<path opacity="0.3" d="M331.46 190.418L318.84 191.822C317.143 192.011 315.92 193.54 316.109 195.238L317.513 207.858C317.702 209.555 319.231 210.778 320.929 210.589L333.549 209.185C335.246 208.996 336.469 207.467 336.28 205.769L334.876 193.149C334.687 191.452 333.158 190.229 331.46 190.418Z" stroke="#263238" stroke-linecap="round" stroke-linejoin="round"/>
<path d="M321.089 200.135L325.231 204.052L330.705 195.677" stroke="#F2E205" stroke-width="3" stroke-linecap="round" stroke-linejoin="round"/>
<path opacity="0.3" d="M304.452 235.926L180.046 249.764C179.747 249.822 179.482 249.99 179.301 250.235C179.121 250.48 179.04 250.784 179.075 251.086C179.109 251.388 179.256 251.666 179.486 251.865C179.716 252.063 180.013 252.168 180.317 252.157L304.722 238.319C304.889 238.313 305.052 238.273 305.202 238.201C305.352 238.129 305.486 238.027 305.595 237.901C305.704 237.775 305.785 237.627 305.834 237.468C305.883 237.309 305.899 237.142 305.88 236.976C305.861 236.811 305.809 236.651 305.725 236.507C305.642 236.363 305.53 236.237 305.395 236.139C305.261 236.04 305.108 235.97 304.946 235.934C304.783 235.897 304.615 235.895 304.452 235.926Z" fill="black"/>
<path opacity="0.3" d="M305.422 244.56L162.337 260.475C162.179 260.491 162.025 260.537 161.886 260.613C161.746 260.689 161.623 260.792 161.524 260.916C161.425 261.041 161.352 261.184 161.309 261.337C161.267 261.49 161.255 261.65 161.276 261.807C161.293 261.965 161.34 262.118 161.417 262.257C161.493 262.397 161.595 262.52 161.719 262.619C161.843 262.719 161.985 262.793 162.137 262.838C162.29 262.882 162.45 262.897 162.608 262.879L305.682 246.965C306.002 246.928 306.294 246.766 306.495 246.514C306.696 246.263 306.789 245.942 306.754 245.621C306.717 245.305 306.557 245.015 306.307 244.816C306.057 244.618 305.739 244.526 305.422 244.56Z" fill="black"/>
<path opacity="0.3" d="M269.078 257.349L163.341 269.11C163.183 269.126 163.03 269.173 162.89 269.248C162.75 269.324 162.628 269.427 162.529 269.551C162.43 269.676 162.357 269.819 162.314 269.972C162.271 270.125 162.26 270.285 162.28 270.442C162.297 270.6 162.345 270.753 162.421 270.892C162.497 271.032 162.6 271.155 162.724 271.255C162.847 271.354 162.99 271.428 163.142 271.473C163.294 271.518 163.454 271.532 163.612 271.514L269.338 259.753C269.496 259.736 269.649 259.689 269.788 259.612C269.927 259.536 270.05 259.434 270.15 259.31C270.25 259.186 270.324 259.044 270.368 258.891C270.413 258.739 270.427 258.579 270.41 258.421C270.394 258.263 270.348 258.109 270.272 257.969C270.196 257.829 270.093 257.705 269.969 257.605C269.845 257.505 269.703 257.431 269.549 257.387C269.396 257.343 269.236 257.33 269.078 257.349Z" fill="black"/>
<path opacity="0.3" d="M336.013 231.324L323.393 232.728C321.695 232.917 320.472 234.446 320.661 236.144L322.066 248.764C322.254 250.462 323.784 251.685 325.481 251.496L338.101 250.091C339.799 249.902 341.022 248.373 340.833 246.675L339.429 234.055C339.24 232.358 337.71 231.135 336.013 231.324Z" stroke="#263238" stroke-linecap="round" stroke-linejoin="round"/>
<path d="M325.637 241.028L329.78 244.945L335.254 236.581" stroke="#F2E205" stroke-width="3" stroke-linecap="round" stroke-linejoin="round"/>
<path opacity="0.3" d="M309.011 276.819L184.606 290.657C184.448 290.674 184.295 290.722 184.156 290.798C184.016 290.874 183.894 290.977 183.794 291.101C183.694 291.224 183.62 291.367 183.575 291.519C183.531 291.671 183.517 291.831 183.534 291.989C183.551 292.147 183.599 292.3 183.675 292.439C183.751 292.578 183.854 292.701 183.978 292.801C184.101 292.9 184.243 292.975 184.396 293.019C184.548 293.064 184.708 293.078 184.866 293.061L309.271 279.223C309.429 279.206 309.582 279.158 309.721 279.082C309.861 279.006 309.984 278.903 310.083 278.78C310.183 278.656 310.257 278.514 310.302 278.361C310.346 278.209 310.361 278.049 310.343 277.891C310.306 277.574 310.146 277.283 309.897 277.082C309.648 276.882 309.33 276.787 309.011 276.819Z" fill="black"/>
<path opacity="0.3" d="M309.971 285.431L166.885 301.346C166.719 301.352 166.556 301.392 166.405 301.464C166.255 301.536 166.122 301.638 166.013 301.764C165.904 301.891 165.823 302.038 165.774 302.197C165.725 302.356 165.709 302.523 165.728 302.689C165.746 302.854 165.799 303.014 165.882 303.158C165.966 303.302 166.078 303.428 166.212 303.526C166.347 303.625 166.5 303.695 166.662 303.731C166.824 303.768 166.993 303.77 167.156 303.739L310.231 287.824C310.398 287.82 310.562 287.782 310.713 287.711C310.865 287.64 311 287.538 311.11 287.413C311.22 287.287 311.303 287.14 311.353 286.98C311.404 286.821 311.42 286.653 311.402 286.487C311.384 286.32 311.332 286.16 311.249 286.015C311.165 285.87 311.053 285.744 310.918 285.645C310.784 285.546 310.63 285.475 310.467 285.439C310.304 285.402 310.135 285.399 309.971 285.431Z" fill="black"/>
<path opacity="0.3" d="M273.593 298.253L167.856 310.014C167.537 310.05 167.246 310.211 167.046 310.462C166.846 310.713 166.753 311.033 166.789 311.352C166.825 311.671 166.986 311.962 167.237 312.162C167.488 312.362 167.808 312.454 168.127 312.418L273.864 300.657C274.182 300.618 274.471 300.455 274.67 300.203C274.868 299.952 274.96 299.632 274.925 299.314C274.908 299.157 274.86 299.004 274.784 298.865C274.707 298.726 274.604 298.604 274.48 298.505C274.357 298.407 274.214 298.333 274.062 298.29C273.91 298.247 273.75 298.234 273.593 298.253Z" fill="black"/>
<path opacity="0.3" d="M340.565 272.23L327.945 273.635C326.248 273.823 325.025 275.353 325.214 277.05L326.618 289.67C326.807 291.368 328.336 292.591 330.034 292.402L342.654 290.997C344.351 290.808 345.574 289.279 345.386 287.582L343.981 274.962C343.792 273.264 342.263 272.041 340.565 272.23Z" stroke="#263238" stroke-linecap="round" stroke-linejoin="round"/>
<path d="M330.186 281.932L334.328 285.849L339.802 277.485" stroke="#F2E205" stroke-width="3" stroke-linecap="round" stroke-linejoin="round"/>
<path opacity="0.3" d="M312.477 308.005L188.071 321.865C187.752 321.901 187.461 322.062 187.261 322.313C187.061 322.564 186.969 322.884 187.004 323.203C187.04 323.522 187.201 323.813 187.452 324.013C187.703 324.213 188.023 324.305 188.342 324.27L312.748 310.432C312.906 310.416 313.059 310.369 313.199 310.294C313.338 310.218 313.461 310.115 313.56 309.99C313.659 309.866 313.732 309.723 313.775 309.57C313.817 309.417 313.829 309.257 313.808 309.1C313.794 308.94 313.749 308.784 313.674 308.642C313.599 308.5 313.496 308.375 313.372 308.273C313.248 308.171 313.105 308.095 312.951 308.049C312.798 308.003 312.636 307.988 312.477 308.005Z" fill="black"/>
<path opacity="0.3" d="M313.436 316.674L170.362 332.588C170.195 332.592 170.03 332.631 169.879 332.702C169.727 332.773 169.592 332.874 169.482 333C169.372 333.126 169.289 333.273 169.239 333.432C169.189 333.592 169.172 333.76 169.19 333.926C169.208 334.092 169.26 334.253 169.344 334.398C169.427 334.543 169.539 334.669 169.674 334.768C169.809 334.867 169.962 334.937 170.125 334.974C170.288 335.011 170.457 335.013 170.621 334.981L313.707 319.066C314.005 319.009 314.271 318.841 314.451 318.596C314.632 318.351 314.713 318.047 314.678 317.745C314.644 317.443 314.497 317.164 314.267 316.966C314.037 316.767 313.74 316.663 313.436 316.674Z" fill="black"/>
<path opacity="0.3" d="M277.047 329.45L171.321 341.212C171.163 341.228 171.01 341.276 170.871 341.352C170.731 341.428 170.608 341.531 170.509 341.655C170.409 341.779 170.335 341.921 170.29 342.073C170.246 342.226 170.232 342.386 170.249 342.543C170.286 342.863 170.448 343.156 170.699 343.357C170.951 343.557 171.272 343.651 171.592 343.616L277.317 331.855C277.475 331.837 277.628 331.788 277.767 331.711C277.906 331.634 278.029 331.531 278.128 331.407C278.227 331.283 278.3 331.14 278.344 330.987C278.388 330.835 278.402 330.675 278.384 330.517C278.366 330.359 278.318 330.206 278.241 330.067C278.164 329.928 278.06 329.806 277.936 329.707C277.812 329.608 277.67 329.534 277.517 329.49C277.364 329.446 277.204 329.433 277.047 329.45Z" fill="black"/>
<path opacity="0.3" d="M344.041 303.427L331.421 304.832C329.723 305.021 328.5 306.55 328.689 308.247L330.094 320.867C330.283 322.565 331.812 323.788 333.509 323.599L346.129 322.195C347.827 322.006 349.05 320.476 348.861 318.779L347.457 306.159C347.268 304.461 345.738 303.238 344.041 303.427Z" stroke="#263238" stroke-linecap="round" stroke-linejoin="round"/>
<path d="M333.651 313.141L337.793 317.058L343.268 308.694" stroke="#F2E205" stroke-width="3" stroke-linecap="round" stroke-linejoin="round"/>
<path d="M209.042 228.172C209.151 226.875 208.83 225.578 208.128 224.481L206.74 222.021L203.986 223.578L205.487 226.219C206.232 227.54 205.927 228.353 205.002 228.872C204.076 229.391 203.218 229.255 202.473 227.935L199.257 222.224L195.803 222.901L199.482 229.391C201.164 232.359 203.602 233.206 206.458 231.648C206.912 231.388 207.332 231.073 207.711 230.712C207.55 230.34 207.522 229.924 207.631 229.534C207.74 229.143 207.979 228.802 208.309 228.567C208.53 228.396 208.778 228.263 209.042 228.172Z" fill="#F2E205"/>
<path d="M194.031 219.774L194.685 220.903H198.489L196.83 217.968C196.085 216.648 196.378 215.812 197.304 215.293C198.229 214.774 199.099 214.932 199.843 216.264L200.972 218.239L203.715 216.681L202.699 214.887C201.017 211.93 198.579 211.072 195.724 212.697C195.068 213.051 194.486 213.526 194.008 214.097C194.657 214.305 195.336 214.401 196.017 214.379L193.308 215.395C193.11 216.134 193.072 216.907 193.196 217.663C193.321 218.418 193.605 219.138 194.031 219.774Z" fill="#F2E205"/>
<path d="M215.126 207.742C215.488 207.561 215.866 207.414 216.255 207.302C217.711 206.647 218.038 204.548 217.914 203.069L216.413 201.207L212.372 203.464L214.9 207.912C214.966 207.844 215.043 207.787 215.126 207.742Z" fill="#F2E205"/>
<path d="M232.339 216.58L235.082 215.022L224.596 196.534L221.989 198.001C222.824 198.205 223.422 198.6 223.445 199.209C222.632 199.322 221.639 199.209 220.758 199.367L226.041 213.058L219.359 204.729C219.377 204.913 219.349 205.099 219.278 205.27C219.208 205.442 219.096 205.593 218.952 205.711C218.648 205.925 218.207 205.925 217.97 206.207C217.733 206.489 217.767 206.828 217.564 207.076C217.361 207.325 217.045 207.392 216.797 207.573C216.548 207.753 216.277 208.216 215.995 208.521C215.859 208.664 215.688 208.769 215.499 208.826L222.925 221.919L225.454 220.474L218.038 207.404L227.564 219.278L230.318 217.72L224.754 203.352L232.339 216.58Z" fill="#F2E205"/>
<path d="M239.28 200.484C239.481 200.585 239.659 200.724 239.805 200.895C239.95 201.066 240.06 201.264 240.127 201.478C240.364 200.083 240.062 198.65 239.28 197.471L237.915 195.055C236.233 192.098 233.896 191.297 230.984 192.945L226.707 195.371L237.204 213.871L239.924 212.324C239.043 211.771 238.061 211.297 237.226 210.699C236.834 210.449 236.512 210.103 236.289 209.695C236.184 209.488 236.14 209.256 236.164 209.025C236.188 208.795 236.279 208.577 236.425 208.397C236.616 208.235 236.849 208.132 237.097 208.098C237.344 208.064 237.597 208.101 237.824 208.205L236.165 205.27L237.542 204.491C238.299 204.081 238.958 203.511 239.472 202.821C238.897 201.907 237.892 199.965 239.28 200.484ZM236.041 201.907L234.664 202.685L231.109 196.421L232.486 195.642C233.411 195.123 234.156 195.258 234.901 196.579L236.481 199.356C237.226 200.62 236.966 201.331 236.041 201.907Z" fill="#F2E205"/>
<path d="M254.845 203.86L253.355 201.218L248.57 203.927L241.572 191.591L241.256 191.839C241.051 192.028 240.803 192.164 240.533 192.234C240.397 192.265 240.255 192.245 240.132 192.178C240.01 192.112 239.916 192.003 239.867 191.873C239.828 191.698 239.828 191.517 239.867 191.342C239.869 190.292 239.537 189.268 238.919 188.419L236.662 189.728L247.147 208.216L254.845 203.86Z" fill="#F2E205"/>
<path d="M253.536 197.392C253.852 196.568 254.834 196.264 255.387 195.519C255.436 195.442 255.482 195.363 255.522 195.282L254.394 193.385L257.249 191.771C257.197 191.591 257.104 191.425 256.978 191.286C256.569 191.086 256.131 190.949 255.68 190.88C255.611 190.739 255.576 190.584 255.578 190.428C255.581 190.271 255.62 190.117 255.694 189.979C255.768 189.841 255.874 189.723 256.004 189.634C256.133 189.545 256.281 189.488 256.437 189.469C256.628 189.469 256.854 189.469 257.001 189.379C257.104 189.256 257.156 189.098 257.148 188.938L256.888 188.487L252.892 190.744L249.98 185.597L254.992 182.742L253.491 180.101L245.59 184.615L253.355 198.307C253.369 197.994 253.43 197.686 253.536 197.392Z" fill="#F2E205"/>
<path d="M264.044 198.645L262.543 196.004L257.52 198.848L256.019 196.264L254.168 198.002L253.525 198.622L256.121 203.194L264.044 198.645Z" fill="#F2E205"/>
<path d="M260.308 177.166C260.308 177.561 260.026 178.001 259.642 178.035C259.447 178.033 259.253 178.002 259.066 177.945C258.718 177.951 258.369 177.917 258.028 177.843C257.954 177.813 257.886 177.771 257.825 177.719L254.507 179.604L256.008 182.257L259.044 180.53L268.074 196.331L270.974 194.684L261.945 178.882L264.992 177.155L263.491 174.514L260.376 176.274C260.319 176.568 260.342 176.873 260.308 177.166Z" fill="#F2E205"/>
<path d="M272.983 188.362L275.241 192.347L278.288 190.62C278.36 190.42 278.451 190.227 278.559 190.044C279.23 189.064 280.134 188.265 281.189 187.719L282.589 186.85L281.663 185.202L276.64 188.058L273.57 182.64L277.566 180.383L276.065 177.741L272.069 179.999L269.157 174.818L274.18 171.974L272.679 169.333L264.778 173.847L270.478 183.904C271.855 183.17 272.543 185.812 272.983 188.362Z" fill="#F2E205"/>
<path d="M214.528 224.887C215.002 224.966 215.284 225.44 215.657 225.756C215.792 225.881 215.949 225.98 216.119 226.05C216.335 225.964 216.546 225.866 216.751 225.756C219.596 224.142 220.194 221.569 218.524 218.6L218.354 218.307L214.449 218.205L215.724 220.463C216.469 221.783 216.176 222.618 215.25 223.138C214.325 223.657 213.456 223.488 212.711 222.167L207.067 212.178C206.311 210.857 206.616 210.033 207.541 209.503C208.467 208.972 209.325 209.153 210.081 210.474L213.907 217.246C215.082 216.955 216.286 216.803 217.496 216.794L213.083 209.018C211.413 206.06 208.896 205.259 206.04 206.873C203.184 208.487 202.586 211.072 204.268 214.029L209.72 223.646C210.064 224.387 210.579 225.036 211.223 225.54C211.866 226.044 212.62 226.389 213.422 226.546C213.416 226.479 213.416 226.411 213.422 226.343C213.286 225.61 213.828 224.752 214.528 224.887Z" fill="#F2E205"/>
<path d="M253.502 171.804L262.362 166.782C259.823 167.482 257.588 169.603 254.969 169.31C254.496 169.186 253.998 169.186 253.525 169.31C253.229 169.501 253.015 169.796 252.928 170.137C252.84 170.478 252.884 170.84 253.051 171.15C253.165 171.391 253.317 171.612 253.502 171.804Z" fill="#F2E205"/>
<path d="M231.278 184.412C231.258 184.217 231.298 184.02 231.391 183.848C231.608 183.923 231.837 183.962 232.068 183.96L235.127 182.234C235.605 181.692 236.152 181.214 236.752 180.811C237.332 180.501 237.945 180.259 238.581 180.089L239.258 179.886L244.901 176.703C244.961 176.588 245.041 176.484 245.138 176.398C245.226 176.34 245.321 176.295 245.42 176.263L239.596 174.502L238.027 175.382L237.858 176.624L231.142 180.213C230.477 180.628 229.737 180.908 228.964 181.037C228.675 181.071 228.384 181.071 228.095 181.037L218.523 186.466C218.6 186.92 218.728 187.363 218.907 187.787C218.346 187.682 217.812 187.463 217.338 187.143L215.374 188.272C216.774 189.198 218.151 190.146 219.494 191.15L231.278 184.412Z" fill="#F2E205"/>
<path d="M272.25 161.183L267.622 158.587L265.432 159.828C266.723 161.155 268.389 162.054 270.207 162.402L272.25 161.183Z" fill="#F2E205"/>
<path d="M297.138 188.509L279.665 157.707C278.986 156.516 277.862 155.642 276.541 155.276C275.219 154.91 273.806 155.082 272.611 155.754L270.511 156.951L271.313 157.73C272.148 158.565 273.006 159.411 273.785 160.303L274.846 159.705C274.993 159.623 275.166 159.601 275.329 159.646C275.491 159.69 275.63 159.796 275.715 159.942L293.198 190.755C293.28 190.904 293.299 191.078 293.253 191.241C293.206 191.404 293.097 191.541 292.95 191.624L269.168 205.169C271.223 205.293 273.299 205 275.354 205.237C276.094 205.33 276.828 205.462 277.555 205.632L295.185 195.631C295.784 195.295 296.31 194.843 296.733 194.302C297.155 193.76 297.467 193.14 297.648 192.478C297.83 191.816 297.878 191.124 297.791 190.442C297.703 189.761 297.481 189.104 297.138 188.509Z" fill="#F2E205"/>
<path d="M190.069 227.709L181.852 213.194C181.81 213.121 181.782 213.04 181.771 212.956C181.76 212.872 181.766 212.787 181.788 212.705C181.81 212.623 181.848 212.547 181.899 212.479C181.951 212.412 182.015 212.356 182.089 212.314L205.792 198.86C205.713 198.679 205.611 198.499 205.543 198.318C205.878 198.304 206.213 198.342 206.537 198.431L216.119 193.002C215.803 192.9 215.499 192.776 215.194 192.663L210.679 190.869L207.067 192.923L210.995 195.327C209.629 194.492 206.841 194.379 204.437 194.413L179.911 208.375C178.717 209.052 177.841 210.176 177.475 211.498C177.109 212.821 177.283 214.234 177.958 215.429L185.091 228.003C185.419 227.913 185.757 227.834 186.085 227.777C186.989 227.647 187.903 227.602 188.816 227.642C189.235 227.639 189.653 227.661 190.069 227.709Z" fill="#F2E205"/>
<path d="M219.347 233.375C219.75 233.735 220.207 234.029 220.702 234.244C221.21 234.47 221.887 235.012 221.492 235.373C219.663 236.208 217.406 235.587 215.611 236.502C214.629 236.976 213.681 237.912 212.632 237.63C213.901 238.401 215.044 239.364 216.018 240.486L260.839 215.068C260.839 214.887 260.895 214.706 260.929 214.514C260.93 214.159 261.012 213.809 261.169 213.49C261.326 213.171 261.553 212.893 261.834 212.675C262.115 212.457 262.441 212.306 262.789 212.234C263.137 212.162 263.497 212.17 263.841 212.257C264.422 212.231 265.004 212.292 265.568 212.438L271.155 209.266C270.388 207.945 269.48 206.711 268.446 205.586L219.347 233.375Z" fill="#F2E205"/>
<path d="M212.09 240.836C211.009 240.486 210.013 239.913 209.167 239.154L200.227 244.234C200.155 244.276 200.075 244.303 199.992 244.314C199.908 244.325 199.824 244.319 199.743 244.297C199.662 244.275 199.587 244.237 199.52 244.185C199.454 244.134 199.399 244.07 199.358 243.996L191.457 230.147C190.7 229.886 189.895 229.793 189.098 229.876C188.184 230.057 187.383 231.118 187.879 231.897C188.346 231.909 188.801 232.045 189.198 232.291C189.594 232.537 189.918 232.884 190.137 233.296C189.65 233.684 189.115 234.006 188.545 234.256L195.317 246.231C195.654 246.836 196.108 247.368 196.653 247.794C197.197 248.221 197.822 248.535 198.49 248.717C199.158 248.899 199.855 248.945 200.541 248.854C201.227 248.762 201.888 248.535 202.485 248.184L214.201 241.536L214.065 241.457C213.418 241.215 212.759 241.007 212.09 240.836Z" fill="#F2E205"/>
<g opacity="0.2">
<path opacity="0.2" d="M209.042 228.172C209.151 226.875 208.83 225.578 208.128 224.481L206.74 222.021L203.986 223.578L205.487 226.219C206.232 227.54 205.927 228.353 205.002 228.872C204.076 229.391 203.218 229.255 202.473 227.935L199.257 222.224L195.803 222.901L199.482 229.391C201.164 232.359 203.602 233.206 206.458 231.648C206.912 231.388 207.332 231.073 207.711 230.712C207.55 230.34 207.522 229.924 207.631 229.534C207.74 229.143 207.979 228.802 208.309 228.567C208.53 228.396 208.778 228.263 209.042 228.172Z" fill="black"/>
<path opacity="0.2" d="M194.031 219.774L194.685 220.903H198.489L196.83 217.968C196.085 216.648 196.378 215.812 197.304 215.293C198.229 214.774 199.099 214.932 199.843 216.264L200.972 218.239L203.715 216.681L202.699 214.887C201.017 211.93 198.579 211.072 195.724 212.697C195.068 213.051 194.486 213.526 194.008 214.097C194.657 214.305 195.336 214.401 196.017 214.379L193.308 215.395C193.11 216.134 193.072 216.907 193.196 217.663C193.321 218.418 193.605 219.138 194.031 219.774Z" fill="black"/>
<path opacity="0.2" d="M215.126 207.742C215.488 207.561 215.866 207.414 216.255 207.302C217.711 206.647 218.038 204.548 217.914 203.069L216.413 201.207L212.372 203.464L214.9 207.912C214.966 207.844 215.043 207.787 215.126 207.742Z" fill="black"/>
<path opacity="0.2" d="M232.339 216.58L235.082 215.022L224.596 196.534L221.989 198.001C222.824 198.205 223.422 198.6 223.445 199.209C222.632 199.322 221.639 199.209 220.758 199.367L226.041 213.058L219.359 204.729C219.377 204.913 219.349 205.099 219.278 205.27C219.208 205.442 219.096 205.593 218.952 205.711C218.648 205.925 218.207 205.925 217.97 206.207C217.733 206.489 217.767 206.828 217.564 207.076C217.361 207.325 217.045 207.392 216.797 207.573C216.548 207.753 216.277 208.216 215.995 208.521C215.859 208.664 215.688 208.769 215.499 208.826L222.925 221.919L225.454 220.474L218.038 207.404L227.564 219.278L230.318 217.72L224.754 203.352L232.339 216.58Z" fill="black"/>
<path opacity="0.2" d="M239.28 200.484C239.481 200.585 239.659 200.724 239.805 200.895C239.95 201.066 240.06 201.264 240.127 201.478C240.364 200.083 240.062 198.65 239.28 197.471L237.915 195.055C236.233 192.098 233.896 191.297 230.984 192.945L226.707 195.371L237.204 213.871L239.924 212.324C239.043 211.771 238.061 211.297 237.226 210.699C236.834 210.449 236.512 210.103 236.289 209.695C236.184 209.488 236.14 209.256 236.164 209.025C236.188 208.795 236.279 208.577 236.425 208.397C236.616 208.235 236.849 208.132 237.097 208.098C237.344 208.064 237.597 208.101 237.824 208.205L236.165 205.27L237.542 204.491C238.299 204.081 238.958 203.511 239.472 202.821C238.897 201.907 237.892 199.965 239.28 200.484ZM236.041 201.907L234.664 202.685L231.109 196.421L232.486 195.642C233.411 195.123 234.156 195.258 234.901 196.579L236.481 199.356C237.226 200.62 236.966 201.331 236.041 201.907Z" fill="black"/>
<path opacity="0.2" d="M254.845 203.86L253.355 201.218L248.57 203.927L241.572 191.591L241.256 191.839C241.051 192.028 240.803 192.164 240.533 192.234C240.397 192.265 240.255 192.245 240.132 192.178C240.01 192.112 239.916 192.003 239.867 191.873C239.828 191.698 239.828 191.517 239.867 191.342C239.869 190.292 239.537 189.268 238.919 188.419L236.662 189.728L247.147 208.216L254.845 203.86Z" fill="black"/>
<path opacity="0.2" d="M253.536 197.392C253.852 196.568 254.834 196.264 255.387 195.519C255.436 195.442 255.482 195.363 255.522 195.282L254.394 193.385L257.249 191.771C257.197 191.591 257.104 191.425 256.978 191.286C256.569 191.086 256.131 190.949 255.68 190.88C255.611 190.739 255.576 190.584 255.578 190.428C255.581 190.271 255.62 190.117 255.694 189.979C255.768 189.841 255.874 189.723 256.004 189.634C256.133 189.545 256.281 189.488 256.437 189.469C256.628 189.469 256.854 189.469 257.001 189.379C257.104 189.256 257.156 189.098 257.148 188.938L256.888 188.487L252.892 190.744L249.98 185.597L254.992 182.742L253.491 180.101L245.59 184.615L253.355 198.307C253.369 197.994 253.43 197.686 253.536 197.392Z" fill="black"/>
<path opacity="0.2" d="M264.044 198.645L262.543 196.004L257.52 198.848L256.019 196.264L254.168 198.002L253.525 198.622L256.121 203.194L264.044 198.645Z" fill="black"/>
<path opacity="0.2" d="M260.308 177.166C260.308 177.561 260.026 178.001 259.642 178.035C259.447 178.033 259.253 178.002 259.066 177.945C258.718 177.951 258.369 177.917 258.028 177.843C257.954 177.813 257.886 177.771 257.825 177.719L254.507 179.604L256.008 182.257L259.044 180.53L268.074 196.331L270.974 194.684L261.945 178.882L264.992 177.155L263.491 174.514L260.376 176.274C260.319 176.568 260.342 176.873 260.308 177.166Z" fill="black"/>
<path opacity="0.2" d="M272.983 188.362L275.241 192.347L278.288 190.62C278.36 190.42 278.451 190.227 278.559 190.044C279.23 189.064 280.134 188.265 281.189 187.719L282.589 186.85L281.663 185.202L276.64 188.058L273.57 182.64L277.566 180.383L276.065 177.741L272.069 179.999L269.157 174.818L274.18 171.974L272.679 169.333L264.778 173.847L270.478 183.904C271.855 183.17 272.543 185.812 272.983 188.362Z" fill="black"/>
<path opacity="0.2" d="M214.528 224.887C215.002 224.966 215.284 225.44 215.657 225.756C215.792 225.881 215.949 225.98 216.119 226.05C216.335 225.964 216.546 225.866 216.751 225.756C219.596 224.142 220.194 221.569 218.524 218.6L218.354 218.307L214.449 218.205L215.724 220.463C216.469 221.783 216.176 222.618 215.25 223.138C214.325 223.657 213.456 223.488 212.711 222.167L207.067 212.178C206.311 210.857 206.616 210.033 207.541 209.503C208.467 208.972 209.325 209.153 210.081 210.474L213.907 217.246C215.082 216.955 216.286 216.803 217.496 216.794L213.083 209.018C211.413 206.06 208.896 205.259 206.04 206.873C203.184 208.487 202.586 211.072 204.268 214.029L209.72 223.646C210.064 224.387 210.579 225.036 211.223 225.54C211.866 226.044 212.62 226.389 213.422 226.546C213.416 226.479 213.416 226.411 213.422 226.343C213.286 225.61 213.828 224.752 214.528 224.887Z" fill="black"/>
<path opacity="0.2" d="M253.502 171.804L262.362 166.782C259.823 167.482 257.588 169.603 254.969 169.31C254.496 169.186 253.998 169.186 253.525 169.31C253.229 169.501 253.015 169.796 252.928 170.137C252.84 170.478 252.884 170.84 253.051 171.15C253.165 171.391 253.317 171.612 253.502 171.804Z" fill="black"/>
<path opacity="0.2" d="M231.278 184.412C231.258 184.217 231.298 184.02 231.391 183.848C231.608 183.923 231.837 183.962 232.068 183.96L235.127 182.234C235.605 181.692 236.152 181.214 236.752 180.811C237.332 180.501 237.945 180.259 238.581 180.089L239.258 179.886L244.901 176.703C244.961 176.588 245.041 176.484 245.138 176.398C245.226 176.34 245.321 176.295 245.42 176.263L239.596 174.502L238.027 175.382L237.858 176.624L231.142 180.213C230.477 180.628 229.737 180.908 228.964 181.037C228.675 181.071 228.384 181.071 228.095 181.037L218.523 186.466C218.6 186.92 218.728 187.363 218.907 187.787C218.346 187.682 217.812 187.463 217.338 187.143L215.374 188.272C216.774 189.198 218.151 190.146 219.494 191.15L231.278 184.412Z" fill="black"/>
<path opacity="0.2" d="M272.25 161.183L267.622 158.587L265.432 159.828C266.723 161.155 268.389 162.054 270.207 162.402L272.25 161.183Z" fill="black"/>
<path opacity="0.2" d="M297.138 188.509L279.665 157.707C278.986 156.516 277.862 155.642 276.541 155.276C275.219 154.91 273.806 155.082 272.611 155.754L270.511 156.951L271.313 157.73C272.148 158.565 273.006 159.411 273.785 160.303L274.846 159.705C274.993 159.623 275.166 159.601 275.329 159.646C275.491 159.69 275.63 159.796 275.715 159.942L293.198 190.755C293.28 190.904 293.299 191.078 293.253 191.241C293.206 191.404 293.097 191.541 292.95 191.624L269.168 205.169C271.223 205.293 273.299 205 275.354 205.237C276.094 205.33 276.828 205.462 277.555 205.632L295.185 195.631C295.784 195.295 296.31 194.843 296.733 194.302C297.155 193.76 297.467 193.14 297.648 192.478C297.83 191.816 297.878 191.124 297.791 190.442C297.703 189.761 297.481 189.104 297.138 188.509Z" fill="black"/>
<path opacity="0.2" d="M190.069 227.709L181.852 213.194C181.81 213.121 181.782 213.04 181.771 212.956C181.76 212.872 181.766 212.787 181.788 212.705C181.81 212.623 181.848 212.547 181.899 212.479C181.951 212.412 182.015 212.356 182.089 212.314L205.792 198.86C205.713 198.679 205.611 198.499 205.543 198.318C205.878 198.304 206.213 198.342 206.537 198.431L216.119 193.002C215.803 192.9 215.499 192.776 215.194 192.663L210.679 190.869L207.067 192.923L210.995 195.327C209.629 194.492 206.841 194.379 204.437 194.413L179.911 208.375C178.717 209.052 177.841 210.176 177.475 211.498C177.109 212.821 177.283 214.234 177.958 215.429L185.091 228.003C185.419 227.913 185.757 227.834 186.085 227.777C186.989 227.647 187.903 227.602 188.816 227.642C189.235 227.639 189.653 227.661 190.069 227.709Z" fill="black"/>
<path opacity="0.2" d="M219.347 233.375C219.75 233.735 220.207 234.029 220.702 234.244C221.21 234.47 221.887 235.012 221.492 235.373C219.663 236.208 217.406 235.587 215.611 236.502C214.629 236.976 213.681 237.912 212.632 237.63C213.901 238.401 215.044 239.364 216.018 240.486L260.839 215.068C260.839 214.887 260.895 214.706 260.929 214.514C260.93 214.159 261.012 213.809 261.169 213.49C261.326 213.171 261.553 212.893 261.834 212.675C262.115 212.457 262.441 212.306 262.789 212.234C263.137 212.162 263.497 212.17 263.841 212.257C264.422 212.231 265.004 212.292 265.568 212.438L271.155 209.266C270.388 207.945 269.48 206.711 268.446 205.586L219.347 233.375Z" fill="black"/>
<path opacity="0.2" d="M212.09 240.836C211.009 240.486 210.013 239.913 209.167 239.154L200.227 244.234C200.155 244.276 200.075 244.303 199.992 244.314C199.908 244.325 199.824 244.319 199.743 244.297C199.662 244.275 199.587 244.237 199.52 244.185C199.454 244.134 199.399 244.07 199.358 243.996L191.457 230.147C190.7 229.886 189.895 229.793 189.098 229.876C188.184 230.057 187.383 231.118 187.879 231.897C188.346 231.909 188.801 232.045 189.198 232.291C189.594 232.537 189.918 232.884 190.137 233.296C189.65 233.684 189.115 234.006 188.545 234.256L195.317 246.231C195.654 246.836 196.108 247.368 196.653 247.794C197.197 248.221 197.822 248.535 198.49 248.717C199.158 248.899 199.855 248.945 200.541 248.854C201.227 248.762 201.888 248.535 202.485 248.184L214.201 241.536L214.065 241.457C213.418 241.215 212.759 241.007 212.09 240.836Z" fill="black"/>
</g>
<path opacity="0.3" d="M161.264 200.53C168.149 205.587 173.906 229.877 174.425 252.146C174.944 274.415 185.712 311.967 186.999 318.118C188.286 324.27 187.811 333.141 195.803 320.793C203.794 308.445 227.169 287.011 236.91 294.134C246.651 301.256 230.251 325.195 221.368 338.085C212.485 350.975 211.582 373.673 200.938 387.884C190.295 402.094 180.678 423.551 170.249 423.223C159.82 422.896 90.7431 474.139 90.7431 474.139L92.0975 404.001L154.176 302.418L161.264 200.53Z" fill="black" fill-opacity="0.7"/>
<path d="M242.576 297.576C242.226 299.777 230.07 315.883 222.925 327.938C215.781 339.992 209.088 360.975 207.293 364.056C205.498 367.138 183.59 386.382 177.585 394.43C171.581 402.477 160.858 406.033 150.147 413.618C143.262 418.494 121.805 443.652 107.346 461.023C99.31 470.674 93.4294 477.954 93.4294 477.954L1 453.856C1 453.856 8.6526 447.546 18.7206 439.036H18.7883L18.8899 438.957C35.4367 424.905 58.4961 405.073 64.862 397.59C75.1219 385.536 89.4112 371.212 89.4112 371.212C88.5421 354.474 90.3142 338.615 88.7453 332.588C87.9326 329.439 86.4879 311.527 85.3592 306.018C82.6165 291.944 70.6861 277.361 69.3429 271.616C67.9998 265.871 52.2544 241.412 59.9408 236.897C61.3382 236.017 62.9992 235.654 64.6362 235.87C75.0203 237.303 83.5759 262.383 89.4677 268.771C91.9923 271.796 94.2791 275.011 96.3076 278.388C100.958 285.758 105.518 294.043 105.518 294.043C107.301 286.898 94.355 261.446 90.777 237.337C87.199 213.228 76.9391 200.282 90.777 198.792C91.914 198.664 93.065 198.764 94.1631 199.085C103.904 201.93 108.125 222.167 113.949 241.807C114.491 243.613 118.927 256.581 122.381 266.582C124.638 273.128 126.444 278.399 126.444 278.399C126.884 266.119 123.058 254.696 122.426 243.567C122.155 239.109 123.554 221.242 121.794 203.386C120.281 188.317 120.97 182.211 126.862 181.026C128.124 180.799 129.41 180.738 130.688 180.845C140.903 181.489 144.526 208.634 144.526 219.221C144.526 225.373 145.575 237.382 146.456 246.389C147.099 252.902 147.652 257.845 147.652 257.845C147.652 257.845 149.436 242.89 148.104 210.632C147.799 203.566 148.262 198.51 151.038 196.467C152.562 195.338 154.763 195.146 157.923 196.004C166.852 198.419 169.752 231.502 169.752 244.008C169.752 256.514 176.897 277.936 178.24 294.799C179.583 311.662 185.43 332.385 185.43 332.385C185.43 332.385 188.737 333.728 190.961 333.288C193.184 332.848 208.602 310.07 208.602 310.07C215.781 294.483 229.754 289.754 237.362 291.503C240.86 292.305 243.118 294.461 242.576 297.576Z" fill="white"/>
<path opacity="0.4" d="M242.576 297.576C242.226 299.777 230.07 315.883 222.925 327.938C215.781 339.992 209.088 360.975 207.293 364.056C205.498 367.138 183.59 386.382 177.585 394.43C171.581 402.477 160.858 406.033 150.147 413.618C143.262 418.494 121.805 443.652 107.346 461.023C108.938 454.725 112.504 446.677 121.828 438.946C138.013 425.503 138.984 414.961 147.686 406.033C156.388 397.105 171.716 399.78 177.224 389.102C182.732 378.425 201.943 368.56 205.961 359.18C209.979 349.801 201.943 347.814 209.088 336.527C216.232 325.24 223.162 322.498 222.147 318.073C221.131 313.649 218.128 306.944 224.325 301.357C228.196 297.881 232.745 293.513 237.395 291.503C240.86 292.305 243.118 294.461 242.576 297.576Z" fill="#F2E205"/>
<path opacity="0.4" d="M126.771 350.557C123.803 349.067 126.184 346.099 124.096 343.627C122.008 341.155 117.245 357.115 116.195 357.171C115.146 357.228 111.951 349.056 110.687 348.243C109.423 347.431 108.678 350.851 106.884 357.171C105.089 363.492 98.4973 366.698 94.671 371.213C90.8447 375.727 67.8305 400.277 62.1757 409.498C56.5209 418.72 21.5988 436.971 18.89 438.935C35.4367 424.905 58.4961 405.074 64.862 397.59C75.1219 385.536 89.4113 371.213 89.4113 371.213C88.5422 354.474 90.3142 338.616 88.7453 332.588C87.9327 329.439 86.4879 311.527 85.3592 306.019C82.6165 291.944 70.6861 277.361 69.3429 271.616C67.9998 265.871 52.2544 241.412 59.9409 236.897C61.3382 236.017 62.9992 235.654 64.6363 235.87C62.8868 237.111 61.1824 238.895 62.7739 241.513C65.6069 246.096 68.7222 250.915 68.7222 255.983C68.7222 261.051 77.3567 268.185 80.709 272.914C84.0612 277.643 80.9347 275.973 83.1695 282.451C85.4044 288.93 88.0794 287.576 89.4113 294.122C90.7431 300.669 98.1926 304.845 97.0074 313.005C95.8223 321.166 100.574 332.521 100.574 332.521C100.574 332.521 104.446 321.516 103.035 315.59C101.624 309.664 103.26 302.192 101.906 300.183C100.777 298.377 97.6847 286.12 96.2625 278.501C100.913 285.871 105.473 294.156 105.473 294.156C107.256 287.011 94.3098 261.559 90.7318 237.45C87.1539 213.341 76.894 200.395 90.7318 198.905C91.8689 198.777 93.0198 198.877 94.118 199.198C100.021 210.226 95.9126 218.386 94.6033 223.172C93.1699 228.387 101.703 241.773 102.967 250.994C104.096 259.606 106.421 258.715 106.726 258.557C106.466 258.794 104.265 261.04 105.597 267.428C106.985 274.201 116.884 290.285 116.884 294.777C116.884 299.269 116.071 306.662 116.071 308.852C116.071 311.041 123.972 325.692 124.92 329.53C125.868 333.367 124.548 322.137 126.704 318.243C128.859 314.349 129.999 300.759 130.282 301.493C133.995 310.929 129.751 352.025 126.771 350.557Z" fill="#F2E205"/>
<path opacity="0.4" d="M133.171 249.696C130.643 253.523 130.71 283.388 126.399 283.49C124.311 283.49 123.295 275.984 122.448 266.559C124.706 273.106 126.512 278.377 126.512 278.377C126.952 266.096 123.126 254.674 122.494 243.545C122.223 239.086 123.622 221.219 121.861 203.363C120.349 188.295 121.037 182.189 126.929 181.003C128.171 185.022 131.218 189.762 131.997 194.164C133.058 200.237 130.981 205.259 129.198 206.015C127.415 206.772 127.11 210.688 129.345 211.264C131.58 211.84 129.345 240.339 130.383 243.996C131.422 247.653 135.711 245.926 133.171 249.696Z" fill="#F2E205"/>
<path opacity="0.4" d="M156.366 216.264C151.727 218.307 151.479 221.964 150.09 227.213C148.702 232.461 152.077 240.125 150.09 252.168C148.104 264.212 155.35 271.977 150.09 285.454C144.831 298.93 147.302 274.167 146.422 262.88C146.119 257.383 146.141 251.872 146.49 246.378C147.133 252.891 147.686 257.834 147.686 257.834C147.686 257.834 149.47 242.879 148.138 210.621C147.833 203.555 148.296 198.499 151.072 196.456C155.835 200.778 160.316 214.526 156.366 216.264Z" fill="#F2E205"/>
<path d="M93.4294 477.965C93.4294 477.965 139.424 421.259 150.147 413.629C160.869 405.999 171.592 402.466 177.585 394.441C183.579 386.416 205.51 367.195 207.293 364.068C209.076 360.942 215.781 339.959 222.925 327.95C230.07 315.94 242.226 299.732 242.576 297.587C244.134 287.756 219.133 287.316 208.636 310.093C208.636 310.093 193.229 332.859 190.994 333.311C188.76 333.762 185.464 332.408 185.464 332.408C185.464 332.408 179.617 311.696 178.274 294.822C176.931 277.948 169.786 256.503 169.786 244.031C169.786 231.558 166.885 198.442 157.957 196.027C149.029 193.611 147.675 199.729 148.138 210.7C149.47 242.958 147.686 257.914 147.686 257.914C147.686 257.914 144.56 229.888 144.56 219.289C144.56 208.691 140.936 181.546 130.722 180.914C121.342 180.315 120.033 185.586 121.828 203.488C123.622 221.389 122.189 239.211 122.46 243.669C123.126 254.832 126.974 266.243 126.478 278.501C126.478 278.501 114.863 244.877 113.972 241.886C107.504 219.967 103.023 197.393 90.7431 198.747C76.9052 200.237 87.1764 213.183 90.7431 237.292C94.3098 261.401 107.267 286.854 105.484 293.998C105.484 293.998 94.7726 274.551 89.4338 268.727C82.6616 261.401 72.4356 229.482 59.9295 236.852C52.2431 241.367 68.0336 265.905 69.3655 271.65C70.6974 277.395 82.639 291.967 85.3818 306.053C86.5105 311.561 87.9214 329.473 88.7679 332.622C90.3368 338.65 88.5647 354.508 89.4338 371.247C89.4338 371.247 75.1444 385.536 64.8845 397.59C54.6246 409.645 1.02258 453.856 1.02258 453.856" stroke="#263238" stroke-linecap="round" stroke-linejoin="round"/>
<path d="M185.464 332.396C187.524 337.482 187.524 343.169 185.464 348.255" stroke="#263238" stroke-linecap="round" stroke-linejoin="round"/>
<path d="M189.222 333.345C190.504 334.286 191.453 335.609 191.934 337.125C192.415 338.64 192.402 340.269 191.897 341.776" stroke="#263238" stroke-linecap="round" stroke-linejoin="round"/>
<path d="M147.686 257.834C147.686 257.834 151.264 283.061 149.695 287.745" stroke="#263238" stroke-linecap="round" stroke-linejoin="round"/>
<path d="M126.478 278.377C126.861 280.815 126.861 283.298 126.478 285.736" stroke="#263238" stroke-linecap="round" stroke-linejoin="round"/>
<path d="M105.495 293.998C105.495 293.998 106.161 297.802 105.495 298.693" stroke="#263238" stroke-linecap="round" stroke-linejoin="round"/>
<path d="M218.682 315.432C218.682 315.432 222.722 317.622 224.043 320.793" stroke="#263238" stroke-linecap="round" stroke-linejoin="round"/>
<path d="M126.625 210.62C127.934 210.935 129.302 210.915 130.602 210.562C131.902 210.209 133.092 209.534 134.063 208.6" stroke="#263238" stroke-linecap="round" stroke-linejoin="round"/>
<path d="M127.99 246.897C127.99 246.897 136.027 249.572 138.939 246.897" stroke="#263238" stroke-linecap="round" stroke-linejoin="round"/>
<path d="M154.165 254.708C154.165 254.708 159.515 252.699 163.093 253.816" stroke="#263238" stroke-linecap="round" stroke-linejoin="round"/>
<path d="M103.035 261.853C103.035 261.853 107.279 256.266 110.631 257.834" stroke="#263238" stroke-linecap="round" stroke-linejoin="round"/>
<path d="M85.6188 278.377C85.6188 278.377 81.8263 280.16 80.7089 282.057" stroke="#263238" stroke-linecap="round" stroke-linejoin="round"/>
<path d="M89.4113 371.213C90.3417 370.168 91.1659 369.034 91.8718 367.827C92.5378 366.483 91.6461 352.194 91.8718 342.995" stroke="#263238" stroke-linecap="round" stroke-linejoin="round"/>
<path d="M136.252 427.467C130.993 433.359 114.863 444.037 108.396 450.504" stroke="#263238" stroke-linecap="round" stroke-linejoin="round"/>
<path d="M157.506 293.998C154.831 301.594 157.732 311.188 157.506 315.443C157.28 319.699 156.377 339.146 156.377 339.146" stroke="#263238" stroke-linecap="round" stroke-linejoin="round"/>
<path d="M133.171 293.998C129.604 300.025 130.722 308.062 131.839 312.057C132.957 316.053 131.963 332.374 131.963 332.374" stroke="#263238" stroke-linecap="round" stroke-linejoin="round"/>
<path d="M94.7726 313.197C94.4769 317.128 95.2573 321.065 97.03 324.586" stroke="#263238" stroke-linecap="round" stroke-linejoin="round"/>
<path d="M116.873 301.369C114.863 308.739 117.55 312.08 117.776 313.197" stroke="#263238" stroke-linecap="round" stroke-linejoin="round"/>
<path opacity="0.3" d="M298.221 252.699L294.417 230.621C294.249 229.641 294.282 228.636 294.512 227.668C294.742 226.7 295.166 225.788 295.757 224.988C296.349 224.188 297.096 223.515 297.954 223.011C298.812 222.507 299.762 222.182 300.749 222.055L309.271 220.926C309.271 220.926 306.427 215.158 315.581 198.352C324.734 181.545 368.742 136.905 402.107 211.896C435.471 286.887 465.958 439.702 465.958 439.702C465.958 439.702 375.898 334.823 373.032 329.451C370.165 324.078 342.748 327.295 336.416 312.881C330.084 298.468 316.788 257.338 316.788 257.338L306.494 258.749C304.601 259.005 302.682 258.518 301.139 257.39C299.597 256.262 298.551 254.581 298.221 252.699Z" fill="black" fill-opacity="0.7"/>
<path d="M377.591 202.043L360.311 205.18L336.292 209.549L304.835 215.271C304.232 215.382 303.613 215.372 303.013 215.243C302.413 215.114 301.845 214.868 301.341 214.519C300.836 214.17 300.406 213.724 300.074 213.208C299.742 212.693 299.515 212.116 299.406 211.512L292.499 173.532C292.281 172.314 292.554 171.059 293.259 170.042C293.963 169.025 295.041 168.328 296.257 168.103L314.553 164.716L341.168 159.886L369.013 154.818C369.617 154.707 370.236 154.717 370.836 154.846C371.435 154.975 372.004 155.221 372.508 155.57C373.012 155.919 373.443 156.365 373.775 156.88C374.107 157.396 374.334 157.973 374.442 158.576L381.35 196.557C381.469 197.165 381.466 197.79 381.341 198.396C381.215 199.002 380.971 199.577 380.621 200.088C380.271 200.599 379.823 201.034 379.303 201.37C378.783 201.706 378.201 201.934 377.591 202.043Z" fill="#F2E205"/>
<path opacity="0.3" d="M365.368 176.827L360.311 205.18L336.292 209.548C329.339 206.489 317.872 201.162 315.581 198.261C312.849 194.875 313.233 174.92 314.553 164.716L341.168 159.885C350.548 166.353 365.368 176.827 365.368 176.827Z" fill="black" fill-opacity="0.7"/>
<path opacity="0.3" d="M309.61 214.402L304.835 215.271C304.232 215.382 303.613 215.372 303.013 215.243C302.413 215.114 301.845 214.868 301.34 214.519C300.836 214.169 300.406 213.724 300.074 213.208C299.742 212.692 299.515 212.116 299.406 211.512L292.499 173.532C292.281 172.314 292.554 171.059 293.258 170.042C293.963 169.025 295.041 168.328 296.257 168.103L301.02 167.233C299.804 167.458 298.727 168.156 298.025 169.174C297.323 170.191 297.052 171.446 297.273 172.662L304.181 210.643C304.289 211.247 304.516 211.823 304.848 212.339C305.18 212.855 305.611 213.3 306.115 213.65C306.619 213.999 307.188 214.245 307.787 214.374C308.387 214.503 309.006 214.513 309.61 214.402Z" fill="black" fill-opacity="0.7"/>
<path d="M377.591 202.043L360.311 205.18L336.292 209.549L304.835 215.271C304.232 215.382 303.613 215.372 303.013 215.243C302.413 215.114 301.845 214.868 301.341 214.519C300.836 214.17 300.406 213.724 300.074 213.208C299.742 212.693 299.515 212.116 299.406 211.512L292.499 173.532C292.281 172.314 292.554 171.059 293.259 170.042C293.963 169.025 295.041 168.328 296.257 168.103L314.553 164.716L341.168 159.886L369.013 154.818C369.617 154.707 370.236 154.717 370.836 154.846C371.435 154.975 372.004 155.221 372.508 155.57C373.012 155.919 373.443 156.365 373.775 156.88C374.107 157.396 374.334 157.973 374.442 158.576L381.35 196.557C381.469 197.165 381.466 197.79 381.341 198.396C381.215 199.002 380.971 199.577 380.621 200.088C380.271 200.599 379.823 201.034 379.303 201.37C378.783 201.706 378.201 201.934 377.591 202.043V202.043Z" stroke="#263238" stroke-linecap="round" stroke-linejoin="round"/>
<path d="M372.459 152.811L299.996 166.121C297.467 166.585 295.794 169.012 296.258 171.541L303.204 209.36C303.669 211.889 306.096 213.563 308.625 213.098L381.087 199.789C383.616 199.324 385.29 196.897 384.826 194.368L377.879 156.55C377.415 154.021 374.988 152.347 372.459 152.811Z" stroke="#263238" stroke-width="0.996394" stroke-linecap="round" stroke-linejoin="round"/>
<path d="M370.432 157.379L302.146 169.788C300.92 170.011 300.106 171.186 300.329 172.413L307.13 209.837C307.353 211.064 308.528 211.878 309.755 211.655L378.04 199.245C379.267 199.022 380.08 197.847 379.858 196.62L373.056 159.196C372.833 157.97 371.658 157.156 370.432 157.379Z" stroke="#263238" stroke-linecap="round" stroke-linejoin="round"/>
<path d="M382.366 201.174L377.625 202.031C378.836 201.804 379.907 201.106 380.605 200.091C381.303 199.076 381.571 197.826 381.35 196.614L374.442 158.633C374.334 158.029 374.107 157.453 373.775 156.937C373.443 156.421 373.012 155.976 372.508 155.626C372.004 155.277 371.435 155.031 370.836 154.902C370.236 154.773 369.617 154.763 369.013 154.874L373.788 154.005C375.006 153.788 376.26 154.061 377.277 154.765C378.294 155.469 378.992 156.547 379.217 157.764L386.124 195.744C386.342 196.962 386.069 198.217 385.364 199.234C384.66 200.251 383.582 200.948 382.366 201.174V201.174Z" stroke="#263238" stroke-linecap="round" stroke-linejoin="round"/>
<path d="M519.65 322.836L472.91 448.212C472.91 448.212 453.361 410.965 435.302 376.495C420.877 348.932 407.4 323.084 405.583 319.281C401.509 310.714 387.592 292.768 387.592 292.768C387.592 292.768 373.314 284.596 366.778 270.363C360.243 256.13 353.053 205.214 353.053 205.214C353.053 205.214 334.283 198.148 329.802 195.056C325.321 191.963 321.235 163.384 321.235 160.122C321.235 156.86 325.75 150.325 325.75 150.325C325.75 150.325 324.746 145.54 330.479 140.709C332.354 139.17 334.431 137.898 336.653 136.928H336.766C336.766 136.928 336.021 126.126 341.642 122.977C341.911 122.825 342.19 122.693 342.478 122.582C347.489 120.652 363.923 118.157 363.923 118.157C366.246 116.116 368.951 114.555 371.88 113.563C374.792 112.762 390.775 116.476 399.703 118.676C403.292 119.557 405.741 120.189 405.741 120.189C405.741 120.189 420.843 120.877 423.699 122.582C425.691 123.888 427.511 125.439 429.117 127.198L429.399 127.526C429.399 127.526 442.864 130.325 445.72 135.257C448.576 140.19 449.795 164.66 447.763 180.563C445.731 196.467 449.377 223.454 449.377 223.454C449.377 223.454 453.587 244.301 456.849 252.213C460.111 260.125 519.65 322.836 519.65 322.836Z" fill="white"/>
<path opacity="0.4" d="M435.302 376.495C420.877 348.932 407.4 323.085 405.583 319.281C401.509 310.714 387.592 292.768 387.592 292.768C387.592 292.768 373.314 284.596 366.778 270.363C360.243 256.13 353.053 205.214 353.053 205.214C353.053 205.214 334.283 198.149 329.802 195.056C325.321 191.963 321.235 163.385 321.235 160.123C321.235 156.861 325.75 150.325 325.75 150.325C325.75 150.325 324.746 145.54 330.479 140.709C330.479 141.996 330.479 144.163 330.479 147.571C330.344 154.039 337.963 193.036 339.848 191.85C341.733 190.665 344.645 187.81 343.877 185.293C343.877 185.293 340.186 170.157 336.699 136.928H336.811C336.811 136.928 336.066 126.126 341.687 122.977C340.72 125.316 340.101 127.784 339.848 130.302C339.724 135.562 345.976 180.631 348.426 181.771C350.875 182.911 357.083 176.906 357.083 176.906C357.083 176.906 354.961 164.118 355.717 158.667C355.717 158.667 374.6 170.179 375.165 183.25C375.221 184.683 378.844 205.169 378.844 205.169C378.844 205.169 362.602 236.096 379.183 264.313C379.183 264.313 370.752 259.257 368.742 251.22C368.742 251.22 366.293 274.855 383.709 287.339C383.709 287.339 396.204 275.07 408.54 273.512C408.54 273.512 408.766 274.325 400.504 280.837C392.242 287.35 391.125 290.251 391.125 290.251C391.125 290.251 400.064 281.221 407.209 280.837C407.209 280.837 399.838 289.359 400.064 291.142C400.29 292.926 421.137 328.57 428.722 353.435C431.814 363.82 433.925 371.314 435.302 376.495Z" fill="#F2E205"/>
<path opacity="0.4" d="M376.767 139.941C376.767 139.941 382.783 144.456 384.567 139.941C385.591 137.525 386.242 134.968 386.497 132.357C386.497 132.357 388.811 131.296 391.012 136.871C393.213 142.447 415.279 143.869 420.448 146.725C425.618 149.58 427.672 146.725 427.672 146.725C428.876 147.714 429.702 149.089 430.01 150.617C430.319 152.145 430.091 153.732 429.365 155.111C426.859 160.292 433.959 160.755 436.713 156.94C439.467 153.125 437.334 167.854 430.528 169.355C430.528 169.355 430.719 175.789 426.34 180.202H430.053C430.053 180.202 420.166 188.047 417.536 188.476C414.906 188.904 427.322 193.295 425.019 194.221C422.717 195.146 416.193 195.067 416.193 195.067C416.193 195.067 420.414 197.991 420.448 199.921C420.482 201.851 418.45 203.307 417.536 201.693C416.622 200.079 409.331 176.963 405.696 168.419C402.062 159.874 387.05 153.113 376.767 139.941Z" fill="#F2E205"/>
<path opacity="0.4" d="M429.105 127.119C416.441 123.654 399.454 118.722 399.454 118.722L399.691 118.598C403.281 119.478 405.73 120.11 405.73 120.11C405.73 120.11 420.832 120.799 423.688 122.503C425.68 123.809 427.5 125.36 429.105 127.119Z" fill="#F2E205"/>
<path d="M411.294 147.041C400.278 144.784 392.411 154.197 392.411 154.197C392.411 154.197 403.36 164.107 405.786 168.362C408.213 172.617 412.243 186.963 412.243 186.963C416.859 187.708 425.369 182.945 427.412 170.304C429.455 157.662 422.254 149.287 411.294 147.041Z" fill="#F2E205"/>
<path d="M472.91 448.213C472.91 448.213 409.703 327.848 405.583 319.281C401.464 310.714 387.592 292.768 387.592 292.768C387.592 292.768 373.314 284.596 366.778 270.363C360.243 256.13 353.053 205.214 353.053 205.214C353.053 205.214 334.283 198.149 329.802 195.056C325.321 191.963 321.235 163.385 321.235 160.123C321.235 156.861 325.75 150.326 325.75 150.326C325.75 150.326 324.125 142.594 336.766 136.871C336.766 136.871 335.954 125.031 342.478 122.526C347.489 120.596 363.923 118.101 363.923 118.101C366.246 116.06 368.951 114.498 371.88 113.507C375.955 112.379 405.741 120.133 405.741 120.133C405.741 120.133 420.843 120.821 423.699 122.526C425.787 123.903 427.688 125.546 429.354 127.413C429.354 127.413 442.819 130.212 445.675 135.145C448.53 140.077 449.749 164.547 447.718 180.451C445.686 196.354 449.332 223.341 449.332 223.341C449.332 223.341 453.542 244.188 456.804 252.101C460.066 260.013 519.65 322.836 519.65 322.836" stroke="#263238" stroke-linecap="round" stroke-linejoin="round"/>
<path d="M419.399 203.555C419.399 203.555 416.543 202.946 412.875 189.48C409.206 176.015 408.236 169.717 400.628 161.737C395.233 156.093 382.885 146.872 376.768 139.942C370.65 133.011 363.889 127.413 358.607 131.702C354.385 135.088 351.631 143.881 355.345 157.448C360.119 174.875 375.176 183.171 375.176 183.171L378.856 205.09C378.856 205.09 362.885 237.078 380.887 267.27" stroke="#263238" stroke-linecap="round" stroke-linejoin="round"/>
<path d="M392.355 154.197C392.355 154.197 400.256 144.795 411.238 147.041C422.22 149.287 429.354 157.651 427.356 170.304C425.358 182.956 416.803 187.708 412.186 186.963" stroke="#263238" stroke-linecap="round" stroke-linejoin="round"/>
<path d="M363.889 118.078C362.24 122.225 360.97 126.513 360.097 130.889" stroke="#263238" stroke-linecap="round" stroke-linejoin="round"/>
<path d="M357.207 162.278C357.207 162.278 358.155 176.218 360.119 180.496C362.083 184.773 365.345 188.25 366.767 193.758C368.189 199.266 368.404 207.833 368.81 209.063C369.216 210.293 371.575 210.609 371.575 210.609C374.962 210.688 376.327 208.928 378.28 206.241" stroke="#263238" stroke-linecap="round" stroke-linejoin="round"/>
<path d="M336.8 136.849C336.8 136.849 339.859 166.624 342.308 179.277C344.758 191.929 349.08 193.758 356.18 197.844C363.28 201.93 367.196 210.259 367.817 211.512C368.438 212.765 370.763 212.901 370.763 212.901C372.129 212.787 373.445 212.334 374.593 211.583C375.74 210.832 376.681 209.807 377.332 208.6" stroke="#263238" stroke-linecap="round" stroke-linejoin="round"/>
<path d="M325.761 150.303C324.994 151.488 331.54 181.726 334.949 190.496C338.358 199.266 338.742 200.655 347.76 203.138C356.778 205.621 363.629 209.752 366.067 208.296" stroke="#263238" stroke-linecap="round" stroke-linejoin="round"/>
<path d="M388.393 133.576C388.393 133.576 393.077 144.795 389.985 152.177" stroke="#263238" stroke-linecap="round" stroke-linejoin="round"/>
<path d="M405.73 120.11C413.406 123.145 421.304 125.586 429.354 127.413" stroke="#263238" stroke-linecap="round" stroke-linejoin="round"/>
<path d="M436.747 158.881C436.747 158.881 433.157 165.439 427.717 166.849" stroke="#263238" stroke-linecap="round" stroke-linejoin="round"/>
<path d="M427.706 151.736C427.706 151.736 426.419 155.122 425.053 156.059" stroke="#263238" stroke-linecap="round" stroke-linejoin="round"/>
<path d="M432.221 178.667C432.221 178.667 424.06 184.841 416.227 186.444" stroke="#263238" stroke-linecap="round" stroke-linejoin="round"/>
<path d="M412.875 189.491C412.875 189.491 416.261 193.769 425.053 194.175" stroke="#263238" stroke-linecap="round" stroke-linejoin="round"/>
<path d="M386.463 170.766C386.463 170.766 394.454 163.091 399.014 164.152" stroke="#263238" stroke-linecap="round" stroke-linejoin="round"/>
<path d="M402.107 172.324C402.107 172.324 396.057 176.839 394.951 176.839" stroke="#263238" stroke-linecap="round" stroke-linejoin="round"/>
<path d="M339.814 196.264C339.814 196.264 341.823 196.636 343.392 194.209" stroke="#263238" stroke-linecap="round" stroke-linejoin="round"/>
<path d="M346.958 185.27C346.958 185.27 351.812 182.268 354.984 181.692" stroke="#263238" stroke-linecap="round" stroke-linejoin="round"/>
<path d="M389.714 287.079C390.718 286.187 400.098 278.602 405.899 275.916" stroke="#263238" stroke-linecap="round" stroke-linejoin="round"/>
<path d="M401.881 283.49C401.215 283.287 395.888 288.862 393.077 291.097" stroke="#263238" stroke-linecap="round" stroke-linejoin="round"/>
<path d="M404.522 300.025C404.522 300.025 422.39 333.886 426.408 347.43" stroke="#263238" stroke-linecap="round" stroke-linejoin="round"/>
<path d="M456.849 252.146C458.361 260.464 463.271 266.593 465.958 269.911" stroke="#263238" stroke-linecap="round" stroke-linejoin="round"/>
<path opacity="0.4" d="M400.527 150.303C397.931 151.905 400.662 157.143 402.107 159.818C403.552 162.493 410.008 166.748 411.351 170.766C412.694 174.784 421.182 174.671 423.767 170.766C426.351 166.861 426.024 159.061 418.981 153.124C411.938 147.187 404.218 148.045 400.527 150.303Z" fill="white"/>
<path d="M350.965 375.242C339.47 373.288 327.652 375.286 317.439 380.911C307.226 386.536 299.219 395.455 294.725 406.214C290.232 416.973 289.516 428.938 292.694 440.156C295.873 451.374 302.759 461.184 312.228 467.987" stroke="#263238" stroke-linecap="round" stroke-linejoin="round"/>
<path d="M372.467 384.238C367.682 380.782 362.336 378.178 356.665 376.54" stroke="#263238" stroke-linecap="round" stroke-linejoin="round"/>
<path d="M367.275 471.193C374.232 467.342 380.203 461.933 384.722 455.391C389.241 448.848 392.185 441.348 393.324 433.479C394.463 425.609 393.766 417.583 391.287 410.027C388.808 402.472 384.616 395.592 379.036 389.927" stroke="#263238" stroke-linecap="round" stroke-linejoin="round"/>
<path d="M369.77 487.469L372.84 490.178L368.054 473.778" stroke="#263238" stroke-linecap="round" stroke-linejoin="round"/>
<path d="M333.651 476.927C341.24 478.229 349.024 477.808 356.428 475.697L366.146 484.275" stroke="#263238" stroke-linecap="round" stroke-linejoin="round"/>
<path d="M321.822 473.428C323.749 474.258 325.724 474.97 327.737 475.561" stroke="#263238" stroke-linecap="round" stroke-linejoin="round"/>
<path d="M346.383 400.999C352.776 402.092 358.528 405.538 362.508 410.66C366.487 415.781 368.406 422.207 367.885 428.672C367.365 435.137 364.443 441.172 359.695 445.591C354.947 450.01 348.718 452.491 342.232 452.547C335.746 452.603 329.475 450.229 324.652 445.893C319.829 441.556 316.804 435.571 316.172 429.116C315.54 422.661 317.348 416.204 321.239 411.015C325.129 405.825 330.822 402.281 337.195 401.078" stroke="#263238" stroke-linecap="round" stroke-linejoin="round"/>
<path d="M337.195 454.94C329.678 453.659 322.976 449.445 318.565 443.224C314.154 437.003 312.395 429.285 313.673 421.767" stroke="#263238" stroke-linecap="round" stroke-linejoin="round"/>
<path d="M369.07 436.361C367.3 441.257 364.235 445.58 360.202 448.872C356.169 452.163 351.319 454.299 346.168 455.053" stroke="#263238" stroke-linecap="round" stroke-linejoin="round"/>
<path d="M315.885 414.589C318.799 408.252 323.917 403.191 330.285 400.346C336.653 397.502 343.838 397.068 350.502 399.127C357.165 401.185 362.854 405.595 366.509 411.535C370.163 417.476 371.535 424.542 370.368 431.418" stroke="#263238" stroke-linecap="round" stroke-linejoin="round"/>
<path d="M359.284 416.225L359.611 415.875" stroke="#263238" stroke-width="2" stroke-linecap="round" stroke-linejoin="round"/>
<path d="M354.679 421.192L356.97 418.72" stroke="#263238" stroke-width="2" stroke-linecap="round" stroke-linejoin="round"/>
<path d="M326.563 424.837L337.635 439.556L352.67 423.359" stroke="#263238" stroke-width="2" stroke-linecap="round" stroke-linejoin="round"/>
</svg>
