<svg width="610" height="500" viewBox="0 0 610 500" fill="none" xmlns="http://www.w3.org/2000/svg">
<path d="M68.8231 99.9263C45.2595 131.604 30.1082 178.148 41.5987 217.132C61.2325 283.759 144.549 288.779 201.613 296.489C240.941 301.809 280.044 332.724 313.679 351.909C358.505 377.49 430.615 417.849 482.315 391.64C525.169 369.929 548.209 317.408 561.358 273.837C581.963 205.612 583.951 123.311 539.095 63.8711C478.041 -16.816 371.235 -3.36814 282.495 10.4383C223.1 19.6875 165.364 28.6975 112.559 60.1805C95.5097 70.4261 80.6479 83.9323 68.8231 99.9263Z" fill="#F2E205"/>
<path opacity="0.4" d="M68.8231 99.9263C45.2595 131.604 30.1082 178.148 41.5987 217.132C61.2325 283.759 144.549 288.779 201.613 296.489C240.941 301.809 280.044 332.724 313.679 351.909C358.505 377.49 430.615 417.849 482.315 391.64C525.169 369.929 548.209 317.408 561.358 273.837C581.963 205.612 583.951 123.311 539.095 63.8711C478.041 -16.816 371.235 -3.36814 282.495 10.4383C223.1 19.6875 165.364 28.6975 112.559 60.1805C95.5097 70.4261 80.6479 83.9323 68.8231 99.9263Z" fill="white"/>
<path d="M0 480.591C0 485.91 136.436 490.228 304.818 490.228C473.2 490.228 609.636 485.91 609.636 480.591C609.636 475.271 473.2 470.953 304.893 470.953C136.585 470.953 0 475.271 0 480.591Z" fill="#F2E205"/>
<path opacity="0.6" d="M0 480.591C0 485.91 136.436 490.228 304.818 490.228C473.2 490.228 609.636 485.91 609.636 480.591C609.636 475.271 473.2 470.953 304.893 470.953C136.585 470.953 0 475.271 0 480.591Z" fill="white"/>
<path d="M339.215 3.20654H68.5392V346.545H339.215V3.20654Z" fill="white" stroke="#263238" stroke-width="0.75" stroke-linecap="round" stroke-linejoin="round"/>
<path d="M339.215 3.20654H68.5392V23.6921H339.215V3.20654Z" fill="#263238" stroke="#263238" stroke-width="0.75" stroke-linecap="round" stroke-linejoin="round"/>
<path d="M122.002 242.668H76.2493V339.776H122.002V242.668Z" fill="#F2E205"/>
<path opacity="0.6" d="M122.002 242.668H76.2493V339.776H122.002V242.668Z" fill="white"/>
<path d="M171.893 242.668H126.141V339.776H171.893V242.668Z" fill="#F2E205"/>
<path opacity="0.6" d="M171.893 242.668H126.141V339.776H171.893V242.668Z" fill="white"/>
<path d="M224.908 242.668H179.155V339.776H224.908V242.668Z" fill="#F2E205"/>
<path opacity="0.6" d="M224.908 242.668H179.155V339.776H224.908V242.668Z" fill="white"/>
<path d="M277.907 242.668H232.155V339.776H277.907V242.668Z" fill="#F2E205"/>
<path opacity="0.6" d="M277.907 242.668H232.155V339.776H277.907V242.668Z" fill="white"/>
<path d="M332.207 242.668H286.454V339.776H332.207V242.668Z" fill="white" stroke="#263238" stroke-width="0.75" stroke-linecap="round" stroke-linejoin="round"/>
<path d="M331.475 11.3049H76.2642V34.8387H331.475V11.3049Z" fill="#F2E205"/>
<path opacity="0.6" d="M331.475 11.3049H76.2642V34.8387H331.475V11.3049Z" fill="white"/>
<path d="M327.889 15.877H80.8514V26.2916H327.889V15.877Z" fill="white"/>
<path d="M327.874 15.877H299.902V26.2916H327.874V15.877Z" fill="#263238" stroke="#263238" stroke-width="0.75" stroke-linecap="round" stroke-linejoin="round"/>
<path d="M189.854 55.9367H137.557C137.022 55.9367 136.508 55.7242 136.13 55.3459C135.752 54.9676 135.539 54.4545 135.539 53.9195C135.539 53.3845 135.752 52.8715 136.13 52.4932C136.508 52.1149 137.022 51.9023 137.557 51.9023H189.854C190.389 51.9023 190.902 52.1149 191.28 52.4932C191.658 52.8715 191.871 53.3845 191.871 53.9195C191.871 54.4545 191.658 54.9676 191.28 55.3459C190.902 55.7242 190.389 55.9367 189.854 55.9367Z" fill="#263238"/>
<path d="M189.854 69.9974H137.557C137.278 70.0214 136.998 69.9873 136.733 69.8972C136.468 69.8071 136.225 69.663 136.019 69.474C135.813 69.2851 135.649 69.0554 135.536 68.7995C135.424 68.5436 135.366 68.2672 135.366 67.9876C135.366 67.7081 135.424 67.4316 135.536 67.1758C135.649 66.9199 135.813 66.6902 136.019 66.5012C136.225 66.3122 136.468 66.1682 136.733 66.0781C136.998 65.988 137.278 65.9539 137.557 65.9779H189.854C190.357 66.0214 190.825 66.2519 191.167 66.624C191.508 66.9961 191.697 67.4827 191.697 67.9876C191.697 68.4926 191.508 68.9792 191.167 69.3513C190.825 69.7234 190.357 69.9539 189.854 69.9974Z" fill="#263238"/>
<path d="M189.854 84.0727H137.557C137.022 84.0727 136.508 83.8601 136.13 83.4818C135.752 83.1036 135.539 82.5905 135.539 82.0555C135.539 81.5205 135.752 81.0074 136.13 80.6291C136.508 80.2508 137.022 80.0383 137.557 80.0383H189.854C190.389 80.0383 190.902 80.2508 191.28 80.6291C191.658 81.0074 191.871 81.5205 191.871 82.0555C191.871 82.5905 191.658 83.1036 191.28 83.4818C190.902 83.8601 190.389 84.0727 189.854 84.0727Z" fill="#263238"/>
<path d="M189.854 98.1332H81.3147C80.8116 98.0897 80.3431 97.8592 80.0017 97.4871C79.6603 97.115 79.4709 96.6284 79.4709 96.1235C79.4709 95.6185 79.6603 95.1319 80.0017 94.7598C80.3431 94.3877 80.8116 94.1572 81.3147 94.1138H189.854C190.357 94.1572 190.825 94.3877 191.167 94.7598C191.508 95.1319 191.698 95.6185 191.698 96.1235C191.698 96.6284 191.508 97.115 191.167 97.4871C190.825 97.8592 190.357 98.0897 189.854 98.1332Z" fill="#263238"/>
<path d="M189.854 112.209H81.3147C80.7797 112.209 80.2666 111.996 79.8883 111.618C79.51 111.24 79.2975 110.726 79.2975 110.192C79.2975 109.657 79.51 109.143 79.8883 108.765C80.2666 108.387 80.7797 108.174 81.3147 108.174H189.854C190.389 108.174 190.902 108.387 191.28 108.765C191.658 109.143 191.871 109.657 191.871 110.192C191.871 110.726 191.658 111.24 191.28 111.618C190.902 111.996 190.389 112.209 189.854 112.209Z" fill="#263238"/>
<path d="M189.854 126.284H81.3147C80.7797 126.284 80.2666 126.072 79.8883 125.693C79.51 125.315 79.2975 124.802 79.2975 124.267C79.2975 123.732 79.51 123.219 79.8883 122.841C80.2666 122.462 80.7797 122.25 81.3147 122.25H189.854C190.389 122.25 190.902 122.462 191.28 122.841C191.658 123.219 191.871 123.732 191.871 124.267C191.871 124.802 191.658 125.315 191.28 125.693C190.902 126.072 190.389 126.284 189.854 126.284Z" fill="#263238"/>
<path d="M189.854 140.344H81.3147C80.8116 140.301 80.3431 140.07 80.0017 139.698C79.6603 139.326 79.4709 138.84 79.4709 138.335C79.4709 137.83 79.6603 137.343 80.0017 136.971C80.3431 136.599 80.8116 136.368 81.3147 136.325H189.854C190.357 136.368 190.825 136.599 191.167 136.971C191.508 137.343 191.698 137.83 191.698 138.335C191.698 138.84 191.508 139.326 191.167 139.698C190.825 140.07 190.357 140.301 189.854 140.344Z" fill="#263238"/>
<path d="M189.854 152.851H81.3147C80.8116 152.808 80.3431 152.577 80.0017 152.205C79.6603 151.833 79.4709 151.346 79.4709 150.841C79.4709 150.336 79.6603 149.85 80.0017 149.478C80.3431 149.106 80.8116 148.875 81.3147 148.832H189.854C190.357 148.875 190.825 149.106 191.167 149.478C191.508 149.85 191.698 150.336 191.698 150.841C191.698 151.346 191.508 151.833 191.167 152.205C190.825 152.577 190.357 152.808 189.854 152.851Z" fill="#263238"/>
<path d="M189.854 166.971H81.3147C80.7797 166.971 80.2666 166.759 79.8883 166.381C79.51 166.002 79.2975 165.489 79.2975 164.954C79.2975 164.419 79.51 163.906 79.8883 163.528C80.2666 163.15 80.7797 162.937 81.3147 162.937H189.854C190.389 162.937 190.902 163.15 191.28 163.528C191.658 163.906 191.871 164.419 191.871 164.954C191.871 165.489 191.658 166.002 191.28 166.381C190.902 166.759 190.389 166.971 189.854 166.971Z" fill="#263238"/>
<path d="M189.854 180.987H81.3147C80.8116 180.944 80.3431 180.713 80.0017 180.341C79.6603 179.969 79.4709 179.482 79.4709 178.977C79.4709 178.472 79.6603 177.986 80.0017 177.614C80.3431 177.241 80.8116 177.011 81.3147 176.968H189.854C190.357 177.011 190.825 177.241 191.167 177.614C191.508 177.986 191.698 178.472 191.698 178.977C191.698 179.482 191.508 179.969 191.167 180.341C190.825 180.713 190.357 180.944 189.854 180.987Z" fill="#263238"/>
<path d="M189.854 195.062H81.3147C80.7797 195.062 80.2666 194.85 79.8883 194.471C79.51 194.093 79.2975 193.58 79.2975 193.045C79.2975 192.51 79.51 191.997 79.8883 191.619C80.2666 191.24 80.7797 191.028 81.3147 191.028H189.854C190.389 191.028 190.902 191.24 191.28 191.619C191.658 191.997 191.871 192.51 191.871 193.045C191.871 193.58 191.658 194.093 191.28 194.471C190.902 194.85 190.389 195.062 189.854 195.062Z" fill="#263238"/>
<path d="M189.854 209.123H81.3147C80.8116 209.079 80.3431 208.849 80.0017 208.477C79.6603 208.105 79.4709 207.618 79.4709 207.113C79.4709 206.608 79.6603 206.121 80.0017 205.749C80.3431 205.377 80.8116 205.147 81.3147 205.103H189.854C190.357 205.147 190.825 205.377 191.167 205.749C191.508 206.121 191.698 206.608 191.698 207.113C191.698 207.618 191.508 208.105 191.167 208.477C190.825 208.849 190.357 209.079 189.854 209.123Z" fill="#263238"/>
<path d="M189.854 223.198H81.3147C80.8116 223.155 80.3431 222.924 80.0017 222.552C79.6603 222.18 79.4709 221.694 79.4709 221.189C79.4709 220.684 79.6603 220.197 80.0017 219.825C80.3431 219.453 80.8116 219.222 81.3147 219.179H189.854C190.357 219.222 190.825 219.453 191.167 219.825C191.508 220.197 191.698 220.684 191.698 221.189C191.698 221.694 191.508 222.18 191.167 222.552C190.825 222.924 190.357 223.155 189.854 223.198Z" fill="#263238"/>
<path d="M329.562 55.9367H221.068C220.533 55.9367 220.02 55.7242 219.641 55.3459C219.263 54.9676 219.051 54.4545 219.051 53.9195C219.051 53.3845 219.263 52.8715 219.641 52.4932C220.02 52.1149 220.533 51.9023 221.068 51.9023H329.562C330.097 51.9023 330.61 52.1149 330.988 52.4932C331.367 52.8715 331.579 53.3845 331.579 53.9195C331.579 54.4545 331.367 54.9676 330.988 55.3459C330.61 55.7242 330.097 55.9367 329.562 55.9367Z" fill="#263238"/>
<path d="M329.562 69.9974H221.068C220.789 70.0214 220.509 69.9873 220.244 69.8972C219.98 69.8071 219.737 69.663 219.531 69.474C219.325 69.2851 219.16 69.0554 219.048 68.7995C218.935 68.5436 218.877 68.2672 218.877 67.9876C218.877 67.7081 218.935 67.4316 219.048 67.1758C219.16 66.9199 219.325 66.6902 219.531 66.5012C219.737 66.3122 219.98 66.1682 220.244 66.0781C220.509 65.988 220.789 65.9539 221.068 65.9779H329.562C329.841 65.9539 330.121 65.988 330.386 66.0781C330.65 66.1682 330.893 66.3122 331.099 66.5012C331.305 66.6902 331.47 66.9199 331.582 67.1758C331.695 67.4316 331.753 67.7081 331.753 67.9876C331.753 68.2672 331.695 68.5436 331.582 68.7995C331.47 69.0554 331.305 69.2851 331.099 69.474C330.893 69.663 330.65 69.8071 330.386 69.8972C330.121 69.9873 329.841 70.0214 329.562 69.9974Z" fill="#263238"/>
<path d="M329.562 84.0727H221.068C220.533 84.0727 220.02 83.8601 219.641 83.4818C219.263 83.1036 219.051 82.5905 219.051 82.0555C219.051 81.5205 219.263 81.0074 219.641 80.6291C220.02 80.2508 220.533 80.0383 221.068 80.0383H329.562C330.097 80.0383 330.61 80.2508 330.988 80.6291C331.367 81.0074 331.579 81.5205 331.579 82.0555C331.579 82.5905 331.367 83.1036 330.988 83.4818C330.61 83.8601 330.097 84.0727 329.562 84.0727Z" fill="#263238"/>
<path d="M329.562 98.1333H221.068C220.789 98.1573 220.509 98.1233 220.244 98.0332C219.98 97.9431 219.737 97.799 219.531 97.61C219.325 97.4211 219.16 97.1914 219.048 96.9355C218.935 96.6796 218.877 96.4031 218.877 96.1236C218.877 95.8441 218.935 95.5676 219.048 95.3118C219.16 95.0559 219.325 94.8262 219.531 94.6372C219.737 94.4482 219.98 94.3041 220.244 94.2141C220.509 94.124 220.789 94.0899 221.068 94.1139H329.562C329.841 94.0899 330.121 94.124 330.386 94.2141C330.65 94.3041 330.893 94.4482 331.099 94.6372C331.305 94.8262 331.47 95.0559 331.582 95.3118C331.695 95.5676 331.753 95.8441 331.753 96.1236C331.753 96.4031 331.695 96.6796 331.582 96.9355C331.47 97.1914 331.305 97.4211 331.099 97.61C330.893 97.799 330.65 97.9431 330.386 98.0332C330.121 98.1233 329.841 98.1573 329.562 98.1333Z" fill="#263238"/>
<path d="M329.562 112.209H221.068C220.533 112.209 220.02 111.996 219.641 111.618C219.263 111.24 219.051 110.726 219.051 110.192C219.051 109.657 219.263 109.143 219.641 108.765C220.02 108.387 220.533 108.174 221.068 108.174H329.562C330.097 108.174 330.61 108.387 330.988 108.765C331.367 109.143 331.579 109.657 331.579 110.192C331.579 110.726 331.367 111.24 330.988 111.618C330.61 111.996 330.097 112.209 329.562 112.209Z" fill="#263238"/>
<path d="M329.562 126.284H221.068C220.803 126.284 220.541 126.232 220.296 126.131C220.051 126.029 219.829 125.881 219.641 125.693C219.454 125.506 219.305 125.284 219.204 125.039C219.103 124.794 219.051 124.532 219.051 124.267C219.051 124.002 219.103 123.74 219.204 123.495C219.305 123.25 219.454 123.028 219.641 122.841C219.829 122.653 220.051 122.505 220.296 122.403C220.541 122.302 220.803 122.25 221.068 122.25H329.562C329.827 122.25 330.089 122.302 330.334 122.403C330.579 122.505 330.801 122.653 330.988 122.841C331.176 123.028 331.324 123.25 331.426 123.495C331.527 123.74 331.579 124.002 331.579 124.267C331.579 124.532 331.527 124.794 331.426 125.039C331.324 125.284 331.176 125.506 330.988 125.693C330.801 125.881 330.579 126.029 330.334 126.131C330.089 126.232 329.827 126.284 329.562 126.284Z" fill="#263238"/>
<path d="M329.562 140.344H221.068C220.789 140.369 220.509 140.334 220.244 140.244C219.98 140.154 219.737 140.01 219.531 139.821C219.325 139.632 219.16 139.403 219.048 139.147C218.935 138.891 218.877 138.614 218.877 138.335C218.877 138.055 218.935 137.779 219.048 137.523C219.16 137.267 219.325 137.037 219.531 136.848C219.737 136.659 219.98 136.515 220.244 136.425C220.509 136.335 220.789 136.301 221.068 136.325H329.562C329.841 136.301 330.121 136.335 330.386 136.425C330.65 136.515 330.893 136.659 331.099 136.848C331.305 137.037 331.47 137.267 331.582 137.523C331.695 137.779 331.753 138.055 331.753 138.335C331.753 138.614 331.695 138.891 331.582 139.147C331.47 139.403 331.305 139.632 331.099 139.821C330.893 140.01 330.65 140.154 330.386 140.244C330.121 140.334 329.841 140.369 329.562 140.344Z" fill="#263238"/>
<path d="M331.519 149.803H220.948V226.919H331.519V149.803Z" fill="#F2E205"/>
<path opacity="0.6" d="M331.519 149.803H220.948V226.919H331.519V149.803Z" fill="white"/>
<path d="M119.148 59.9264C119.455 58.9903 119.616 58.0126 119.626 57.0276C119.626 53.4266 115.98 53.2174 112.379 53.2174H111.483V52.3657H127.097V53.2174C123.033 53.2174 121.598 55.8024 120.284 59.6724L111.976 84.5659C111.348 86.4037 110.825 87.7784 108.868 87.7784H108.703L101.367 64.0056L94.4935 84.5659C93.851 86.4037 93.3281 87.7784 91.3706 87.7784H91.2362L80.5675 53.2174H76.8171V52.3657H90.5488V53.2174H86.649L94.5683 80.4867H94.882L100.859 62.3022L98.0647 53.2174H94.3142V52.3657H108.046V53.2174H104.131L112.065 80.4867H112.379L119.148 59.9264Z" fill="#263238"/>
<path d="M370.16 43.5498H257.467V345.843H370.16V43.5498Z" fill="#F2E205"/>
<path opacity="0.4" d="M370.16 43.5498H257.467V345.843H370.16V43.5498Z" fill="white"/>
<path d="M536.569 32.2388H265.894V375.577H536.569V32.2388Z" fill="white" stroke="#263238" stroke-width="0.75" stroke-linecap="round" stroke-linejoin="round"/>
<path d="M536.569 32.2388H265.894V52.7243H536.569V32.2388Z" fill="#263238" stroke="#263238" stroke-width="0.75" stroke-linecap="round" stroke-linejoin="round"/>
<path d="M452.117 80.8601H357.07V258.536H452.117V80.8601Z" fill="#F2E205"/>
<path opacity="0.6" d="M452.117 80.8601H357.07V258.536H452.117V80.8601Z" fill="white"/>
<path d="M528.844 271.685H273.634V368.794H528.844V271.685Z" fill="#F2E205"/>
<path opacity="0.6" d="M528.844 271.685H273.634V368.794H528.844V271.685Z" fill="white"/>
<path d="M528.844 40.3374H273.634V63.8711H528.844V40.3374Z" fill="#F2E205"/>
<path opacity="0.6" d="M528.844 40.3374H273.634V63.8711H528.844V40.3374Z" fill="white"/>
<path d="M525.258 44.9097H278.221V55.3243H525.258V44.9097Z" fill="white"/>
<path d="M525.243 44.9097H497.272V55.3243H525.243V44.9097Z" fill="#263238" stroke="#263238" stroke-width="0.75" stroke-linecap="round" stroke-linejoin="round"/>
<path d="M341.097 84.9541H275.965C275.686 84.9782 275.406 84.9441 275.141 84.854C274.877 84.7639 274.634 84.6198 274.428 84.4309C274.222 84.2419 274.057 84.0122 273.945 83.7563C273.832 83.5004 273.774 83.2239 273.774 82.9444C273.774 82.6649 273.832 82.3884 273.945 82.1325C274.057 81.8767 274.222 81.647 274.428 81.458C274.634 81.2691 274.877 81.125 275.141 81.0349C275.406 80.9448 275.686 80.9107 275.965 80.9347H341.097C341.376 80.9107 341.656 80.9448 341.921 81.0349C342.185 81.125 342.428 81.2691 342.634 81.458C342.84 81.647 343.005 81.8767 343.117 82.1325C343.23 82.3884 343.288 82.6649 343.288 82.9444C343.288 83.2239 343.23 83.5004 343.117 83.7563C343.005 84.0122 342.84 84.2419 342.634 84.4309C342.428 84.6198 342.185 84.7639 341.921 84.854C341.656 84.9441 341.376 84.9782 341.097 84.9541Z" fill="#263238"/>
<path d="M341.097 99.0297H275.965C275.43 99.0297 274.917 98.8172 274.538 98.4389C274.16 98.0606 273.948 97.5475 273.948 97.0125C273.948 96.4775 274.16 95.9645 274.538 95.5862C274.917 95.2079 275.43 94.9954 275.965 94.9954H341.097C341.632 94.9954 342.145 95.2079 342.524 95.5862C342.902 95.9645 343.114 96.4775 343.114 97.0125C343.114 97.5475 342.902 98.0606 342.524 98.4389C342.145 98.8172 341.632 99.0297 341.097 99.0297Z" fill="#263238"/>
<path d="M341.097 113.09H275.965C275.686 113.114 275.406 113.08 275.141 112.99C274.877 112.9 274.634 112.756 274.428 112.567C274.222 112.378 274.057 112.148 273.945 111.892C273.832 111.636 273.774 111.36 273.774 111.08C273.774 110.801 273.832 110.524 273.945 110.269C274.057 110.013 274.222 109.783 274.428 109.594C274.634 109.405 274.877 109.261 275.141 109.171C275.406 109.081 275.686 109.047 275.965 109.071H341.097C341.376 109.047 341.656 109.081 341.921 109.171C342.185 109.261 342.428 109.405 342.634 109.594C342.84 109.783 343.005 110.013 343.117 110.269C343.23 110.524 343.288 110.801 343.288 111.08C343.288 111.36 343.23 111.636 343.117 111.892C343.005 112.148 342.84 112.378 342.634 112.567C342.428 112.756 342.185 112.9 341.921 112.99C341.656 113.08 341.376 113.114 341.097 113.09Z" fill="#263238"/>
<path d="M341.097 127.165H275.965C275.7 127.165 275.438 127.113 275.193 127.012C274.948 126.911 274.726 126.762 274.538 126.575C274.351 126.387 274.203 126.165 274.101 125.92C274 125.675 273.948 125.413 273.948 125.148C273.948 124.883 274 124.621 274.101 124.376C274.203 124.132 274.351 123.909 274.538 123.722C274.726 123.535 274.948 123.386 275.193 123.285C275.438 123.183 275.7 123.131 275.965 123.131H341.097C341.632 123.131 342.145 123.344 342.524 123.722C342.902 124.1 343.114 124.613 343.114 125.148C343.114 125.683 342.902 126.196 342.524 126.575C342.145 126.953 341.632 127.165 341.097 127.165Z" fill="#263238"/>
<path d="M341.097 141.226H275.965C275.686 141.25 275.406 141.216 275.141 141.126C274.877 141.036 274.634 140.892 274.428 140.703C274.222 140.514 274.057 140.284 273.945 140.028C273.832 139.772 273.774 139.496 273.774 139.216C273.774 138.937 273.832 138.66 273.945 138.405C274.057 138.149 274.222 137.919 274.428 137.73C274.634 137.541 274.877 137.397 275.141 137.307C275.406 137.217 275.686 137.183 275.965 137.207H341.097C341.376 137.183 341.656 137.217 341.921 137.307C342.185 137.397 342.428 137.541 342.634 137.73C342.84 137.919 343.005 138.149 343.117 138.405C343.23 138.66 343.288 138.937 343.288 139.216C343.288 139.496 343.23 139.772 343.117 140.028C343.005 140.284 342.84 140.514 342.634 140.703C342.428 140.892 342.185 141.036 341.921 141.126C341.656 141.216 341.376 141.25 341.097 141.226Z" fill="#263238"/>
<path d="M341.097 155.301H275.965C275.686 155.325 275.406 155.291 275.141 155.201C274.877 155.111 274.634 154.967 274.428 154.778C274.222 154.589 274.057 154.359 273.945 154.103C273.832 153.848 273.774 153.571 273.774 153.292C273.774 153.012 273.832 152.736 273.945 152.48C274.057 152.224 274.222 151.994 274.428 151.805C274.634 151.616 274.877 151.472 275.141 151.382C275.406 151.292 275.686 151.258 275.965 151.282H341.097C341.376 151.258 341.656 151.292 341.921 151.382C342.185 151.472 342.428 151.616 342.634 151.805C342.84 151.994 343.005 152.224 343.117 152.48C343.23 152.736 343.288 153.012 343.288 153.292C343.288 153.571 343.23 153.848 343.117 154.103C343.005 154.359 342.84 154.589 342.634 154.778C342.428 154.967 342.185 155.111 341.921 155.201C341.656 155.291 341.376 155.325 341.097 155.301Z" fill="#263238"/>
<path d="M341.097 169.377H275.965C275.7 169.377 275.438 169.325 275.193 169.223C274.948 169.122 274.726 168.973 274.538 168.786C274.351 168.599 274.203 168.376 274.101 168.132C274 167.887 273.948 167.625 273.948 167.36C273.948 167.095 274 166.832 274.101 166.588C274.203 166.343 274.351 166.121 274.538 165.933C274.726 165.746 274.948 165.597 275.193 165.496C275.438 165.395 275.7 165.343 275.965 165.343H341.097C341.632 165.343 342.145 165.555 342.524 165.933C342.902 166.312 343.114 166.825 343.114 167.36C343.114 167.895 342.902 168.408 342.524 168.786C342.145 169.164 341.632 169.377 341.097 169.377Z" fill="#263238"/>
<path d="M341.097 181.913H275.965C275.43 181.913 274.917 181.701 274.538 181.322C274.16 180.944 273.948 180.431 273.948 179.896C273.948 179.361 274.16 178.848 274.538 178.47C274.917 178.091 275.43 177.879 275.965 177.879H341.097C341.632 177.879 342.145 178.091 342.524 178.47C342.902 178.848 343.114 179.361 343.114 179.896C343.114 180.431 342.902 180.944 342.524 181.322C342.145 181.701 341.632 181.913 341.097 181.913Z" fill="#263238"/>
<path d="M341.097 195.944H275.965C275.686 195.968 275.406 195.934 275.141 195.844C274.877 195.754 274.634 195.61 274.428 195.421C274.222 195.232 274.057 195.002 273.945 194.746C273.832 194.49 273.774 194.214 273.774 193.934C273.774 193.655 273.832 193.378 273.945 193.122C274.057 192.866 274.222 192.637 274.428 192.448C274.634 192.259 274.877 192.115 275.141 192.025C275.406 191.935 275.686 191.9 275.965 191.924H341.097C341.376 191.9 341.656 191.935 341.921 192.025C342.185 192.115 342.428 192.259 342.634 192.448C342.84 192.637 343.005 192.866 343.117 193.122C343.23 193.378 343.288 193.655 343.288 193.934C343.288 194.214 343.23 194.49 343.117 194.746C343.005 195.002 342.84 195.232 342.634 195.421C342.428 195.61 342.185 195.754 341.921 195.844C341.656 195.934 341.376 195.968 341.097 195.944Z" fill="#263238"/>
<path d="M341.097 210.019H275.965C275.43 210.019 274.917 209.807 274.538 209.429C274.16 209.05 273.948 208.537 273.948 208.002C273.948 207.467 274.16 206.954 274.538 206.576C274.917 206.198 275.43 205.985 275.965 205.985H341.097C341.632 205.985 342.145 206.198 342.524 206.576C342.902 206.954 343.114 207.467 343.114 208.002C343.114 208.537 342.902 209.05 342.524 209.429C342.145 209.807 341.632 210.019 341.097 210.019Z" fill="#263238"/>
<path d="M341.097 224.08H275.965C275.686 224.104 275.406 224.07 275.141 223.98C274.877 223.89 274.634 223.746 274.428 223.557C274.222 223.368 274.057 223.138 273.945 222.882C273.832 222.626 273.774 222.35 273.774 222.07C273.774 221.791 273.832 221.514 273.945 221.258C274.057 221.002 274.222 220.773 274.428 220.584C274.634 220.395 274.877 220.251 275.141 220.161C275.406 220.071 275.686 220.036 275.965 220.06H341.097C341.376 220.036 341.656 220.071 341.921 220.161C342.185 220.251 342.428 220.395 342.634 220.584C342.84 220.773 343.005 221.002 343.117 221.258C343.23 221.514 343.288 221.791 343.288 222.07C343.288 222.35 343.23 222.626 343.117 222.882C343.005 223.138 342.84 223.368 342.634 223.557C342.428 223.746 342.185 223.89 341.921 223.98C341.656 224.07 341.376 224.104 341.097 224.08Z" fill="#263238"/>
<path d="M341.097 238.155H275.965C275.43 238.155 274.917 237.943 274.538 237.564C274.16 237.186 273.948 236.673 273.948 236.138C273.948 235.603 274.16 235.09 274.538 234.712C274.917 234.333 275.43 234.121 275.965 234.121H341.097C341.632 234.121 342.145 234.333 342.524 234.712C342.902 235.09 343.114 235.603 343.114 236.138C343.114 236.673 342.902 237.186 342.524 237.564C342.145 237.943 341.632 238.155 341.097 238.155Z" fill="#263238"/>
<path d="M341.097 252.216H275.965C275.686 252.24 275.406 252.206 275.141 252.116C274.877 252.026 274.634 251.882 274.428 251.693C274.222 251.504 274.057 251.274 273.945 251.018C273.832 250.762 273.774 250.486 273.774 250.206C273.774 249.927 273.832 249.65 273.945 249.394C274.057 249.138 274.222 248.909 274.428 248.72C274.634 248.531 274.877 248.387 275.141 248.297C275.406 248.207 275.686 248.172 275.965 248.196H341.097C341.376 248.172 341.656 248.207 341.921 248.297C342.185 248.387 342.428 248.531 342.634 248.72C342.84 248.909 343.005 249.138 343.117 249.394C343.23 249.65 343.288 249.927 343.288 250.206C343.288 250.486 343.23 250.762 343.117 251.018C343.005 251.274 342.84 251.504 342.634 251.693C342.428 251.882 342.185 252.026 341.921 252.116C341.656 252.206 341.376 252.24 341.097 252.216Z" fill="#263238"/>
<path d="M341.097 266.291H275.965C275.686 266.315 275.406 266.281 275.141 266.191C274.877 266.101 274.634 265.957 274.428 265.768C274.222 265.579 274.057 265.349 273.945 265.093C273.832 264.838 273.774 264.561 273.774 264.282C273.774 264.002 273.832 263.726 273.945 263.47C274.057 263.214 274.222 262.984 274.428 262.795C274.634 262.606 274.877 262.462 275.141 262.372C275.406 262.282 275.686 262.248 275.965 262.272H341.097C341.376 262.248 341.656 262.282 341.921 262.372C342.185 262.462 342.428 262.606 342.634 262.795C342.84 262.984 343.005 263.214 343.117 263.47C343.23 263.726 343.288 264.002 343.288 264.282C343.288 264.561 343.23 264.838 343.117 265.093C343.005 265.349 342.84 265.579 342.634 265.768C342.428 265.957 342.185 266.101 341.921 266.191C341.656 266.281 341.376 266.315 341.097 266.291Z" fill="#263238"/>
<path d="M528.351 84.9541H463.293C463.015 84.9782 462.735 84.9441 462.47 84.854C462.205 84.7639 461.962 84.6198 461.756 84.4309C461.55 84.2419 461.386 84.0122 461.273 83.7563C461.161 83.5004 461.103 83.2239 461.103 82.9444C461.103 82.6649 461.161 82.3884 461.273 82.1325C461.386 81.8767 461.55 81.647 461.756 81.458C461.962 81.2691 462.205 81.125 462.47 81.0349C462.735 80.9448 463.015 80.9107 463.293 80.9347H528.426C528.704 80.9107 528.985 80.9448 529.249 81.0349C529.514 81.125 529.757 81.2691 529.963 81.458C530.169 81.647 530.333 81.8767 530.446 82.1325C530.558 82.3884 530.617 82.6649 530.617 82.9444C530.617 83.2239 530.558 83.5004 530.446 83.7563C530.333 84.0122 530.169 84.2419 529.963 84.4309C529.757 84.6198 529.514 84.7639 529.249 84.854C528.985 84.9441 528.704 84.9782 528.426 84.9541H528.351Z" fill="#263238"/>
<path d="M528.351 99.0297H463.293C463.029 99.0297 462.766 98.9775 462.521 98.8762C462.277 98.7748 462.054 98.6262 461.867 98.4389C461.68 98.2516 461.531 98.0292 461.43 97.7845C461.328 97.5397 461.276 97.2774 461.276 97.0125C461.276 96.7476 461.328 96.4853 461.43 96.2406C461.531 95.9959 461.68 95.7735 461.867 95.5862C462.054 95.3989 462.277 95.2503 462.521 95.1489C462.766 95.0475 463.029 94.9954 463.293 94.9954H528.426C528.961 94.9954 529.474 95.2079 529.852 95.5862C530.231 95.9645 530.443 96.4775 530.443 97.0125C530.443 97.5475 530.231 98.0606 529.852 98.4389C529.474 98.8172 528.961 99.0297 528.426 99.0297H528.351Z" fill="#263238"/>
<path d="M528.351 113.09H463.293C463.015 113.114 462.735 113.08 462.47 112.99C462.205 112.9 461.962 112.756 461.756 112.567C461.55 112.378 461.386 112.148 461.273 111.892C461.161 111.636 461.103 111.36 461.103 111.08C461.103 110.801 461.161 110.524 461.273 110.269C461.386 110.013 461.55 109.783 461.756 109.594C461.962 109.405 462.205 109.261 462.47 109.171C462.735 109.081 463.015 109.047 463.293 109.071H528.426C528.704 109.047 528.985 109.081 529.249 109.171C529.514 109.261 529.757 109.405 529.963 109.594C530.169 109.783 530.333 110.013 530.446 110.269C530.558 110.524 530.617 110.801 530.617 111.08C530.617 111.36 530.558 111.636 530.446 111.892C530.333 112.148 530.169 112.378 529.963 112.567C529.757 112.756 529.514 112.9 529.249 112.99C528.985 113.08 528.704 113.114 528.426 113.09H528.351Z" fill="#263238"/>
<path d="M528.351 127.165H463.293C463.029 127.165 462.766 127.113 462.521 127.012C462.277 126.911 462.054 126.762 461.867 126.575C461.68 126.387 461.531 126.165 461.43 125.92C461.328 125.675 461.276 125.413 461.276 125.148C461.276 124.883 461.328 124.621 461.43 124.376C461.531 124.132 461.68 123.909 461.867 123.722C462.054 123.535 462.277 123.386 462.521 123.285C462.766 123.183 463.029 123.131 463.293 123.131H528.426C528.961 123.131 529.474 123.344 529.852 123.722C530.231 124.1 530.443 124.613 530.443 125.148C530.443 125.683 530.231 126.196 529.852 126.575C529.474 126.953 528.961 127.165 528.426 127.165H528.351Z" fill="#263238"/>
<path d="M528.351 141.226H463.293C463.015 141.25 462.735 141.216 462.47 141.126C462.205 141.036 461.962 140.892 461.756 140.703C461.55 140.514 461.386 140.284 461.273 140.028C461.161 139.772 461.103 139.496 461.103 139.216C461.103 138.937 461.161 138.66 461.273 138.405C461.386 138.149 461.55 137.919 461.756 137.73C461.962 137.541 462.205 137.397 462.47 137.307C462.735 137.217 463.015 137.183 463.293 137.207H528.426C528.704 137.183 528.985 137.217 529.249 137.307C529.514 137.397 529.757 137.541 529.963 137.73C530.169 137.919 530.333 138.149 530.446 138.405C530.558 138.66 530.617 138.937 530.617 139.216C530.617 139.496 530.558 139.772 530.446 140.028C530.333 140.284 530.169 140.514 529.963 140.703C529.757 140.892 529.514 141.036 529.249 141.126C528.985 141.216 528.704 141.25 528.426 141.226H528.351Z" fill="#263238"/>
<path d="M528.351 155.301H463.293C463.015 155.325 462.735 155.291 462.47 155.201C462.205 155.111 461.962 154.967 461.756 154.778C461.55 154.589 461.386 154.359 461.273 154.103C461.161 153.848 461.103 153.571 461.103 153.292C461.103 153.012 461.161 152.736 461.273 152.48C461.386 152.224 461.55 151.994 461.756 151.805C461.962 151.616 462.205 151.472 462.47 151.382C462.735 151.292 463.015 151.258 463.293 151.282H528.426C528.704 151.258 528.985 151.292 529.249 151.382C529.514 151.472 529.757 151.616 529.963 151.805C530.169 151.994 530.333 152.224 530.446 152.48C530.558 152.736 530.617 153.012 530.617 153.292C530.617 153.571 530.558 153.848 530.446 154.103C530.333 154.359 530.169 154.589 529.963 154.778C529.757 154.967 529.514 155.111 529.249 155.201C528.985 155.291 528.704 155.325 528.426 155.301H528.351Z" fill="#263238"/>
<path d="M528.351 169.377H463.293C463.029 169.377 462.766 169.325 462.521 169.223C462.277 169.122 462.054 168.973 461.867 168.786C461.68 168.599 461.531 168.376 461.43 168.132C461.328 167.887 461.276 167.625 461.276 167.36C461.276 167.095 461.328 166.832 461.43 166.588C461.531 166.343 461.68 166.121 461.867 165.933C462.054 165.746 462.277 165.597 462.521 165.496C462.766 165.395 463.029 165.343 463.293 165.343H528.426C528.961 165.343 529.474 165.555 529.852 165.933C530.231 166.312 530.443 166.825 530.443 167.36C530.443 167.895 530.231 168.408 529.852 168.786C529.474 169.164 528.961 169.377 528.426 169.377H528.351Z" fill="#263238"/>
<path d="M528.889 178.82H461.665V255.936H528.889V178.82Z" fill="#F2E205"/>
<path opacity="0.6" d="M528.889 178.82H461.665V255.936H528.889V178.82Z" fill="white"/>
<path d="M562.404 318.469C562.001 303.288 563.181 277.378 549.853 266.71C538.153 257.341 529.054 270.057 525.781 280.307C517.817 305.185 518.669 398.812 520.731 417.669C520.731 417.669 518.699 398.783 503.861 406.881C489.024 414.98 511.332 457.49 511.332 457.49C511.332 457.49 493.79 444.67 485.692 455.458C477.593 466.246 495.822 478.409 495.822 478.409C495.822 478.409 478.953 473.687 478.953 478.409C478.953 483.13 484.347 487.18 499.872 489.212H583.547C583.547 489.212 596.995 481.741 594.35 473.687C591.706 465.633 577.421 470.295 577.421 470.295C577.421 470.295 599.012 443.982 597.653 432.507C596.293 421.031 568.635 434.524 568.635 434.524C568.635 434.524 590.241 379.866 586.192 355.57C582.994 336.429 568.142 349.593 560.058 356.885C561.959 344.173 562.744 331.318 562.404 318.469Z" fill="#F2E205"/>
<path opacity="0.1" d="M562.404 318.469C562.001 303.288 563.181 277.378 549.853 266.71C538.153 257.341 529.054 270.057 525.781 280.307C517.817 305.185 518.669 398.812 520.731 417.669C520.731 417.669 518.699 398.783 503.861 406.881C489.024 414.98 511.332 457.49 511.332 457.49C511.332 457.49 493.79 444.67 485.692 455.458C477.593 466.246 495.822 478.409 495.822 478.409C495.822 478.409 478.953 473.687 478.953 478.409C478.953 483.13 484.347 487.18 499.872 489.212H583.547C583.547 489.212 596.995 481.741 594.35 473.687C591.706 465.633 577.421 470.295 577.421 470.295C577.421 470.295 599.012 443.982 597.653 432.507C596.293 421.031 568.635 434.524 568.635 434.524C568.635 434.524 590.241 379.866 586.192 355.57C582.994 336.429 568.142 349.593 560.058 356.885C561.959 344.173 562.744 331.318 562.404 318.469Z" fill="black"/>
<path d="M535.494 487.404L541.65 302.944" stroke="#F2E205" stroke-width="1.72695" stroke-linecap="round" stroke-linejoin="round"/>
<path d="M538.945 410.93L570.667 381.226" stroke="#F2E205" stroke-width="1.72695" stroke-linecap="round" stroke-linejoin="round"/>
<path d="M553.798 397.423L560.536 378.536" stroke="#F2E205" stroke-width="1.72695" stroke-linecap="round" stroke-linejoin="round"/>
<path d="M512.632 433.866L536.465 459.283" stroke="#F2E205" stroke-width="1.72695" stroke-linecap="round" stroke-linejoin="round"/>
<path d="M577.421 448.719L536.928 469.638" stroke="#F2E205" stroke-width="1.72695" stroke-linecap="round" stroke-linejoin="round"/>
<path d="M557.01 459.029L570.667 460.194" stroke="#F2E205" stroke-width="1.72695" stroke-linecap="round" stroke-linejoin="round"/>
<path d="M257.975 489.929C257.975 495.488 205.005 500 139.678 500C74.3517 500 21.3672 495.517 21.3672 489.929C21.3672 484.341 74.3368 479.858 139.678 479.858C205.02 479.858 257.975 484.371 257.975 489.929Z" fill="#263238"/>
<path d="M80.7768 304.961C80.7768 304.961 89.9214 300.329 93.8959 304.304C97.8705 308.278 96.2717 350.804 97.4671 364.311C98.1912 372.368 99.6771 380.338 101.905 388.114C101.905 388.114 88.7858 385.738 78.8493 380.643C78.8493 380.643 70.1082 338.207 80.7768 304.961Z" fill="#263238" stroke="#263238" stroke-width="0.75" stroke-linecap="round" stroke-linejoin="round"/>
<path d="M262.846 401.263C261.771 401.262 260.727 400.897 259.885 400.228C259.043 399.559 258.452 398.625 258.208 397.578C257.964 396.531 258.081 395.432 258.541 394.46C259 393.487 259.775 392.699 260.739 392.223L303.936 372.798L337.466 334.233C338.281 333.266 339.446 332.662 340.706 332.554C341.965 332.446 343.216 332.843 344.183 333.657C345.15 334.472 345.754 335.637 345.862 336.897C345.969 338.156 345.573 339.407 344.758 340.374L310.586 379.701C310.177 380.204 309.668 380.616 309.091 380.912L264.983 400.77C264.321 401.105 263.588 401.274 262.846 401.263Z" fill="white" stroke="#263238" stroke-width="0.75" stroke-linecap="round" stroke-linejoin="round"/>
<path d="M292.386 384.423L297.123 382.271" stroke="#263238" stroke-width="0.75" stroke-linecap="round" stroke-linejoin="round"/>
<path d="M270.541 394.36L289.263 385.843" stroke="#263238" stroke-width="0.75" stroke-linecap="round" stroke-linejoin="round"/>
<path d="M334.568 346.829L322.091 360.934" stroke="#263238" stroke-width="0.75" stroke-linecap="round" stroke-linejoin="round"/>
<path d="M320.074 362.951L317.25 366.164" stroke="#263238" stroke-width="0.75" stroke-linecap="round" stroke-linejoin="round"/>
<path d="M268.599 418.395C273.883 396.11 260.101 373.761 237.816 368.477C215.531 363.193 193.181 376.975 187.897 399.26C182.613 421.545 196.395 443.894 218.68 449.178C240.965 454.462 263.315 440.68 268.599 418.395Z" fill="#F2E205" stroke="#263238" stroke-width="0.747671" stroke-linecap="round" stroke-linejoin="round"/>
<path d="M124.602 255.339C124.602 255.339 130.579 269.354 131.834 272.089C133.089 274.823 134.284 275.57 134 276.437C133.717 277.303 130.668 278.304 130.668 278.304C131.092 282.617 130.343 286.963 128.502 290.886C125.513 296.862 119.686 299.985 119.118 303.736C118.784 307.342 118.734 310.97 118.969 314.584L110.153 307.352C110.153 307.352 112.603 300.269 110.437 295.069C108.6 290.814 105.326 287.339 101.188 285.253C96.0351 281.871 92.3685 276.649 90.9374 270.654C89.6375 263.706 93.6718 256.34 99.0211 251.14C104.37 245.94 114.919 246.956 116.085 247.389C117.25 247.823 113.186 244.401 116.802 243.624C120.418 242.847 122.585 248.107 122.779 248.973C122.973 249.84 124.079 245.223 125.244 248.256C126.41 251.289 124.602 255.339 124.602 255.339Z" fill="white"/>
<g style="mix-blend-mode:multiply" opacity="0.5">
<path d="M113.829 310.415C113.776 309.413 113.662 308.415 113.485 307.427C112.902 304.797 116.473 296.609 117.579 286.971C118.685 277.334 111.139 263.871 111.139 263.871L105.611 247.838C103.155 248.364 100.882 249.529 99.0211 251.215C93.6718 256.415 89.6375 263.781 90.9374 270.729C92.3685 276.724 96.0351 281.946 101.188 285.328C105.326 287.414 108.6 290.889 110.437 295.144C112.603 300.344 110.153 307.427 110.153 307.427L113.829 310.415Z" fill="#F2E205"/>
</g>
<path d="M124.602 255.339C124.602 255.339 130.579 269.354 131.834 272.089C133.089 274.823 134.284 275.57 134 276.437C133.717 277.303 130.668 278.304 130.668 278.304C131.092 282.617 130.343 286.963 128.502 290.886C125.513 296.862 119.686 299.985 119.118 303.736C118.784 307.342 118.734 310.97 118.969 314.584L110.153 307.352C110.153 307.352 112.603 300.269 110.437 295.069C108.6 290.814 105.326 287.339 101.188 285.253C96.0351 281.871 92.3685 276.649 90.9374 270.654C89.6375 263.706 93.6718 256.34 99.0211 251.14C104.37 245.94 114.919 246.956 116.085 247.389C117.25 247.823 113.186 244.401 116.802 243.624C120.418 242.847 122.585 248.107 122.779 248.973C122.973 249.84 124.079 245.223 125.244 248.256C126.41 251.289 124.602 255.339 124.602 255.339Z" stroke="#263238" stroke-width="0.75" stroke-linecap="round" stroke-linejoin="round"/>
<path d="M125.17 262.795C125.17 262.795 122.555 262.077 121.688 264.289C121.416 264.795 121.262 265.357 121.239 265.932C121.216 266.507 121.323 267.079 121.554 267.606" stroke="#263238" stroke-width="0.75" stroke-linecap="round" stroke-linejoin="round"/>
<path d="M128.218 284.819C128.218 284.819 125.618 286.119 124.019 284.386" stroke="#263238" stroke-width="0.75" stroke-linecap="round" stroke-linejoin="round"/>
<path d="M123.123 272.701L111.079 277.916" stroke="#263238" stroke-width="0.75" stroke-linecap="round" stroke-linejoin="round"/>
<path d="M106.044 284.251C104.418 286.646 103.659 289.525 103.892 292.41C104.251 297.341 104.131 304.065 101.606 303.467C99.0809 302.869 102.801 295.294 102.801 292.171C102.652 289.791 102.107 287.453 101.188 285.253" stroke="#263238" stroke-width="0.75" stroke-linecap="round" stroke-linejoin="round"/>
<path d="M131.909 268.906L129.07 270.131" stroke="#263238" stroke-width="0.75" stroke-linecap="round" stroke-linejoin="round"/>
<path d="M127.262 271.715C127.635 272.985 127.635 274.106 127.262 274.21C126.888 274.315 126.29 273.374 125.917 272.104C125.543 270.834 125.558 269.713 125.917 269.593C126.275 269.474 126.903 270.43 127.262 271.715Z" fill="#263238"/>
<path d="M128.771 271.715C129.772 274.703 129.518 277.468 128.203 277.916C126.888 278.364 125.005 276.287 124.004 273.314C123.003 270.34 123.257 267.546 124.572 267.098C125.887 266.65 127.77 268.727 128.771 271.715Z" stroke="#263238" stroke-width="0.75" stroke-linecap="round" stroke-linejoin="round"/>
<path d="M108.808 283.295C108.808 283.295 106.432 280.426 108.569 280.666C109.24 280.804 109.861 281.122 110.366 281.585C110.871 282.048 111.242 282.639 111.438 283.295" stroke="#263238" stroke-width="0.5" stroke-linecap="round" stroke-linejoin="round"/>
<path d="M175.614 332.35L167.232 338.282L168.532 345.215L178.08 341.465L175.614 332.35Z" fill="white" stroke="#263238" stroke-width="0.75" stroke-linecap="round" stroke-linejoin="round"/>
<path d="M168.098 336.549L171.864 350.564C171.864 350.564 146.522 362.13 141.516 365.701C136.511 369.272 132.551 368.301 132.551 368.301L129.234 352.104C129.234 352.104 132.835 353.837 140.5 350.52C148.166 347.203 168.098 336.549 168.098 336.549Z" fill="white" stroke="#263238" stroke-width="0.75" stroke-linecap="round" stroke-linejoin="round"/>
<path d="M180.545 373.022C180.036 372.969 179.562 372.735 179.211 372.362C178.86 371.989 178.655 371.502 178.632 370.99L175.285 315.54C175.251 315.247 175.278 314.95 175.364 314.667C175.45 314.385 175.593 314.123 175.784 313.898C175.976 313.673 176.211 313.49 176.476 313.36C176.741 313.231 177.03 313.157 177.325 313.143C177.62 313.13 177.915 313.177 178.191 313.283C178.466 313.388 178.718 313.549 178.928 313.756C179.139 313.962 179.305 314.21 179.416 314.484C179.528 314.757 179.581 315.051 179.574 315.346L182.921 370.781C182.935 371.064 182.893 371.346 182.798 371.613C182.702 371.879 182.555 372.124 182.365 372.334C182.175 372.543 181.945 372.713 181.69 372.834C181.434 372.955 181.156 373.024 180.874 373.037L180.545 373.022Z" fill="#263238" stroke="#263238" stroke-width="0.75" stroke-linecap="round" stroke-linejoin="round"/>
<path d="M174.165 331.035C173.632 331.013 173.128 330.793 172.748 330.42C172.368 330.046 172.14 329.545 172.108 329.013C172.077 328.481 172.244 327.957 172.577 327.541C172.909 327.125 173.385 326.847 173.911 326.762L182.293 325.746C182.584 325.687 182.884 325.689 183.173 325.752C183.463 325.814 183.737 325.936 183.978 326.109C184.218 326.283 184.42 326.504 184.571 326.759C184.722 327.014 184.819 327.298 184.855 327.593C184.891 327.887 184.866 328.185 184.781 328.47C184.697 328.754 184.554 329.017 184.363 329.244C184.171 329.47 183.935 329.655 183.669 329.786C183.403 329.917 183.112 329.991 182.816 330.004L174.434 331.02L174.165 331.035Z" fill="white" stroke="#263238" stroke-width="0.75" stroke-linecap="round" stroke-linejoin="round"/>
<path d="M174.598 335.368C174.066 335.346 173.561 335.126 173.181 334.753C172.801 334.379 172.573 333.878 172.542 333.346C172.51 332.815 172.677 332.29 173.01 331.874C173.343 331.458 173.818 331.181 174.344 331.095L182.726 330.079C183.292 330.016 183.861 330.178 184.308 330.53C184.755 330.882 185.046 331.397 185.117 331.962C185.151 332.24 185.129 332.523 185.053 332.793C184.977 333.063 184.849 333.316 184.675 333.536C184.502 333.757 184.287 333.941 184.042 334.079C183.797 334.216 183.528 334.304 183.249 334.337L174.867 335.353L174.598 335.368Z" fill="white" stroke="#263238" stroke-width="0.75" stroke-linecap="round" stroke-linejoin="round"/>
<path d="M175.061 339.313C174.537 339.311 174.032 339.109 173.652 338.748C173.271 338.387 173.042 337.895 173.011 337.371C172.981 336.847 173.151 336.331 173.488 335.929C173.824 335.526 174.301 335.267 174.822 335.204L182.846 334.233C183.117 334.197 183.391 334.215 183.655 334.286C183.918 334.357 184.165 334.48 184.381 334.647C184.596 334.814 184.777 335.023 184.911 335.26C185.046 335.498 185.132 335.759 185.164 336.03C185.197 336.301 185.176 336.576 185.101 336.838C185.027 337.101 184.901 337.346 184.731 337.56C184.562 337.773 184.351 337.951 184.112 338.083C183.873 338.215 183.61 338.297 183.339 338.327L175.315 339.298L175.061 339.313Z" fill="white" stroke="#263238" stroke-width="0.75" stroke-linecap="round" stroke-linejoin="round"/>
<path d="M176.406 343.094C175.993 343.053 175.61 342.858 175.333 342.548C175.056 342.238 174.906 341.836 174.912 341.42C174.828 340.972 174.912 340.51 175.145 340.119C175.379 339.728 175.748 339.436 176.182 339.298L181.86 338.387C182.667 338.282 183.354 339.014 183.474 340.06C183.564 340.509 183.484 340.974 183.249 341.367C183.014 341.759 182.641 342.05 182.204 342.182L176.54 343.079L176.406 343.094Z" fill="white" stroke="#263238" stroke-width="0.75" stroke-linecap="round" stroke-linejoin="round"/>
<path d="M173.328 336.265C173.303 336.673 173.13 337.058 172.841 337.347C172.552 337.636 172.167 337.809 171.759 337.834C171.317 337.955 170.846 337.909 170.435 337.705C170.025 337.501 169.703 337.153 169.533 336.728L168.218 331.14C168.038 330.348 168.711 329.571 169.712 329.392C170.152 329.278 170.618 329.327 171.025 329.531C171.431 329.734 171.75 330.077 171.923 330.497L173.253 336.101C173.253 336.101 173.313 336.205 173.328 336.265Z" fill="white" stroke="#263238" stroke-width="0.75" stroke-linecap="round" stroke-linejoin="round"/>
<path d="M106.97 303.019C106.97 303.019 117.235 309.234 122.002 317.034C126.768 324.834 130.818 336.459 133.134 346.664C135.45 356.87 137.318 383.511 138.767 389.01C139.468 391.928 140.538 394.745 141.95 397.393C133.586 400.498 124.704 401.969 115.786 401.726C101.621 401.143 99.4544 397.677 99.4544 397.677C99.4544 397.677 94.6879 366.179 95.1212 341.166C95.5545 316.153 106.97 303.019 106.97 303.019Z" fill="white"/>
<g style="mix-blend-mode:multiply" opacity="0.5">
<path d="M100.919 331.334C100.919 331.334 99.4245 333.68 100.62 327.539C101.587 323.243 103.162 319.107 105.297 315.256L112.305 323.146L116.698 323.445L115.532 325.492L124.004 330.751L119.985 326.015L120.269 318.783L113.485 320.875C113.485 320.875 109.092 312.985 107.927 310.415C107.15 308.652 109.75 307.158 111.572 306.366C110.095 305.216 108.559 304.143 106.97 303.153C106.97 303.153 95.5545 316.302 95.1212 341.3C94.7776 361.129 97.7062 385.021 98.9315 394.076L121.345 392.836L100.919 331.334Z" fill="#F2E205"/>
</g>
<path d="M106.97 303.019C106.97 303.019 117.235 309.234 122.002 317.034C126.768 324.834 130.818 336.459 133.134 346.664C135.45 356.87 137.318 383.511 138.767 389.01C139.468 391.928 140.538 394.745 141.95 397.393C133.586 400.498 124.704 401.969 115.786 401.726C101.621 401.143 99.4544 397.677 99.4544 397.677C99.4544 397.677 94.6879 366.179 95.1212 341.166C95.5545 316.153 106.97 303.019 106.97 303.019Z" stroke="#263238" stroke-width="0.75" stroke-linecap="round" stroke-linejoin="round"/>
<path d="M103.937 308.084L114.636 320.934L120.269 318.768L119.985 326L128.502 336.265" stroke="#263238" stroke-width="0.75" stroke-linecap="round" stroke-linejoin="round"/>
<path d="M97.3625 335.323C97.3625 335.323 98.5579 347.277 102.129 350.116" stroke="#263238" stroke-width="0.5" stroke-linecap="round" stroke-linejoin="round"/>
<path d="M98.0798 348.219C98.0798 348.219 99.574 352.701 103.324 354.195" stroke="#263238" stroke-width="0.5" stroke-linecap="round" stroke-linejoin="round"/>
<path d="M129.099 341.764L122.898 344.154L123.855 346.784L129.578 344.633" stroke="#263238" stroke-width="0.5" stroke-linecap="round" stroke-linejoin="round"/>
<path d="M170.922 386.784C170.409 386.783 169.914 386.599 169.525 386.264C169.136 385.93 168.879 385.468 168.801 384.961L161.061 334.696C161.018 334.416 161.032 334.131 161.1 333.857C161.168 333.582 161.289 333.324 161.457 333.096C161.625 332.869 161.836 332.677 162.078 332.531C162.32 332.385 162.589 332.288 162.869 332.246C163.148 332.203 163.433 332.217 163.708 332.285C163.982 332.353 164.241 332.474 164.468 332.642C164.696 332.81 164.888 333.021 165.034 333.263C165.18 333.505 165.277 333.774 165.319 334.054L173.059 384.319C173.141 384.883 172.997 385.456 172.658 385.915C172.32 386.374 171.814 386.681 171.251 386.769L170.922 386.784Z" fill="#263238" stroke="#263238" stroke-width="0.75" stroke-linecap="round" stroke-linejoin="round"/>
<path d="M124.602 255.339C124.602 255.339 126.335 251.289 125.185 248.256C124.034 245.223 122.869 249.84 122.719 248.973C122.57 248.107 120.418 242.907 116.742 243.624C113.067 244.341 117.176 247.823 116.025 247.389C114.875 246.956 104.311 245.895 98.9613 251.14C93.6121 256.385 89.5777 263.706 90.8777 270.654C92.3088 276.649 95.9753 281.871 101.128 285.253C103.833 286.64 106.192 288.616 108.031 291.035C109.584 289.788 111.001 288.381 112.26 286.837C111.509 287.076 110.712 287.136 109.933 287.012C109.154 286.887 108.416 286.581 107.777 286.119C105.461 284.52 104.311 279.903 107.209 277.587C110.108 275.271 112.902 280.531 112.902 280.531C115.891 282.13 114.77 277.931 113.62 276.048C112.469 274.166 114.053 272.134 114.486 269.399C114.919 266.665 111.169 265.634 111.602 262.884C112.036 260.135 124.602 255.339 124.602 255.339Z" fill="#263238" stroke="#263238" stroke-width="0.75" stroke-linecap="round" stroke-linejoin="round"/>
<path d="M117.639 257.281C117.639 257.281 112.394 254.651 109.047 258.775C105.7 262.899 106.432 269.758 103.803 273.807C103.188 274.922 102.332 275.887 101.299 276.631C100.265 277.376 99.0787 277.881 97.8257 278.11" stroke="white" stroke-width="0.5" stroke-linecap="round" stroke-linejoin="round"/>
<path d="M94.7327 270.893C96.3124 271.063 97.8958 270.607 99.144 269.624C100.392 268.641 101.206 267.209 101.412 265.634C102.607 259.657 109.286 251.08 115.98 250.841C122.674 250.602 122.181 255.324 122.181 255.324" stroke="white" stroke-width="0.5" stroke-linecap="round" stroke-linejoin="round"/>
<path d="M152.499 354.031L156.682 351.282C156.682 351.282 160.298 344.632 160.582 344.199C160.866 343.766 169.697 339.432 170.414 340.015C170.821 340.37 171.137 340.817 171.337 341.318C171.537 341.82 171.615 342.362 171.565 342.899C171.281 343.631 170.265 344.393 170.265 345.081C170.265 345.768 171.43 351.282 171.43 352.731C171.43 354.18 165.453 356.631 163.048 357.363C160.642 358.095 157.415 358.08 156.682 358.663L154.665 360.247L152.499 354.031Z" fill="white" stroke="#263238" stroke-width="0.75" stroke-linecap="round" stroke-linejoin="round"/>
<path d="M103.937 324.849C103.937 324.849 100.187 325.85 101.487 336.399C102.787 346.948 113.336 382.496 117.086 386.844C120.837 391.192 157.43 366.896 157.43 366.896L152.947 353.015C152.947 353.015 128.233 362.697 126.216 363.131C124.198 363.564 118.401 332.066 116.384 328.166" fill="white"/>
<g style="mix-blend-mode:multiply" opacity="0.5">
<path d="M156.757 364.879C149.152 367.285 131.55 372.768 129.264 372.529C126.275 372.246 125.469 370.482 123.705 368.151C121.942 365.82 119.327 375.159 116.981 376.041C114.636 376.922 116.399 365.581 117.28 363.176C118.162 360.77 115.233 364.356 115.233 364.356C115.233 364.356 109.391 352.402 106.462 344.184C104.606 338.819 103.142 333.326 102.084 327.748L101.427 329.362C101.097 331.676 101.097 334.025 101.427 336.34C102.727 346.889 113.276 382.436 117.026 386.784C120.777 391.132 157.37 366.836 157.37 366.836L156.757 364.879Z" fill="#F2E205"/>
</g>
<path d="M103.937 324.849C103.937 324.849 100.187 325.85 101.487 336.399C102.787 346.948 113.336 382.496 117.086 386.844C120.837 391.192 157.43 366.896 157.43 366.896L152.947 353.015C152.947 353.015 128.233 362.697 126.216 363.131C124.198 363.564 118.401 332.066 116.384 328.166" stroke="#263238" stroke-width="0.75" stroke-linecap="round" stroke-linejoin="round"/>
<path d="M126.201 363.131C124.727 364.084 123.463 365.326 122.485 366.782C121.506 368.239 120.833 369.879 120.508 371.603" stroke="#263238" stroke-width="0.5" stroke-linecap="round" stroke-linejoin="round"/>
<path d="M120.747 366.343C119.743 367.345 118.951 368.539 118.417 369.853C117.883 371.167 117.618 372.575 117.639 373.994" stroke="#263238" stroke-width="0.5" stroke-linecap="round" stroke-linejoin="round"/>
<path d="M83.4963 378.088C83.4963 378.088 79.5217 364.834 80.0447 337.281C80.5676 309.728 82.1665 307.083 80.8366 304.961C79.5068 302.84 55.4351 317.02 37.5046 337.684C26.0889 350.893 11.5054 370.452 10.5491 401.263C9.75722 425.902 21.4718 445.82 28.8233 451.334C41.539 460.867 58.9017 460.209 60.7545 460.209H238.206C238.206 460.209 249.592 456.235 252.237 445.91C254.882 435.585 263.892 406.164 245.095 370.931C232.753 347.815 210.653 322.981 206.933 324.834C203.212 326.687 189.316 353.224 170.384 369.87C152.499 385.604 118.461 397.154 83.4963 378.088Z" fill="#F2E205" stroke="#263238" stroke-width="0.75" stroke-linecap="round" stroke-linejoin="round"/>
<path d="M245.14 370.93C242.495 366 239.417 360.994 236.174 356.183C225.805 359.754 199.805 370.422 185.371 391.73C172.984 410.019 181.217 439.036 207.037 460.209H238.221C238.221 460.209 249.607 456.235 252.252 445.895C254.897 435.555 263.892 406.164 245.14 370.93Z" fill="white" stroke="#263238" stroke-width="0.75" stroke-linecap="round" stroke-linejoin="round"/>
<path d="M250.832 426.679C250.553 429.269 250.14 431.924 249.592 434.643" stroke="#263238" stroke-width="0.75" stroke-linecap="round" stroke-linejoin="round"/>
<path d="M241.942 375.428C241.942 375.428 252.685 393.941 251.311 420.942" stroke="#263238" stroke-width="0.75" stroke-linecap="round" stroke-linejoin="round"/>
<path d="M79.2826 456.444V429.952C65.4612 425.469 56.5408 420.15 48.2181 415.159C36.2644 408.002 27.8969 388.712 33.5151 376.22C38.6701 364.685 52.9398 359.53 60.5303 364.685C67.9381 369.553 75.5884 374.041 83.4515 378.133C83.4515 378.133 79.4769 364.879 79.9998 337.326C80.5228 309.773 82.1216 307.128 80.7918 305.006C79.4619 302.885 55.3903 317.065 37.4598 337.729C26.0889 350.893 11.5054 370.452 10.5491 401.263C9.75722 425.902 21.4718 445.82 28.8233 451.334C41.539 460.867 58.9017 460.209 60.7545 460.209H79.2826C79.2826 458.85 79.2826 457.58 79.2826 456.444Z" fill="white" stroke="#263238" stroke-width="0.75" stroke-linecap="round" stroke-linejoin="round"/>
<path d="M16.1823 406.448C16.3176 409.71 16.667 412.959 17.2282 416.175" stroke="#263238" stroke-width="0.75" stroke-linecap="round" stroke-linejoin="round"/>
<path d="M58.9016 324.969C54.5983 328.824 48.1732 333.351 44.1837 337.968C32.753 351.177 17.1385 370.049 16.1523 400.859" stroke="#263238" stroke-width="0.75" stroke-linecap="round" stroke-linejoin="round"/>
<path d="M120.582 457.027C120.582 471.595 98.1694 472.925 70.3771 472.925C42.5849 472.925 20.1718 472.387 20.1718 457.027C20.1718 435.809 42.5849 415.189 70.3771 415.189C98.1694 415.189 120.582 435.809 120.582 457.027Z" fill="#F2E205" stroke="#263238" stroke-width="0.75" stroke-linecap="round" stroke-linejoin="round"/>
<path d="M70.3174 415.174C44.6619 415.174 23.5338 432.835 20.5005 452.275C23.489 464.513 44.6619 464.976 70.3174 464.976C95.9729 464.976 117.041 463.84 120.119 452.185C117.101 432.776 95.9878 415.174 70.3174 415.174Z" fill="#263238" stroke="#263238" stroke-width="0.75" stroke-linecap="round" stroke-linejoin="round"/>
<path d="M250.384 458.581C250.384 471.774 230.033 472.985 204.93 472.985C179.828 472.985 159.462 472.507 159.462 458.581C159.462 439.38 179.813 420.673 204.93 420.673C230.048 420.673 250.384 439.38 250.384 458.581Z" fill="#F2E205" stroke="#263238" stroke-width="0.75" stroke-linecap="round" stroke-linejoin="round"/>
<path d="M204.93 420.673C181.695 420.673 162.555 436.676 159.82 454.292C162.555 465.364 181.695 465.783 204.93 465.783C228.165 465.783 247.231 464.752 250.026 454.203C247.231 436.631 228.12 420.673 204.93 420.673Z" fill="#263238" stroke="#263238" stroke-width="0.75" stroke-linecap="round" stroke-linejoin="round"/>
<path d="M381.919 301.45C380.142 300.785 378.702 299.443 377.915 297.717C377.128 295.991 377.058 294.023 377.72 292.246L397.892 238.32C398.221 237.437 398.72 236.627 399.362 235.937C400.003 235.247 400.775 234.69 401.631 234.298C402.488 233.906 403.414 233.687 404.355 233.653C405.297 233.618 406.236 233.77 407.119 234.099C408.002 234.427 408.812 234.927 409.502 235.568C410.192 236.21 410.748 236.981 411.14 237.838C411.532 238.695 411.752 239.62 411.786 240.562C411.82 241.503 411.669 242.442 411.34 243.325L391.168 297.251C390.84 298.136 390.339 298.948 389.695 299.638C389.051 300.329 388.277 300.885 387.418 301.276C386.558 301.666 385.63 301.882 384.686 301.912C383.742 301.942 382.802 301.785 381.919 301.45Z" fill="white" stroke="#263238" stroke-width="0.75" stroke-linecap="round" stroke-linejoin="round"/>
<path d="M405.139 248.032L393.813 277.797" stroke="#263238" stroke-width="0.75" stroke-linecap="round" stroke-linejoin="round"/>
<path d="M351.228 383.631C349.663 383.048 348.228 382.162 347.006 381.024C345.783 379.886 344.797 378.518 344.103 376.998C343.409 375.479 343.022 373.838 342.962 372.168C342.903 370.499 343.173 368.835 343.757 367.27L372.55 290.273C373.739 287.113 376.135 284.554 379.21 283.16C382.286 281.766 385.789 281.651 388.949 282.84C392.11 284.029 394.668 286.424 396.063 289.5C397.457 292.575 397.572 296.078 396.383 299.239L367.53 376.16C366.351 379.307 363.975 381.859 360.92 383.259C357.866 384.659 354.381 384.793 351.228 383.631Z" fill="#263238" stroke="#263238" stroke-width="0.75" stroke-linecap="round" stroke-linejoin="round"/>
<path d="M458.109 100.001C443.754 94.6328 428.129 93.642 413.211 97.1538C398.293 100.666 384.751 108.522 374.298 119.73C363.845 130.938 356.951 144.994 354.486 160.121C352.022 175.247 354.098 190.765 360.453 204.711C366.807 218.658 377.155 230.407 390.187 238.472C403.219 246.538 418.35 250.558 433.666 250.024C448.983 249.49 463.797 244.426 476.236 235.473C488.675 226.52 498.179 214.079 503.548 199.724C510.742 180.474 509.997 159.155 501.476 140.454C492.955 121.754 477.356 107.203 458.109 100.001ZM408.516 232.597C396.648 228.156 386.363 220.296 378.962 210.01C371.561 199.724 367.376 187.475 366.936 174.811C366.497 162.147 369.822 149.637 376.492 138.862C383.163 128.088 392.878 119.534 404.409 114.281C415.941 109.028 428.771 107.313 441.278 109.351C453.785 111.39 465.406 117.092 474.672 125.735C483.939 134.379 490.434 145.575 493.337 157.91C496.24 170.245 495.42 183.164 490.981 195.032C485.025 210.948 472.991 223.846 457.527 230.89C442.062 237.934 424.433 238.548 408.516 232.597Z" fill="#263238" stroke="#263238" stroke-width="0.75" stroke-linecap="round" stroke-linejoin="round"/>
<path d="M379.005 149.041C382.115 142.186 386.552 136.015 392.061 130.885C397.57 125.756 404.042 121.769 411.101 119.157" stroke="#263238" stroke-width="0.75" stroke-linecap="round" stroke-linejoin="round"/>
<path d="M373.88 172.769C373.865 166.957 374.742 161.176 376.48 155.63" stroke="#263238" stroke-width="0.75" stroke-linecap="round" stroke-linejoin="round"/>
<path d="M357.504 188.577C353.646 170.806 356.359 152.238 365.142 136.314C373.924 120.39 388.18 108.188 405.27 101.97C422.359 95.751 441.123 95.9368 458.086 102.493C475.049 109.048 489.06 121.53 497.526 137.625" stroke="white" stroke-miterlimit="10"/>
<path d="M505.624 163.624C507.815 181.53 503.495 199.626 493.452 214.611C483.41 229.596 468.315 240.471 450.922 245.253C433.528 250.034 414.996 248.403 398.705 240.656C382.414 232.91 369.451 219.565 362.181 203.056" stroke="white" stroke-miterlimit="10"/>
<path d="M500.544 144.125C502.495 148.879 503.952 153.821 504.892 158.873" stroke="white" stroke-miterlimit="10"/>
<path d="M130.086 436.75C141.994 436.75 151.647 427.097 151.647 415.189C151.647 403.281 141.994 393.627 130.086 393.627C118.178 393.627 108.524 403.281 108.524 415.189C108.524 427.097 118.178 436.75 130.086 436.75Z" fill="#263238"/>
<path d="M130.086 433.388C140.137 433.388 148.285 425.24 148.285 415.189C148.285 405.138 140.137 396.99 130.086 396.99C120.034 396.99 111.886 405.138 111.886 415.189C111.886 425.24 120.034 433.388 130.086 433.388Z" fill="white" stroke="#263238" stroke-width="0.75" stroke-linecap="round" stroke-linejoin="round"/>
<path d="M124.557 420.568C124.399 420.406 124.311 420.189 124.311 419.963C124.311 419.737 124.399 419.52 124.557 419.358L129.488 414.427C129.65 414.269 129.867 414.181 130.093 414.181C130.319 414.181 130.536 414.269 130.698 414.427C130.78 414.506 130.846 414.602 130.891 414.707C130.935 414.812 130.958 414.925 130.958 415.04C130.958 415.154 130.935 415.267 130.891 415.372C130.846 415.478 130.78 415.573 130.698 415.652L125.782 420.568C125.703 420.65 125.608 420.716 125.502 420.76C125.397 420.805 125.284 420.828 125.17 420.828C125.055 420.828 124.942 420.805 124.837 420.76C124.732 420.716 124.636 420.65 124.557 420.568Z" fill="#263238"/>
<path d="M117.056 428.069C116.909 427.929 116.792 427.761 116.712 427.575C116.632 427.389 116.591 427.188 116.591 426.986C116.591 426.783 116.632 426.582 116.712 426.396C116.792 426.21 116.909 426.042 117.056 425.902L124.079 418.879C124.219 418.73 124.388 418.611 124.575 418.53C124.763 418.448 124.965 418.406 125.17 418.406C125.374 418.406 125.577 418.448 125.764 418.53C125.952 418.611 126.121 418.73 126.261 418.879C126.407 419.019 126.524 419.187 126.604 419.373C126.684 419.56 126.726 419.76 126.726 419.963C126.726 420.165 126.684 420.366 126.604 420.552C126.524 420.739 126.407 420.907 126.261 421.046L119.238 428.069C119.098 428.218 118.929 428.337 118.741 428.419C118.554 428.5 118.351 428.542 118.147 428.542C117.942 428.542 117.74 428.5 117.553 428.419C117.365 428.337 117.196 428.218 117.056 428.069Z" fill="#263238"/>
<path d="M143.025 415.488C144.337 414.178 145.231 412.509 145.594 410.691C145.956 408.873 145.772 406.989 145.063 405.276C144.354 403.563 143.154 402.099 141.613 401.069C140.072 400.039 138.26 399.489 136.406 399.489C134.553 399.489 132.741 400.039 131.2 401.069C129.659 402.099 128.458 403.563 127.749 405.276C127.04 406.989 126.856 408.873 127.219 410.691C127.581 412.509 128.475 414.178 129.787 415.488C131.543 417.241 133.924 418.226 136.406 418.226C138.888 418.226 141.269 417.241 143.025 415.488Z" fill="#263238"/>
<path d="M141.232 413.68C142.183 412.726 142.83 411.512 143.09 410.191C143.351 408.87 143.215 407.501 142.699 406.257C142.182 405.014 141.309 403.951 140.189 403.203C139.069 402.456 137.753 402.057 136.406 402.057C135.06 402.057 133.743 402.456 132.623 403.203C131.503 403.951 130.63 405.014 130.113 406.257C129.597 407.501 129.461 408.87 129.722 410.191C129.983 411.512 130.629 412.726 131.58 413.68C132.213 414.315 132.965 414.819 133.793 415.163C134.621 415.507 135.509 415.684 136.406 415.684C137.303 415.684 138.191 415.507 139.019 415.163C139.847 414.819 140.599 414.315 141.232 413.68Z" fill="white"/>
<path d="M397.549 338.297C397.549 340.195 396.794 342.016 395.452 343.358C394.11 344.7 392.29 345.454 390.391 345.454H339.932C338.966 345.498 338 345.346 337.094 345.007C336.188 344.667 335.361 344.148 334.661 343.48C333.961 342.811 333.405 342.008 333.024 341.119C332.644 340.229 332.448 339.272 332.448 338.304C332.448 337.337 332.644 336.38 333.024 335.49C333.405 334.601 333.961 333.798 334.661 333.129C335.361 332.461 336.188 331.941 337.094 331.602C338 331.263 338.966 331.11 339.932 331.155H390.391C392.287 331.155 394.105 331.907 395.447 333.246C396.789 334.585 397.545 336.401 397.549 338.297Z" fill="#F2E205" stroke="#263238" stroke-width="0.75" stroke-linecap="round" stroke-linejoin="round"/>
<path d="M367.351 343.243C369.546 343.243 371.325 341.463 371.325 339.268C371.325 337.073 369.546 335.293 367.351 335.293C365.156 335.293 363.376 337.073 363.376 339.268C363.376 341.463 365.156 343.243 367.351 343.243Z" fill="white" stroke="#263238" stroke-width="0.75" stroke-linecap="round" stroke-linejoin="round"/>
<path d="M306.94 385.917C312.287 385.917 316.622 381.582 316.622 376.235C316.622 370.887 312.287 366.552 306.94 366.552C301.592 366.552 297.257 370.887 297.257 376.235C297.257 381.582 301.592 385.917 306.94 385.917Z" fill="#F2E205" stroke="#263238" stroke-width="0.75" stroke-linecap="round" stroke-linejoin="round"/>
<path d="M310.571 376.235C310.574 375.516 310.363 374.813 309.966 374.214C309.569 373.615 309.003 373.147 308.34 372.87C307.677 372.593 306.946 372.519 306.241 372.657C305.535 372.795 304.887 373.14 304.378 373.647C303.869 374.154 303.521 374.801 303.38 375.506C303.239 376.211 303.31 376.942 303.584 377.606C303.858 378.27 304.324 378.838 304.921 379.238C305.519 379.638 306.221 379.851 306.94 379.851C307.9 379.851 308.822 379.47 309.502 378.793C310.183 378.115 310.567 377.195 310.571 376.235Z" fill="white" stroke="#263238" stroke-width="0.75" stroke-linecap="round" stroke-linejoin="round"/>
<path d="M339.932 348.159C345.279 348.159 349.614 343.824 349.614 338.476C349.614 333.129 345.279 328.794 339.932 328.794C334.585 328.794 330.25 333.129 330.25 338.476C330.25 343.824 334.585 348.159 339.932 348.159Z" fill="#F2E205" stroke="#263238" stroke-width="0.75" stroke-linecap="round" stroke-linejoin="round"/>
<path d="M339.932 342.212C341.995 342.212 343.667 340.54 343.667 338.476C343.667 336.413 341.995 334.741 339.932 334.741C337.869 334.741 336.196 336.413 336.196 338.476C336.196 340.54 337.869 342.212 339.932 342.212Z" fill="white" stroke="#263238" stroke-width="0.75" stroke-linecap="round" stroke-linejoin="round"/>
</svg>
