<svg width="192" height="150" viewBox="0 0 192 150" fill="none" xmlns="http://www.w3.org/2000/svg">
<path d="M131.88 29.9382C123.613 29.9382 116.911 23.2363 116.911 14.9691C116.911 6.7019 123.613 0 131.88 0C140.147 0 146.849 6.7019 146.849 14.9691C146.849 23.2363 140.147 29.9382 131.88 29.9382Z" fill="#3A3A3A"/>
<path d="M102.765 45.7306C105.684 42.8117 110.699 37.4228 120.428 37.4228H139.439C157.644 37.3566 172.862 24.2339 176.136 6.96158C176.856 3.16321 179.921 0 183.787 0H184.756C188.622 0 191.806 3.14937 191.292 6.98109C188.774 25.7667 176.24 41.4463 159.234 48.4757C156.379 49.6557 154.334 52.3356 154.334 55.4244V142.691C154.334 146.557 151.2 149.691 147.334 149.691H146.364C142.498 149.691 139.364 146.557 139.364 142.691V111.784C139.364 107.918 136.23 104.784 132.364 104.784H131.395C127.529 104.784 124.395 107.918 124.395 111.784V142.691C124.395 146.557 121.261 149.691 117.395 149.691H116.426C112.56 149.691 109.426 146.557 109.426 142.691V67.4933C109.426 64.8206 106.195 63.4821 104.305 65.372L84.8119 84.865C82.0783 87.5986 77.6461 87.5986 74.9124 84.865L74.2532 84.2057C71.5217 81.4742 71.5192 77.0463 74.2476 74.3117L102.765 45.7306Z" fill="#3A3A3A"/>
<path d="M36.4651 38.3485H20.3797C14.2658 38.3485 9.34069 39.7678 5.60441 42.6064C1.86814 45.445 0 49.9697 0 56.1807V80.7819C0 82.5287 0.0121308 83.7903 0.0363923 84.5667C0.0606538 85.343 0.181961 86.3135 0.400315 87.478C0.618669 88.6426 0.934069 89.4675 1.34651 89.9527C1.75896 90.4379 2.3655 90.8746 3.16613 91.2628C3.96676 91.651 4.97361 91.8451 6.18669 91.8451H12.5917V145.633C12.5917 146.895 12.9435 147.938 13.6471 148.763C14.3507 149.588 15.2362 150 16.3037 150H24.8195C25.2562 150 25.6202 149.964 25.9113 149.891C26.2024 149.818 26.4451 149.733 26.6392 149.636C26.8332 149.539 27.0152 149.345 27.185 149.054C27.3549 148.763 27.4762 148.52 27.549 148.326C27.6217 148.132 27.7552 147.756 27.9493 147.198C28.1434 146.64 28.3132 146.191 28.4588 145.851C28.6529 146.336 28.8348 146.87 29.0047 147.453C29.1745 148.035 29.2958 148.435 29.3686 148.653C29.4414 148.872 29.5748 149.114 29.7689 149.381C29.963 149.648 30.2056 149.818 30.4967 149.891C30.7879 149.964 31.2003 150 31.7341 150H40.6866C41.657 150 42.4941 149.575 43.1976 148.726C43.9012 147.877 44.253 146.846 44.253 145.633V91.8451H50.6581C51.8711 91.8451 52.878 91.651 53.6786 91.2628C54.4793 90.8746 55.0858 90.4379 55.4982 89.9527C55.9107 89.4675 56.2261 88.6426 56.4444 87.478C56.6628 86.3135 56.7841 85.3309 56.8084 84.5303C56.8326 83.7296 56.8448 82.4802 56.8448 80.7819V56.1807C56.8448 49.9697 54.9766 45.445 51.2403 42.6064C47.5041 39.7678 42.579 38.3485 36.4651 38.3485Z" fill="#3A3A3A"/>
<path d="M17.9778 30.233C21.0833 33.2657 24.5769 34.782 28.4588 34.782C32.3406 34.782 35.8464 33.2657 38.9761 30.233C42.1059 27.2003 43.6707 23.6217 43.6707 19.4973C43.6707 15.4213 42.1059 11.8791 38.9761 8.87071C35.8464 5.86228 32.3406 4.35806 28.4588 4.35806C24.5769 4.35806 21.0833 5.86228 17.9778 8.87071C14.8723 11.8791 13.3196 15.4213 13.3196 19.4973C13.3196 23.6217 14.8723 27.2003 17.9778 30.233Z" fill="#3A3A3A"/>
</svg>
