<svg width="219" height="159" viewBox="0 0 219 159" fill="none" xmlns="http://www.w3.org/2000/svg">
<path d="M180.314 28.3179L182.721 25.9102L180.314 23.5024L166.631 9.81971L214.647 4.03461L208.865 52.0274L195.182 38.3447L192.775 35.9379L190.368 38.3438L119.072 109.587L119.071 109.588C118.785 109.874 118.277 109.903 117.937 109.575C117.935 109.573 117.933 109.571 117.93 109.568L91.2336 82.8716L88.8263 80.4643L86.4186 82.8711L14.6561 154.608L4.67743 144.585L88.2652 60.9709C88.2652 60.9709 88.2653 60.9708 88.2654 60.9707C88.5782 60.6581 89.0753 60.6596 89.3866 60.9709L89.3878 60.9721L116.13 87.6882L118.538 90.0936L120.944 87.687L180.314 28.3179ZM216.299 3.83507L216.14 2.51492L216.136 2.47928L215.892 0.45499L216.165 2.48328L216.169 2.51849L216.346 3.82961C216.33 3.83173 216.315 3.83354 216.299 3.83507ZM13.7304 155.533C13.7313 155.532 13.7323 155.531 13.7332 155.53L13.7308 155.533L13.7304 155.533Z" stroke="#D4D4D4" stroke-width="6.81013"/>
</svg>
