<svg width="168" height="168" viewBox="0 0 168 168" fill="none" xmlns="http://www.w3.org/2000/svg">
<path d="M54.5 0.600006C59.0043 0.600006 63.4645 1.4872 67.626 3.21094C71.7875 4.93467 75.5687 7.46119 78.7537 10.6462C81.9388 13.8313 84.4653 17.6125 86.189 21.774C87.9128 25.9354 88.8 30.3957 88.8 34.9C88.8 39.4043 87.9128 43.8646 86.189 48.0261C84.4653 52.1875 81.9388 55.9687 78.7537 59.1538C75.5687 62.3388 71.7875 64.8653 67.626 66.5891C63.4645 68.3128 59.0043 69.2 54.5 69.2C45.403 69.2 36.6787 65.5863 30.2462 59.1538C23.8137 52.7213 20.2 43.9969 20.2 34.9C20.2 25.8031 23.8137 17.0787 30.2462 10.6462C36.6787 4.21375 45.403 0.600006 54.5 0.600006V0.600006ZM54.5 10.4C48.0021 10.4 41.7705 12.9812 37.1758 17.5759C32.5812 22.1705 30 28.4022 30 34.9C30 41.3978 32.5812 47.6295 37.1758 52.2241C41.7705 56.8188 48.0021 59.4 54.5 59.4C60.9978 59.4 67.2294 56.8188 71.8241 52.2241C76.4187 47.6295 79 41.3978 79 34.9C79 28.4022 76.4187 22.1705 71.8241 17.5759C67.2294 12.9812 60.9978 10.4 54.5 10.4Z" fill="#D4D4D4"/>
<path d="M123.1 69.2C129.598 69.2 135.829 66.6188 140.424 62.0241C145.019 57.4295 147.6 51.1978 147.6 44.7C147.6 38.2022 145.019 31.9705 140.424 27.3759C135.829 22.7813 129.598 20.2 123.1 20.2C116.602 20.2 110.371 22.7813 105.776 27.3759C101.181 31.9705 98.6 38.2022 98.6 44.7C98.6 51.1978 101.181 57.4295 105.776 62.0241C110.371 66.6188 116.602 69.2 123.1 69.2ZM108.4 44.7C108.4 40.8013 109.949 37.0623 112.706 34.3055C115.462 31.5488 119.201 30 123.1 30C126.999 30 130.738 31.5488 133.494 34.3055C136.251 37.0623 137.8 40.8013 137.8 44.7C137.8 48.5987 136.251 52.3377 133.494 55.0945C130.738 57.8513 126.999 59.4 123.1 59.4C119.201 59.4 115.462 57.8513 112.706 55.0945C109.949 52.3377 108.4 48.5987 108.4 44.7Z" fill="#D4D4D4"/>
<path d="M91.789 79.2254C90.7998 79.075 89.8006 78.9997 88.8 79H20.2C15.0017 79 10.0164 81.065 6.34068 84.7407C2.66497 88.4164 0.599976 93.4018 0.599976 98.6V113.3C0.599976 133.429 21.0624 147.6 54.5 147.6C61.6736 147.6 68.2592 146.943 74.1588 145.718C72.7782 142.733 71.676 139.626 70.866 136.438C65.4624 137.381 59.9851 137.837 54.5 137.8C25.8742 137.8 10.4 127.089 10.4 113.3V98.6C10.4 96.0009 11.4325 93.5082 13.2703 91.6704C15.1082 89.8325 17.6009 88.8 20.2 88.8H81.5186C84.5076 85.174 87.9572 81.9596 91.789 79.2254Z" fill="#D4D4D4"/>
<path d="M79 123.1C79 134.796 83.6462 146.013 91.9166 154.283C100.187 162.554 111.404 167.2 123.1 167.2C134.796 167.2 146.013 162.554 154.283 154.283C162.554 146.013 167.2 134.796 167.2 123.1C167.2 111.404 162.554 100.187 154.283 91.9166C146.013 83.6462 134.796 79 123.1 79C111.404 79 100.187 83.6462 91.9166 91.9166C83.6462 100.187 79 111.404 79 123.1V123.1ZM102.559 150.569L150.579 102.549C155.533 109.155 157.938 117.325 157.353 125.561C156.768 133.797 153.231 141.545 147.393 147.383C141.555 153.221 133.806 156.758 125.571 157.343C117.335 157.928 109.164 155.523 102.559 150.569V150.569ZM95.6306 143.641C90.6767 137.036 88.2716 128.865 88.8569 120.629C89.4422 112.394 92.9786 104.645 98.8168 98.807C104.655 92.9688 112.403 89.4324 120.639 88.8471C128.875 88.2618 137.045 90.6669 143.651 95.6208L95.6306 143.641V143.641Z" fill="#D4D4D4"/>
</svg>
