<svg width="195" height="195" viewBox="0 0 195 195" fill="none" xmlns="http://www.w3.org/2000/svg">
<g opacity="0.2">
<path d="M91.8742 29.9V28.5926L90.8005 27.8468C88.7543 26.4255 87.2159 24.3875 86.4098 22.0302C85.6036 19.6729 85.5719 17.1197 86.3193 14.7431C87.0666 12.3665 88.5539 10.2909 90.5641 8.81927C92.5744 7.34763 95.0023 6.55692 97.4936 6.56256L97.5049 6.56253C99.9962 6.55692 102.424 7.34763 104.434 8.81927C106.445 10.2909 107.932 12.3665 108.679 14.7431C109.427 17.1197 109.395 19.6729 108.589 22.0302C107.783 24.3875 106.244 26.4255 104.198 27.8468L103.124 28.5926V29.9V41.275V43.4433L105.271 43.7499C114.516 45.0706 122.898 48.6412 130.043 54L131.778 55.301L133.311 53.7678L144.198 42.8803L145.121 41.9576L144.892 40.6731C144.22 36.9102 145.278 33.1091 148.013 30.211C150.379 28.0035 153.398 26.875 156.405 26.875C159.413 26.875 162.434 28.004 164.8 30.2126C169.268 34.9293 169.249 42.3518 164.806 46.9689C162.439 49.1815 159.416 50.3125 156.405 50.3125C155.568 50.3125 155.073 50.3009 154.545 50.1569L153.145 49.7751L152.119 50.801L141.231 61.6885L139.692 63.2279L141.005 64.9643C147.994 74.2052 151.874 85.2961 151.874 97.5V100H154.374H161.037H162.344L163.09 98.9262C164.511 96.8801 166.549 95.3417 168.907 94.5355C171.264 93.7294 173.817 93.6977 176.194 94.445C178.57 95.1924 180.646 96.6797 182.118 98.6899C183.589 100.7 184.38 103.128 184.374 105.619L184.374 105.631C184.38 108.122 183.589 110.55 182.118 112.56C180.646 114.57 178.57 116.058 176.194 116.805C173.817 117.552 171.264 117.521 168.907 116.715C166.549 115.908 164.511 114.37 163.09 112.324L162.344 111.25H161.037H152.018H150.158L149.623 113.032C147.76 119.242 144.809 124.989 141.003 130.039L139.694 131.775L141.231 133.312L160.244 152.324L161.27 153.35L162.67 152.968C163.198 152.824 163.693 152.813 164.53 152.813C167.538 152.813 170.559 153.942 172.925 156.15C177.384 160.857 177.384 168.205 172.925 172.913C170.559 175.121 167.538 176.25 164.53 176.25C161.523 176.25 158.504 175.122 156.138 172.914C153.403 170.016 152.345 166.215 153.017 162.452L153.246 161.167L152.323 160.245L133.311 141.232L131.789 139.711L130.058 140.989C126.772 143.414 123.271 145.512 119.636 147.136L115.906 148.803L119.087 151.366C121.498 153.308 123.174 156.258 123.444 159.603C123.905 165.987 119.14 171.602 112.667 172.188H111.718C105.674 172.188 100.587 167.563 99.9995 161.414C100.011 159.104 100.383 157.122 101.198 155.493L103.007 151.875H98.9618H97.4992C90.2701 151.875 83.4311 150.477 77.1303 147.987L75.0715 147.174L74.0149 149.119L65.3211 165.126L64.6928 166.282L65.2911 167.455C66.9606 170.727 67.0286 174.734 65.1543 178.215C64.4245 179.569 63.4353 180.765 62.243 181.737C61.0505 182.709 59.6783 183.436 58.2047 183.878C56.7311 184.319 55.1849 184.466 53.6545 184.31C52.1242 184.154 50.6395 183.698 49.2854 182.968C47.9312 182.238 46.734 181.249 45.7623 180.056C44.7905 178.864 44.0631 177.492 43.6216 176.018C43.1802 174.544 43.0333 172.998 43.1893 171.468C43.3452 169.94 43.7999 168.458 44.5277 167.105C46.4758 163.55 49.8213 161.458 53.5778 160.911L54.809 160.732L55.4085 159.642L64.346 143.392L65.3421 141.581L63.7505 140.262C58.2816 135.731 53.6073 130.273 50.109 124.131L49.1505 122.449L47.2817 122.956L35.0129 126.287L33.7378 126.634L33.3055 127.882C32.1097 131.337 29.2436 134.153 25.4049 135.231L25.3024 135.259L25.2027 135.297C24.3833 135.604 23.599 135.625 22.343 135.625C17.3033 135.625 12.423 132.25 11.0279 127.002L11.0242 126.988C10.208 123.986 10.6173 120.782 12.1622 118.082C13.7071 115.381 16.2611 113.405 19.2628 112.587L19.401 112.549L19.534 112.496C20.2342 112.216 21.047 112.188 22.343 112.188C25.0724 112.188 27.7569 113.19 29.8365 114.934L30.8324 115.77L32.0883 115.434L42.7321 112.59L45.0421 111.973L44.5284 109.638C43.6648 105.713 43.1242 101.671 43.1242 97.5V95.4946L41.1666 95.0596C38.5724 94.4831 36.1928 93.4393 34.2556 91.6567C29.8015 86.9491 29.8034 79.6055 34.2611 74.9C36.6274 72.6915 39.6475 71.5625 42.6555 71.5625C44.0431 71.5625 45.4342 71.8266 46.7645 72.3587L48.8223 73.1818L49.8862 71.2376C52.1503 67.0997 54.7771 63.4014 58.0733 60.1053L59.5588 58.6198L58.3513 56.9006L48.7638 43.2506L48.0171 42.1875H46.718C43.037 42.1875 39.4308 40.451 37.1532 37.1686L37.1461 37.1583L37.1388 37.148C33.4033 31.8783 34.7266 24.588 40.0214 20.9018L40.0466 20.8842L40.0714 20.866C42.0393 19.4229 44.3531 18.75 46.718 18.75C50.3913 18.75 54.0138 20.482 56.3806 23.7926C58.6235 26.9618 58.9822 30.9624 57.6948 34.4858L57.2483 35.7079L57.9931 36.7748L67.0119 49.6936L68.3266 51.5769L70.3143 50.4261C76.2061 47.0151 82.7261 44.7613 89.7316 43.7494L91.8742 43.4399V41.275V29.9ZM54.3742 97.5C54.3742 121.306 73.6935 140.625 97.4992 140.625C121.305 140.625 140.624 121.306 140.624 97.5C140.624 73.6943 121.305 54.375 97.4992 54.375C73.6935 54.375 54.3742 73.6943 54.3742 97.5ZM75.6242 85.3125C75.6242 79.9495 79.9487 75.625 85.3117 75.625C90.6748 75.625 94.9992 79.9495 94.9992 85.3125C94.9992 90.6756 90.6748 95 85.3117 95C79.9487 95 75.6242 90.6756 75.6242 85.3125ZM108.124 113.75C108.124 110.662 110.661 108.125 113.749 108.125C116.837 108.125 119.374 110.662 119.374 113.75C119.374 116.838 116.837 119.375 113.749 119.375C110.661 119.375 108.124 116.838 108.124 113.75Z" fill="#3A3A3A" stroke="#FAFAFA" stroke-width="5"/>
</g>
</svg>
